<svg width="154" height="41" viewBox="0 0 154 41" fill="none" xmlns="http://www.w3.org/2000/svg">
<path d="M148.2 0.800781H144V1.70534H145.607V6.20079H146.592V1.70534H148.2V0.800781Z" fill="black"/>
<path d="M152.815 0.929223L152.795 0.800781H152.026L150.6 4.32336L149.186 0.836309L149.171 0.800781H148.418L147.61 6.12973L147.6 6.20079H148.467L149.007 2.5935L150.401 5.98217L150.441 6.06961H150.767L152.198 2.5853L152.731 6.14887L152.738 6.20079H153.6L152.815 0.929223Z" fill="black"/>
<path d="M130.172 21.1213C130.161 20.9533 130.149 20.7878 130.131 20.6223C130.118 20.462 130.097 20.3016 130.076 20.1594C130.076 20.1439 130.076 20.1258 130.071 20.1077C130.063 20.0379 130.05 19.9732 130.035 19.9008C129.945 19.3294 129.818 18.7812 129.655 18.2718C129.596 18.0882 129.531 17.8995 129.467 17.7185C129.26 17.1625 129.041 16.6712 128.798 16.2135C128.78 16.1825 128.764 16.1515 128.746 16.123C128.731 16.0946 128.713 16.0687 128.697 16.0403C128.63 15.9084 128.547 15.7662 128.457 15.6188C128.356 15.4533 128.25 15.2904 128.144 15.1301C128.01 14.9284 127.855 14.7138 127.685 14.4992C127.607 14.388 127.527 14.2897 127.452 14.207C127.308 14.0285 127.192 13.8915 127.075 13.7674C126.967 13.6458 126.838 13.5088 126.678 13.3511C126.523 13.1959 126.386 13.064 126.262 12.9529C126.122 12.8261 125.975 12.6943 125.825 12.5753C125.536 12.3271 125.226 12.0918 124.903 11.8823C124.588 11.6625 124.255 11.4583 123.917 11.2773C123.586 11.0937 123.232 10.9256 122.866 10.773C122.507 10.6179 122.135 10.4808 121.76 10.3722C121.412 10.2611 121.037 10.1628 120.614 10.0723C120.399 10.0257 120.206 9.99213 120.022 9.96628C119.829 9.93783 119.635 9.91456 119.433 9.89129C119.387 9.88611 119.333 9.88095 119.276 9.87836C119.105 9.86543 118.927 9.84991 118.749 9.84215C118.739 9.84215 118.731 9.84215 118.726 9.84215H118.7C118.63 9.8344 118.566 9.82923 118.501 9.82923H118.499C118.23 9.81113 117.969 9.80078 117.695 9.80078C116.2 9.80078 114.798 10.1266 113.527 10.7756L113.504 10.7808C113.333 10.8584 113.163 10.9359 112.998 11.0161L112.894 11.0678C112.791 11.1195 112.683 11.1713 112.582 11.2281C112.517 11.2618 112.453 11.298 112.388 11.3342C112.262 11.3988 112.153 11.466 112.055 11.5333C111.699 11.7375 111.345 11.9728 110.975 12.2547L110.934 12.2883C110.826 12.3736 110.72 12.4564 110.619 12.5391C110.573 12.5753 110.531 12.6089 110.492 12.64V9.80337H106.2V41.0008H110.689V31.2162C110.717 31.2369 110.748 31.2602 110.777 31.2809C111.172 31.5963 111.577 31.8782 111.977 32.1161C112.125 32.2092 112.269 32.2919 112.422 32.3772L112.481 32.4109C112.794 32.5867 113.134 32.7522 113.527 32.9177C113.85 33.0547 114.186 33.1788 114.55 33.2952C114.581 33.3056 114.609 33.3159 114.635 33.3211H114.638C115.541 33.6365 116.492 33.8098 117.465 33.8356H117.478C117.535 33.8408 117.592 33.846 117.649 33.846C117.654 33.846 117.659 33.846 117.667 33.846C117.677 33.846 117.682 33.846 117.698 33.8486C117.863 33.8589 118.028 33.8615 118.202 33.8615C118.408 33.8615 118.586 33.8563 118.741 33.8434C118.95 33.8356 119.175 33.8175 119.428 33.7917C119.803 33.7606 120.203 33.7012 120.619 33.6107C120.807 33.5719 121.006 33.5279 121.2 33.4762C121.404 33.4219 121.6 33.365 121.765 33.3133C122.13 33.2021 122.491 33.0702 122.873 32.9125C123.052 32.8349 123.227 32.7522 123.403 32.6694C123.594 32.5789 123.772 32.4859 123.925 32.4057L123.981 32.3747C124.134 32.2868 124.278 32.2066 124.42 32.1135C124.624 31.9946 124.774 31.8989 124.908 31.8032C125.063 31.6998 125.221 31.5886 125.379 31.4722C125.456 31.4153 125.526 31.3585 125.575 31.3119C125.681 31.2369 125.781 31.1542 125.882 31.0714L125.9 31.0585C125.957 31.0145 126.011 30.968 126.06 30.9163C126.14 30.8542 126.218 30.7844 126.298 30.712L126.35 30.6655C126.443 30.5775 126.538 30.487 126.623 30.3991C126.703 30.3241 126.765 30.2621 126.812 30.2052C126.889 30.1276 126.964 30.0526 127.034 29.9751C127.176 29.8251 127.318 29.6596 127.458 29.4863C127.938 28.9175 128.374 28.2736 128.754 27.5755C128.932 27.2445 129.097 26.9006 129.255 26.523C129.351 26.3058 129.415 26.1378 129.472 25.9749C129.518 25.8507 129.562 25.7163 129.601 25.5947V25.5818C129.66 25.4137 129.702 25.2741 129.738 25.1422C129.761 25.0802 129.777 25.0129 129.79 24.9509C129.821 24.8526 129.846 24.7518 129.87 24.6483C129.916 24.4596 129.963 24.2579 129.994 24.0614C130.019 23.9502 130.04 23.8416 130.053 23.7175C130.115 23.3348 130.159 22.921 130.182 22.4892C130.187 22.4246 130.19 22.3573 130.19 22.2901C130.195 22.1427 130.2 21.9953 130.2 21.8479C130.2 21.6618 130.195 21.4834 130.187 21.3049C130.187 21.2455 130.182 21.1782 130.177 21.1188L130.172 21.1213ZM125.784 21.8505C125.784 22.2668 125.748 22.6909 125.678 23.1072C125.528 23.9916 125.231 24.8268 124.795 25.5896C123.7 27.5315 121.817 28.8839 119.63 29.3028C119.152 29.3958 118.669 29.445 118.196 29.445C115.477 29.445 112.946 27.9685 111.598 25.5896C111.187 24.8733 110.898 24.0821 110.738 23.2443C110.738 23.2236 110.735 23.2029 110.733 23.1822C110.733 23.1589 110.733 23.1357 110.727 23.1098C110.684 22.7219 110.663 22.303 110.663 21.8247C110.663 21.3463 110.686 20.899 110.73 20.5111C111.365 16.8832 114.503 14.2509 118.194 14.2509C118.731 14.2509 119.268 14.3104 119.787 14.4242C123.261 15.1689 125.781 18.2899 125.781 21.8479L125.784 21.8505Z" fill="black"/>
<path d="M102.621 15.5167C100.423 11.9368 96.6005 9.80078 92.3986 9.80078C86.6343 9.80078 81.6886 13.8972 80.6168 19.5485H80.5833L80.5755 19.5976C80.5032 20.0367 80.4541 20.5197 80.4231 21.075C80.4076 21.3436 80.3999 21.5813 80.3999 21.8034V21.8912C80.4051 22.2915 80.4283 22.6893 80.4696 23.0742C80.5549 23.9317 80.7382 24.7763 81.0146 25.5873C82.6416 30.4999 87.2154 33.8008 92.3986 33.8008C97.2694 33.8008 101.621 30.8977 103.483 26.4035C103.589 26.1607 103.685 25.8998 103.788 25.5873L103.814 25.5098H99.0204L99.0023 25.5408C97.6594 27.9119 95.1284 29.3867 92.3986 29.3867C89.8315 29.3867 87.4607 28.103 86.0532 25.9541C85.9551 25.812 85.8673 25.6596 85.8027 25.5408C85.3766 24.7969 85.0821 23.9859 84.9324 23.1284H104.325L104.33 23.0767C104.377 22.6609 104.4 22.2321 104.4 21.8034C104.4 21.0621 104.333 20.3182 104.199 19.595C103.93 18.1486 103.4 16.7745 102.623 15.5141L102.621 15.5167ZM86.0506 17.6579C87.4555 15.5038 89.829 14.2175 92.3986 14.2175C94.4466 14.2175 96.3655 15.0208 97.8066 16.4801C98.6563 17.3453 99.2942 18.4043 99.6506 19.5511H85.1596C85.3637 18.8925 85.6632 18.2571 86.0506 17.6605V17.6579Z" fill="black"/>
<path d="M137.109 3.80078H132.6V26.7272C132.6 31.3254 134.399 33.2008 138.81 33.2008C139.642 33.2008 140.783 33.144 141.327 33.0148L141.574 32.9554V29.096L141.441 29.1141C141.403 29.1193 141.361 29.1141 141.327 29.1193C138.939 29.1193 137.596 28.4347 137.215 27.032C137.215 27.0217 137.21 27.0139 137.207 27.001C137.205 26.9855 137.199 26.97 137.197 26.9519C137.114 26.4999 137.109 25.4846 137.109 25.185V12.9455H141.6V9.14037H137.109V3.80078Z" fill="black"/>
<path d="M18.9356 0.800781H14.0792L0.633336 33.7176L0.599609 33.7982H5.64279L6.71161 31.0367C6.74793 30.9457 6.78425 30.8573 6.82057 30.7741L6.83873 30.7299C8.49385 26.8503 12.284 24.341 16.497 24.341C18.5128 24.341 20.4688 24.9131 22.1551 25.9948C23.709 26.9907 25.0606 28.5639 25.9582 30.4231C26.1735 30.8677 26.3447 31.263 26.4874 31.6348L27.3357 33.8008H32.3997L18.9512 0.839784L18.9356 0.803376V0.800781ZM21.8022 20.282C20.2068 19.3381 18.3779 18.8389 16.51 18.8389C14.6422 18.8389 12.808 19.3407 11.1996 20.2924L16.4996 6.64879L21.7996 20.282H21.8022Z" fill="black"/>
<path d="M67.7321 14.1625C70.5278 14.1625 73.0933 15.6933 74.4304 18.1565L74.4407 18.1746H79.1994L79.1838 18.128C78.4675 15.8876 77.1123 13.9217 75.2683 12.4401C75.1364 12.3261 74.9968 12.2251 74.8804 12.1397C72.8088 10.6089 70.3545 9.80078 67.7761 9.80078C61.1735 9.80078 55.7993 15.1831 55.7993 21.8008C55.7993 23.0078 55.9778 24.2018 56.3347 25.3545C56.4097 25.5979 56.4898 25.8233 56.5726 26.0408C56.6166 26.1729 56.6683 26.3024 56.7148 26.4112C56.7226 26.4319 56.7329 26.4527 56.7407 26.4708C56.7485 26.4915 56.7562 26.5122 56.7666 26.533C56.8312 26.678 56.9036 26.8438 56.9786 26.9992C57.1519 27.3566 57.3381 27.6985 57.5321 28.0197C57.62 28.1621 57.726 28.3331 57.845 28.5092C57.9485 28.6698 58.0622 28.8278 58.176 28.9806C60.4674 32.0447 63.9666 33.8008 67.7761 33.8008C72.9692 33.8008 77.5442 30.4829 79.158 25.5435L79.1735 25.4969H74.4019L74.3916 25.515C73.0442 27.9342 70.4916 29.4391 67.7295 29.4391C63.5243 29.4391 60.1028 26.0123 60.1028 21.8008C60.1028 17.5893 63.5243 14.1625 67.7295 14.1625H67.7321Z" fill="black"/>
<path d="M43.1325 14.1625C45.9282 14.1625 48.4937 15.6933 49.8308 18.1565L49.8411 18.1746H54.5997L54.5842 18.128C53.8678 15.8876 52.5127 13.9217 50.6687 12.4401C50.5368 12.3261 50.3972 12.2251 50.2808 12.1397C48.2092 10.6089 45.7549 9.80078 43.1765 9.80078C36.5739 9.80078 31.1997 15.1831 31.1997 21.8008C31.1997 23.0078 31.3782 24.2018 31.7351 25.3545C31.8101 25.5979 31.8902 25.8233 31.973 26.0408C32.017 26.1729 32.0687 26.3024 32.1152 26.4112C32.123 26.4319 32.1333 26.4527 32.1411 26.4708C32.1488 26.4915 32.1566 26.5122 32.1695 26.5407C32.2368 26.6935 32.3066 26.849 32.379 26.9992C32.5523 27.3566 32.7385 27.6985 32.9325 28.0197C33.0204 28.1621 33.1264 28.3331 33.2454 28.5092C33.3488 28.6698 33.4626 28.8278 33.5764 28.9806C35.8678 32.0447 39.367 33.8008 43.1765 33.8008C48.3696 33.8008 52.9446 30.4829 54.5584 25.5435L54.5739 25.4969H49.8023L49.792 25.515C48.4446 27.9342 45.892 29.4391 43.1299 29.4391C38.9247 29.4391 35.5032 26.0123 35.5032 21.8008C35.5032 17.5893 38.9247 14.1625 43.1299 14.1625H43.1325Z" fill="black"/>
</svg>
