<svg width="701" height="1608" viewBox="0 0 701 1608" fill="none" xmlns="http://www.w3.org/2000/svg">
<path d="M350.434 0.137497C350.463 -0.0458324 350.538 -0.0458324 350.567 0.137497L355.966 33.5887C356.008 33.8519 355.917 34.1242 355.851 33.9344C354.436 29.8822 352.647 27.3993 350.696 27.243C352.257 455.336 502.267 821.02 700.998 873.505H701V1608H0V871.383C195.09 812.107 349.046 449.941 350.668 27.242C350.612 27.2382 350.556 27.2361 350.5 27.2361C348.473 27.2362 346.613 29.7475 345.149 33.9363C345.083 34.1263 344.992 33.8539 345.034 33.5906L350.434 0.137497Z" fill="#37B46E"/>
</svg>
