<svg width="111" height="38" viewBox="0 0 111 38" fill="none" xmlns="http://www.w3.org/2000/svg">
<path d="M99.1718 18.1204C99.1615 17.9523 99.1486 17.7868 99.1305 17.6213C99.1176 17.461 99.0969 17.3007 99.0763 17.1584C99.0763 17.1429 99.0763 17.1248 99.0711 17.1067C99.0634 17.0369 99.0504 16.9723 99.0349 16.8999C98.9446 16.3284 98.818 15.7802 98.6553 15.2708C98.5959 15.0872 98.5313 14.8985 98.4668 14.7175C98.2602 14.1615 98.0407 13.6702 97.7979 13.2126C97.7798 13.1815 97.7643 13.1505 97.7462 13.122C97.7307 13.0936 97.7127 13.0677 97.6972 13.0393C97.63 12.9074 97.5474 12.7652 97.457 12.6178C97.3563 12.4523 97.2504 12.2894 97.1445 12.1291C97.0102 11.9274 96.8552 11.7128 96.6848 11.4982C96.6073 11.387 96.5273 11.2887 96.4524 11.206C96.3077 11.0276 96.1915 10.8905 96.0753 10.7664C95.9668 10.6449 95.8377 10.5078 95.6776 10.3501C95.5226 10.1949 95.3857 10.0631 95.2618 9.95187C95.1223 9.82517 94.9751 9.6933 94.8253 9.57435C94.5361 9.32612 94.2262 9.09081 93.9033 8.88136C93.5883 8.66157 93.2551 8.4573 92.9168 8.27629C92.5862 8.0927 92.2324 7.92462 91.8657 7.77206C91.5067 7.61691 91.1348 7.47987 90.7603 7.37127C90.4117 7.26008 90.0372 7.16182 89.6137 7.07132C89.3993 7.02477 89.2056 6.99116 89.0222 6.9653C88.8285 6.93685 88.6348 6.91358 88.4334 6.89031C88.3869 6.88514 88.3327 6.87997 88.2759 6.87738C88.1054 6.86445 87.9272 6.84894 87.749 6.84118C87.7387 6.84118 87.7309 6.84118 87.7258 6.84118H87.6999C87.6302 6.83342 87.5656 6.82825 87.5011 6.82825H87.4985C87.2299 6.81015 86.9691 6.7998 86.6953 6.7998C85.2 6.7998 83.7977 7.12562 82.527 7.77465L82.5038 7.77982C82.3333 7.85739 82.1629 7.93497 81.9976 8.01513L81.8943 8.06684C81.791 8.11856 81.6825 8.17027 81.5818 8.22716C81.5172 8.26078 81.4527 8.29698 81.3881 8.33318C81.2615 8.39782 81.1531 8.46505 81.0549 8.53228C80.6985 8.73656 80.3447 8.97187 79.9754 9.25372L79.9341 9.28733C79.8256 9.37267 79.7197 9.4554 79.619 9.53815C79.5725 9.57435 79.5312 9.60797 79.4925 9.639V6.80239H75.2002V37.9999H79.6887V28.2153C79.7172 28.2359 79.7481 28.2592 79.7766 28.2799C80.1717 28.5954 80.5772 28.8772 80.9775 29.1151C81.1247 29.2082 81.2693 29.2909 81.4217 29.3763L81.4811 29.4099C81.7935 29.5857 82.1345 29.7512 82.527 29.9167C82.8498 30.0538 83.1856 30.1779 83.5497 30.2942C83.5807 30.3046 83.6091 30.3149 83.6349 30.3201H83.6375C84.5414 30.6356 85.4918 30.8088 86.4655 30.8347H86.4784C86.5352 30.8398 86.592 30.845 86.6488 30.845C86.654 30.845 86.6592 30.845 86.6669 30.845C86.6772 30.845 86.6824 30.845 86.6979 30.8476C86.8632 30.8579 87.0285 30.8605 87.2015 30.8605C87.4081 30.8605 87.5863 30.8553 87.7413 30.8424C87.9505 30.8347 88.1751 30.8166 88.4282 30.7907C88.8027 30.7597 89.203 30.7002 89.6188 30.6097C89.8073 30.5709 90.0062 30.5269 90.1999 30.4752C90.4039 30.4209 90.6002 30.364 90.7655 30.3123C91.1296 30.2011 91.4912 30.0693 91.8734 29.9115C92.0516 29.834 92.2272 29.7512 92.4029 29.6685C92.594 29.578 92.7722 29.4849 92.9245 29.4047L92.9813 29.3737C93.1337 29.2858 93.2784 29.2056 93.4204 29.1125C93.6244 28.9936 93.7742 28.8979 93.9085 28.8022C94.0634 28.6988 94.221 28.5876 94.3785 28.4712C94.456 28.4144 94.5257 28.3575 94.5748 28.3109C94.6807 28.2359 94.7814 28.1532 94.8821 28.0705L94.9002 28.0575C94.957 28.0136 95.0113 27.967 95.0603 27.9153C95.1404 27.8532 95.2179 27.7834 95.2979 27.711L95.3496 27.6645C95.4426 27.5766 95.5381 27.4861 95.6233 27.3982C95.7034 27.3232 95.7654 27.2611 95.8119 27.2042C95.8894 27.1266 95.9642 27.0517 96.034 26.9741C96.176 26.8241 96.3181 26.6586 96.4575 26.4854C96.9379 25.9165 97.3743 25.2726 97.754 24.5745C97.9322 24.2435 98.0975 23.8996 98.255 23.5221C98.3506 23.3049 98.4151 23.1368 98.4719 22.9739C98.5184 22.8498 98.5623 22.7153 98.6011 22.5938V22.5808C98.6605 22.4128 98.7018 22.2731 98.7379 22.1413C98.7612 22.0792 98.7767 22.012 98.7896 21.9499C98.8206 21.8516 98.8464 21.7508 98.8697 21.6474C98.9161 21.4586 98.9626 21.2569 98.9936 21.0604C99.0194 20.9492 99.0401 20.8406 99.053 20.7165C99.115 20.3338 99.1589 19.9201 99.1822 19.4882C99.1873 19.4236 99.1899 19.3564 99.1899 19.2891C99.1951 19.1418 99.2002 18.9944 99.2002 18.847C99.2002 18.6608 99.1951 18.4824 99.1873 18.304C99.1873 18.2445 99.1822 18.1773 99.177 18.1178L99.1718 18.1204ZM94.784 18.8496C94.784 19.2659 94.7478 19.6899 94.6781 20.1062C94.5283 20.9906 94.2313 21.8258 93.7949 22.5886C92.6999 24.5305 90.8171 25.8829 88.6297 26.3018C88.1519 26.3949 87.6689 26.444 87.1963 26.444C84.4769 26.444 81.9459 24.9675 80.5978 22.5886C80.1872 21.8723 79.8979 21.0811 79.7378 20.2433C79.7378 20.2226 79.7352 20.2019 79.7326 20.1812C79.7326 20.158 79.7326 20.1347 79.7275 20.1088C79.6836 19.721 79.6629 19.3021 79.6629 18.8237C79.6629 18.3453 79.6862 17.898 79.7301 17.5101C80.3654 13.8823 83.5032 11.2499 87.1937 11.2499C87.7309 11.2499 88.2681 11.3094 88.7872 11.4232C92.2608 12.1679 94.7814 15.2889 94.7814 18.847L94.784 18.8496Z" fill="white"/>
<path d="M71.6205 12.5157C69.4227 8.93583 65.6005 6.7998 61.3986 6.7998C55.6343 6.7998 50.6886 10.8962 49.6168 16.5476H49.5833L49.5755 16.5966C49.5032 17.0357 49.4541 17.5187 49.4231 18.074C49.4076 18.3427 49.3999 18.5803 49.3999 18.8024V18.8902C49.4051 19.2906 49.4283 19.6883 49.4696 20.0732C49.5549 20.9307 49.7382 21.7753 50.0146 22.5863C51.6416 27.4989 56.2154 30.7998 61.3986 30.7998C66.2694 30.7998 70.6211 27.8967 72.4831 23.4025C72.589 23.1597 72.6846 22.8988 72.7879 22.5863L72.8137 22.5088H68.0204L68.0023 22.5398C66.6594 24.9109 64.1284 26.3857 61.3986 26.3857C58.8315 26.3857 56.4607 25.102 55.0532 22.9531C54.9551 22.811 54.8673 22.6586 54.8027 22.5398C54.3766 21.796 54.0821 20.9849 53.9324 20.1274H73.325L73.3302 20.0758C73.3767 19.6599 73.3999 19.2312 73.3999 18.8024C73.3999 18.0611 73.3328 17.3173 73.1985 16.5941C72.9299 15.1476 72.4005 13.7736 71.6231 12.5131L71.6205 12.5157ZM55.0506 14.6569C56.4555 12.5028 58.829 11.2165 61.3986 11.2165C63.4466 11.2165 65.3655 12.0198 66.8066 13.4791C67.6563 14.3444 68.2942 15.4034 68.6506 16.5501H54.1596C54.3637 15.8915 54.6632 15.2561 55.0506 14.6595V14.6569Z" fill="white"/>
<path d="M106.108 0.799805H101.599V23.7262C101.599 28.3244 103.399 30.1999 107.809 30.1999C108.642 30.1999 109.783 30.143 110.327 30.0139L110.573 29.9544V26.0951L110.441 26.1131C110.402 26.1183 110.361 26.1131 110.327 26.1183C107.939 26.1183 106.596 25.4337 106.215 24.031C106.215 24.0207 106.21 24.013 106.207 24C106.204 23.9845 106.199 23.969 106.197 23.951C106.114 23.4989 106.108 22.4837 106.108 22.184V9.94453H110.599V6.13939H106.108V0.799805Z" fill="white"/>
<path d="M36.7321 11.1616C39.5278 11.1616 42.0933 12.6923 43.4304 15.1555L43.4407 15.1737H48.1994L48.1838 15.127C47.4675 12.8866 46.1123 10.9207 44.2683 9.43914C44.1364 9.32517 43.9968 9.22416 43.8804 9.13868C41.8088 7.60792 39.3545 6.7998 36.7761 6.7998C30.1735 6.7998 24.7993 12.1821 24.7993 18.7998C24.7993 20.0068 24.9778 21.2009 25.3347 22.3535C25.4097 22.5969 25.4898 22.8223 25.5726 23.0399C25.6166 23.1719 25.6683 23.3015 25.7148 23.4102C25.7226 23.431 25.7329 23.4517 25.7407 23.4698C25.7485 23.4905 25.7562 23.5113 25.7666 23.532C25.8312 23.677 25.9036 23.8428 25.9786 23.9982C26.1519 24.3556 26.3381 24.6975 26.5321 25.0187C26.62 25.1612 26.726 25.3321 26.845 25.5082C26.9485 25.6688 27.0622 25.8268 27.176 25.9796C29.4674 29.0438 32.9666 30.7998 36.7761 30.7998C41.9692 30.7998 46.5442 27.4819 48.158 22.5425L48.1735 22.4959H43.4019L43.3916 22.5141C42.0442 24.9332 39.4916 26.4381 36.7295 26.4381C32.5243 26.4381 29.1028 23.0114 29.1028 18.7998C29.1028 14.5883 32.5243 11.1616 36.7295 11.1616H36.7321Z" fill="white"/>
<path d="M12.1325 11.1616C14.9282 11.1616 17.4937 12.6923 18.8308 15.1555L18.8411 15.1737H23.5997L23.5842 15.127C22.8678 12.8866 21.5127 10.9207 19.6687 9.43914C19.5368 9.32517 19.3972 9.22416 19.2808 9.13868C17.2092 7.60792 14.7549 6.7998 12.1765 6.7998C5.57385 6.7998 0.199707 12.1821 0.199707 18.7998C0.199707 20.0068 0.378154 21.2009 0.735051 22.3535C0.810051 22.5969 0.890227 22.8223 0.972986 23.0399C1.01695 23.1719 1.06867 23.3015 1.11522 23.4102C1.12298 23.431 1.13333 23.4517 1.14109 23.4698C1.14885 23.4905 1.15661 23.5113 1.16954 23.5397C1.23678 23.6926 1.3066 23.848 1.37902 23.9982C1.55229 24.3556 1.7385 24.6975 1.93247 25.0187C2.0204 25.1612 2.12644 25.3321 2.2454 25.5082C2.34885 25.6688 2.46264 25.8268 2.57644 25.9796C4.86782 29.0438 8.36696 30.7998 12.1765 30.7998C17.3696 30.7998 21.9446 27.4819 23.5584 22.5425L23.5739 22.4959H18.8023L18.792 22.5141C17.4446 24.9332 14.892 26.4381 12.1299 26.4381C7.92472 26.4381 4.50316 23.0114 4.50316 18.7998C4.50316 14.5883 7.92472 11.1616 12.1299 11.1616H12.1325Z" fill="white"/>
</svg>
