<svg width="43" height="44" viewBox="0 0 43 44" fill="none" xmlns="http://www.w3.org/2000/svg">
<path d="M29.4234 11H24.5859L11 44H15.9742L17.0413 41.2671C17.0848 41.1568 17.1282 41.0512 17.1707 40.9538C18.8568 37.0368 22.715 34.505 27.0009 34.505C29.0483 34.505 31.0374 35.0819 32.754 36.1751C34.4253 37.2389 35.765 38.8722 36.627 40.6452C36.8367 41.0751 37.0104 41.4738 37.1591 41.8633L38.0054 44H43L29.4243 11H29.4234ZM32.366 30.5641C30.7529 29.6087 28.9004 29.1044 27.0092 29.1044C25.118 29.1044 23.2536 29.6124 21.6331 30.5742L21.5167 30.644L26.9991 16.6441L32.4824 30.6339L32.366 30.5641Z" fill="white"/>
<path d="M16 0H2V2H16V0Z" fill="#37B46E"/>
<path d="M2 2H0V17H2V2Z" fill="#37B46E"/>
</svg>
