<svg width="419" height="110" viewBox="0 0 419 110" fill="none" xmlns="http://www.w3.org/2000/svg">
<path d="M402.956 0H391.957V2.34488H396.168V13.9984H398.745V2.34488H402.956V0Z" fill="black"/>
<path d="M416.728 0.33296L416.672 0H414.495L410.454 9.13158L406.448 0.0920984L406.406 0H404.271L401.983 13.8142L401.955 13.9984H404.41L405.94 4.64725L409.891 13.4317L410.002 13.6584H410.927L414.982 4.626L416.491 13.8638L416.512 13.9984H418.953L416.728 0.33296Z" fill="black"/>
<path d="M353.884 55.1976C353.856 54.7344 353.821 54.2783 353.772 53.8222C353.737 53.3803 353.681 52.9385 353.625 52.5465C353.625 52.5038 353.625 52.4539 353.611 52.404C353.59 52.2116 353.555 52.0334 353.513 51.8338C353.268 50.2589 352.925 48.748 352.485 47.3441C352.324 46.8381 352.149 46.3178 351.974 45.819C351.415 44.2867 350.82 42.9326 350.163 41.6712C350.114 41.5857 350.072 41.5002 350.023 41.4218C349.981 41.3434 349.932 41.2721 349.89 41.1937C349.708 40.8303 349.485 40.4383 349.24 40.0321C348.967 39.576 348.68 39.127 348.393 38.6852C348.03 38.1293 347.61 37.5378 347.149 36.9462C346.939 36.6398 346.722 36.369 346.519 36.1409C346.128 35.6492 345.813 35.2715 345.498 34.9294C345.204 34.5944 344.855 34.2167 344.421 33.782C344.001 33.3544 343.631 32.9909 343.295 32.6845C342.917 32.3353 342.519 31.9718 342.113 31.644C341.33 30.9598 340.491 30.3113 339.616 29.7341C338.763 29.1283 337.861 28.5653 336.945 28.0664C336.05 27.5604 335.091 27.0972 334.098 26.6767C333.126 26.2491 332.119 25.8714 331.105 25.5721C330.161 25.2656 329.147 24.9948 328 24.7454C327.419 24.6171 326.895 24.5245 326.398 24.4532C325.874 24.3748 325.349 24.3106 324.804 24.2465C324.678 24.2323 324.531 24.218 324.377 24.2109C323.915 24.1753 323.433 24.1325 322.95 24.1111C322.922 24.1111 322.901 24.1111 322.887 24.1111H322.817C322.629 24.0897 322.454 24.0755 322.279 24.0755H322.272C321.545 24.0256 320.838 23.9971 320.097 23.9971C316.047 23.9971 312.25 24.895 308.809 26.6838L308.746 26.6981C308.284 26.9119 307.823 27.1257 307.375 27.3466L307.096 27.4892C306.816 27.6317 306.522 27.7742 306.249 27.931C306.074 28.0237 305.9 28.1234 305.725 28.2232C305.382 28.4014 305.088 28.5867 304.823 28.7719C303.857 29.335 302.899 29.9835 301.899 30.7603L301.787 30.8529C301.494 31.0881 301.207 31.3162 300.934 31.5442C300.808 31.644 300.696 31.7366 300.591 31.8222V24.0042H288.968V109.987H301.123V83.0202C301.2 83.0772 301.284 83.1413 301.361 83.1983C302.431 84.0678 303.529 84.8446 304.613 85.5003C305.011 85.7568 305.403 85.9849 305.816 86.22L305.977 86.3127C306.823 86.7973 307.746 87.2534 308.809 87.7095C309.683 88.0872 310.592 88.4293 311.578 88.75C311.662 88.7785 311.739 88.807 311.809 88.8213H311.816C314.264 89.6907 316.838 90.1682 319.474 90.2395H319.509C319.663 90.2537 319.817 90.268 319.971 90.268C319.985 90.268 319.999 90.268 320.02 90.268C320.048 90.268 320.062 90.268 320.104 90.2751C320.551 90.3036 320.999 90.3108 321.468 90.3108C322.027 90.3108 322.51 90.2965 322.929 90.2609C323.496 90.2395 324.104 90.1896 324.79 90.1183C325.804 90.0328 326.888 89.8689 328.014 89.6195C328.524 89.5126 329.063 89.3914 329.587 89.2489C330.14 89.0992 330.671 88.9424 331.119 88.7999C332.105 88.4935 333.084 88.13 334.119 87.6953C334.602 87.4815 335.077 87.2534 335.553 87.0254C336.071 86.7759 336.553 86.5194 336.966 86.2984L337.12 86.2129C337.532 85.9706 337.924 85.7497 338.309 85.4931C338.861 85.1653 339.267 84.9016 339.63 84.6379C340.05 84.3528 340.477 84.0464 340.903 83.7257C341.113 83.5689 341.302 83.4121 341.435 83.2838C341.721 83.0772 341.994 82.8491 342.267 82.6211L342.316 82.5854C342.47 82.4643 342.617 82.336 342.75 82.1935C342.966 82.0224 343.176 81.83 343.393 81.6305L343.533 81.5022C343.785 81.2599 344.043 81.0104 344.274 80.7681C344.491 80.5615 344.659 80.3904 344.785 80.2336C344.995 80.0198 345.197 79.8132 345.386 79.5994C345.771 79.186 346.156 78.7299 346.533 78.2524C347.834 76.6846 349.016 74.91 350.044 72.9858C350.527 72.0736 350.974 71.1258 351.401 70.0853C351.66 69.4866 351.834 69.0234 351.988 68.5744C352.114 68.2323 352.233 67.8617 352.338 67.5268V67.4911C352.499 67.0279 352.611 66.6431 352.709 66.2796C352.772 66.1086 352.814 65.9233 352.849 65.7522C352.932 65.4814 353.002 65.2035 353.065 64.9184C353.191 64.3982 353.317 63.8423 353.401 63.3007C353.471 62.9942 353.527 62.6949 353.562 62.3528C353.73 61.2981 353.849 60.1578 353.912 58.9677C353.926 58.7895 353.933 58.6042 353.933 58.4189C353.947 58.0127 353.961 57.6064 353.961 57.2002C353.961 56.6871 353.947 56.1954 353.926 55.7036C353.926 55.5397 353.912 55.3544 353.898 55.1905L353.884 55.1976ZM342.001 57.2074C342.001 58.3548 341.903 59.5235 341.714 60.6709C341.309 63.1083 340.505 65.4102 339.323 67.5125C336.357 72.8647 331.259 76.5919 325.335 77.7464C324.041 78.003 322.733 78.1384 321.454 78.1384C314.089 78.1384 307.235 74.0691 303.585 67.5125C302.473 65.5384 301.689 63.3577 301.256 61.0486C301.256 60.9916 301.249 60.9346 301.242 60.8776C301.242 60.8135 301.242 60.7493 301.228 60.678C301.109 59.609 301.053 58.4545 301.053 57.1361C301.053 55.8177 301.116 54.5848 301.235 53.5158C302.955 43.517 311.453 36.2621 321.447 36.2621C322.901 36.2621 324.356 36.426 325.762 36.7396C335.168 38.792 341.994 47.3939 341.994 57.2002L342.001 57.2074Z" fill="black"/>
<path d="M279.15 39.714C273.198 29.8705 262.847 23.9971 251.468 23.9971C235.858 23.9971 222.465 35.261 219.563 50.8004H219.472L219.451 50.9353C219.255 52.1427 219.122 53.4708 219.039 54.9977C218.997 55.7363 218.976 56.3897 218.976 57.0005V57.242C218.99 58.3428 219.053 59.4365 219.164 60.4947C219.395 62.8526 219.892 65.175 220.64 67.4051C225.046 80.9133 237.432 89.9897 251.468 89.9897C264.659 89.9897 276.443 82.007 281.486 69.6493C281.772 68.9817 282.031 68.2644 282.311 67.4051L282.381 67.192H269.4L269.351 67.2772C265.715 73.7969 258.861 77.8522 251.468 77.8522C244.517 77.8522 238.096 74.3225 234.285 68.4136C234.019 68.0229 233.781 67.6039 233.606 67.2772C232.453 65.2318 231.655 63.0018 231.25 60.6439H283.766L283.779 60.5018C283.905 59.3584 283.968 58.1794 283.968 57.0005C283.968 54.9622 283.786 52.9168 283.423 50.9282C282.695 46.951 281.262 43.1727 279.157 39.7069L279.15 39.714ZM234.278 45.6016C238.082 39.6785 244.51 36.1416 251.468 36.1416C257.014 36.1416 262.211 38.3504 266.113 42.3631C268.414 44.7423 270.142 47.6541 271.107 50.8075H231.865C232.418 48.9964 233.229 47.2493 234.278 45.6087V45.6016Z" fill="black"/>
<path d="M373.484 8.99902H360.96V72.1565C360.96 84.8235 365.958 89.99 378.208 89.99C380.52 89.99 383.689 89.8334 385.201 89.4776L385.885 89.3139V78.6821L385.518 78.732C385.41 78.7462 385.295 78.732 385.201 78.7462C378.568 78.7462 374.838 76.8604 373.779 72.9962C373.779 72.9677 373.765 72.9464 373.757 72.9108C373.75 72.8681 373.736 72.8254 373.729 72.7756C373.498 71.5302 373.484 68.7335 373.484 67.908V34.1908H385.957V23.7085H373.484V8.99902Z" fill="black"/>
<path d="M50.1589 0H36.874L0.0922595 89.7631L0 89.9829H13.7958L16.7196 82.4524C16.819 82.2042 16.9183 81.9631 17.0177 81.7362L17.0674 81.6157C21.595 71.0361 31.9632 64.1935 43.4881 64.1935C49.0021 64.1935 54.353 65.7534 58.9658 68.7032C63.2166 71.419 66.914 75.709 69.3694 80.7789C69.9584 81.9915 70.4268 83.0693 70.8171 84.0833L73.1377 89.99H86.9903L50.2014 0.106358L50.1589 0.00707613V0ZM58.0006 53.1246C53.6362 50.5506 48.6331 49.1892 43.5235 49.1892C38.414 49.1892 33.3967 50.5577 28.9968 53.153L43.4951 15.9473L57.9935 53.1246H58.0006Z" fill="black"/>
<path d="M183.616 35.9906C191.262 35.9906 198.278 40.1997 201.934 46.9727L201.963 47.0226H214.976L214.934 46.8944C212.975 40.7338 209.269 35.3282 204.226 31.2544C203.865 30.941 203.483 30.6633 203.165 30.4283C197.5 26.2191 190.788 23.9971 183.737 23.9971C165.68 23.9971 150.983 38.7966 150.983 56.9934C150.983 60.3123 151.471 63.5955 152.447 66.7648C152.653 67.4343 152.872 68.0539 153.098 68.6521C153.218 69.0154 153.36 69.3715 153.487 69.6706C153.508 69.7276 153.537 69.7846 153.558 69.8344C153.579 69.8914 153.6 69.9484 153.629 70.0053C153.805 70.4042 154.003 70.86 154.209 71.2873C154.682 72.2701 155.192 73.2103 155.722 74.0934C155.962 74.4851 156.252 74.9551 156.578 75.4394C156.861 75.881 157.172 76.3154 157.483 76.7356C163.749 85.161 173.319 89.9897 183.737 89.9897C197.938 89.9897 210.45 80.8664 214.863 67.2847L214.906 67.1565H201.857L201.828 67.2064C198.143 73.8583 191.163 77.9962 183.609 77.9962C172.109 77.9962 162.752 68.5738 162.752 56.9934C162.752 45.413 172.109 35.9906 183.609 35.9906H183.616Z" fill="black"/>
<path d="M116.623 35.9906C124.269 35.9906 131.285 40.1997 134.941 46.9727L134.97 47.0226H147.983L147.941 46.8944C145.982 40.7338 142.276 35.3282 137.233 31.2544C136.872 30.941 136.49 30.6633 136.172 30.4283C130.507 26.2191 123.795 23.9971 116.743 23.9971C98.6871 23.9971 83.9902 38.7966 83.9902 56.9934C83.9902 60.3123 84.4782 63.5955 85.4543 66.7648C85.6594 67.4343 85.8786 68.0539 86.1049 68.6521C86.2252 69.0154 86.3666 69.3715 86.4939 69.6706C86.5151 69.7276 86.5434 69.7846 86.5647 69.8344C86.5859 69.8914 86.6071 69.9484 86.6425 70.0267C86.8263 70.4469 87.0173 70.8742 87.2153 71.2873C87.6892 72.2701 88.1984 73.2103 88.7289 74.0934C88.9693 74.4851 89.2593 74.9551 89.5847 75.4394C89.8676 75.881 90.1788 76.3154 90.49 76.7356C96.7563 85.161 106.325 89.9897 116.743 89.9897C130.945 89.9897 143.457 80.8664 147.87 67.2847L147.912 67.1565H134.863L134.835 67.2064C131.15 73.8583 124.17 77.9962 116.616 77.9962C105.116 77.9962 95.759 68.5738 95.759 56.9934C95.759 45.413 105.116 35.9906 116.616 35.9906H116.623Z" fill="black"/>
</svg>
