<svg width="1922" height="1639" viewBox="0 0 1922 1639" fill="none" xmlns="http://www.w3.org/2000/svg">
<g clip-path="url(#clip0_27_149)">
<path d="M960.818 31.1375C960.899 30.9542 961.102 30.9542 961.184 31.1375L975.971 64.5877C976.087 64.8512 975.837 65.1241 975.654 64.9334C971.778 60.8806 966.878 58.3983 961.534 58.243C965.808 486.336 1376.68 852.02 1920.99 904.505H1921V1639H1V902.383C535.34 843.107 957.02 480.941 961.463 58.242C961.309 58.2381 961.155 58.2352 961 58.2352C955.449 58.2353 950.354 60.7467 946.346 64.9353C946.163 65.1261 945.913 64.8532 946.029 64.5896L960.818 31.1375Z" fill="#37B46E"/>
</g>
<defs>
<clipPath id="clip0_27_149">
<rect width="1922" height="1639" fill="white"/>
</clipPath>
</defs>
</svg>
