<svg width="302" height="101" viewBox="0 0 302 101" fill="none" xmlns="http://www.w3.org/2000/svg">
<path d="M289.484 -0.00439453H276.96V63.1531C276.96 75.8201 281.958 80.9866 294.208 80.9866C296.52 80.9866 299.689 80.83 301.201 80.4742L301.885 80.3105V69.6787L301.518 69.7285C301.41 69.7428 301.295 69.7286 301.201 69.7428C294.568 69.7428 290.838 67.8569 289.779 63.9928C289.779 63.9643 289.765 63.943 289.757 63.9074C289.75 63.8647 289.736 63.822 289.729 63.7722C289.498 62.5268 289.484 59.7301 289.484 58.9046V25.1874H301.957V14.7051H289.484V-0.00439453Z" fill="white"/>
<path d="M269.884 46.1947C269.856 45.7315 269.821 45.2754 269.772 44.8193C269.737 44.3774 269.681 43.9356 269.625 43.5436C269.625 43.5008 269.625 43.4509 269.611 43.4011C269.59 43.2086 269.555 43.0305 269.513 42.8309C269.268 41.2559 268.925 39.7451 268.485 38.3411C268.324 37.8351 268.149 37.3149 267.974 36.816C267.415 35.2838 266.82 33.9297 266.163 32.6683C266.114 32.5828 266.072 32.4973 266.023 32.4189C265.981 32.3405 265.932 32.2692 265.89 32.1908C265.708 31.8273 265.485 31.4354 265.24 31.0292C264.967 30.573 264.68 30.1241 264.393 29.6822C264.03 29.1263 263.61 28.5348 263.149 27.9433C262.939 27.6369 262.722 27.366 262.519 27.138C262.128 26.6463 261.813 26.2685 261.498 25.9265C261.204 25.5915 260.855 25.2138 260.421 24.7791C260.001 24.3515 259.631 23.988 259.295 23.6816C258.917 23.3323 258.519 22.9689 258.113 22.6411C257.33 21.9569 256.491 21.3084 255.616 20.7311C254.763 20.1254 253.861 19.5624 252.945 19.0635C252.05 18.5575 251.091 18.0942 250.098 17.6738C249.126 17.2462 248.119 16.8685 247.105 16.5692C246.161 16.2627 245.147 15.9919 244 15.7425C243.419 15.6142 242.895 15.5215 242.398 15.4503C241.874 15.3719 241.349 15.3077 240.804 15.2436C240.678 15.2293 240.531 15.2151 240.377 15.208C239.915 15.1723 239.433 15.1295 238.95 15.1082C238.922 15.1082 238.901 15.1082 238.887 15.1082H238.817C238.629 15.0868 238.454 15.0725 238.279 15.0725H238.272C237.545 15.0227 236.838 14.9941 236.097 14.9941C232.047 14.9941 228.25 15.8921 224.809 17.6809L224.746 17.6952C224.284 17.909 223.823 18.1228 223.375 18.3437L223.096 18.4862C222.816 18.6288 222.522 18.7713 222.249 18.9281C222.074 19.0207 221.9 19.1205 221.725 19.2203C221.382 19.3984 221.088 19.5837 220.823 19.769C219.857 20.332 218.899 20.9806 217.899 21.7574L217.787 21.85C217.494 22.0852 217.207 22.3132 216.934 22.5413C216.808 22.6411 216.696 22.7337 216.591 22.8192V15.0013H204.968V100.985H217.123V74.0172C217.2 74.0742 217.284 74.1384 217.361 74.1954C218.431 75.0649 219.529 75.8417 220.613 76.4973C221.011 76.7539 221.403 76.9819 221.816 77.2171L221.977 77.3098C222.823 77.7944 223.746 78.2505 224.809 78.7066C225.683 79.0843 226.592 79.4264 227.578 79.7471C227.662 79.7756 227.739 79.8041 227.809 79.8184H227.816C230.264 80.6878 232.838 81.1653 235.474 81.2366H235.509C235.663 81.2508 235.817 81.2651 235.971 81.2651C235.985 81.2651 235.999 81.2651 236.02 81.2651C236.048 81.2651 236.062 81.2651 236.104 81.2722C236.551 81.3007 236.999 81.3078 237.468 81.3078C238.027 81.3078 238.51 81.2936 238.929 81.2579C239.496 81.2366 240.104 81.1867 240.79 81.1154C241.804 81.0299 242.888 80.866 244.014 80.6165C244.524 80.5096 245.063 80.3885 245.587 80.2459C246.14 80.0963 246.671 79.9395 247.119 79.797C248.105 79.4905 249.084 79.1271 250.119 78.6923C250.602 78.4785 251.077 78.2505 251.553 78.0224C252.071 77.773 252.553 77.5164 252.966 77.2955L253.12 77.21C253.532 76.9677 253.924 76.7468 254.309 76.4902C254.861 76.1624 255.267 75.8987 255.63 75.635C256.05 75.3499 256.477 75.0435 256.903 74.7228C257.113 74.566 257.302 74.4092 257.435 74.2809C257.721 74.0742 257.994 73.8462 258.267 73.6181L258.316 73.5825C258.47 73.4614 258.617 73.3331 258.75 73.1905C258.966 73.0195 259.176 72.8271 259.393 72.6275L259.533 72.4993C259.785 72.2569 260.043 72.0075 260.274 71.7652C260.491 71.5585 260.659 71.3875 260.785 71.2307C260.995 71.0169 261.197 70.8102 261.386 70.5964C261.771 70.1831 262.156 69.727 262.533 69.2495C263.834 67.6816 265.016 65.9071 266.044 63.9829C266.527 63.0707 266.974 62.1228 267.401 61.0823C267.66 60.4837 267.834 60.0205 267.988 59.5715C268.114 59.2294 268.233 58.8588 268.338 58.5239V58.4882C268.499 58.025 268.611 57.6402 268.709 57.2767C268.772 57.1057 268.814 56.9203 268.849 56.7493C268.932 56.4785 269.002 56.2006 269.065 55.9155C269.191 55.3952 269.317 54.8394 269.401 54.2977C269.471 53.9913 269.527 53.692 269.562 53.3499C269.73 52.2951 269.849 51.1549 269.912 49.9647C269.926 49.7866 269.933 49.6013 269.933 49.416C269.947 49.0098 269.961 48.6035 269.961 48.1973C269.961 47.6842 269.947 47.1925 269.926 46.7007C269.926 46.5368 269.912 46.3515 269.898 46.1876L269.884 46.1947ZM258.001 48.2044C258.001 49.3518 257.903 50.5206 257.714 51.668C257.309 54.1053 256.505 56.4072 255.323 58.5096C252.357 63.8617 247.259 67.589 241.335 68.7435C240.041 69.0001 238.733 69.1355 237.454 69.1355C230.089 69.1355 223.235 65.0661 219.585 58.5096C218.473 56.5355 217.689 54.3548 217.256 52.0457C217.256 51.9887 217.249 51.9317 217.242 51.8747C217.242 51.8105 217.242 51.7464 217.228 51.6751C217.109 50.6061 217.053 49.4516 217.053 48.1332C217.053 46.8147 217.116 45.5818 217.235 44.5128C218.955 34.5141 227.453 27.2592 237.447 27.2592C238.901 27.2592 240.356 27.4231 241.762 27.7366C251.168 29.7891 257.994 38.391 257.994 48.1973L258.001 48.2044Z" fill="white"/>
<path d="M195.15 30.7111C189.198 20.8676 178.847 14.9941 167.468 14.9941C151.858 14.9941 138.465 26.2581 135.563 41.7974H135.472L135.451 41.9324C135.255 43.1397 135.122 44.4678 135.039 45.9948C134.997 46.7334 134.976 47.3868 134.976 47.9976V48.239C134.99 49.3399 135.053 50.4336 135.164 51.4918C135.395 53.8497 135.892 56.1721 136.64 58.4021C141.046 71.9103 153.432 80.9868 167.468 80.9868C180.659 80.9868 192.443 73.004 197.486 60.6464C197.772 59.9788 198.031 59.2615 198.311 58.4021L198.381 58.1891H185.4L185.351 58.2743C181.715 64.794 174.861 68.8493 167.468 68.8493C160.517 68.8493 154.096 65.3196 150.285 59.4106C150.019 59.02 149.781 58.601 149.606 58.2743C148.453 56.2289 147.655 53.9988 147.25 51.6409H199.766L199.779 51.4989C199.905 50.3555 199.968 49.1765 199.968 47.9976C199.968 45.9593 199.786 43.9139 199.423 41.9253C198.695 37.9481 197.262 34.1698 195.157 30.704L195.15 30.7111ZM150.278 36.5987C154.082 30.6756 160.51 27.1387 167.468 27.1387C173.014 27.1387 178.211 29.3475 182.113 33.3601C184.414 35.7393 186.142 38.6512 187.107 41.8045H147.865C148.418 39.9935 149.229 38.2464 150.278 36.6058V36.5987Z" fill="white"/>
<path d="M99.6166 26.9876C107.262 26.9876 114.278 31.1967 117.935 37.9698L117.963 38.0196H130.977L130.934 37.8915C128.975 31.7309 125.269 26.3253 120.226 22.2515C119.865 21.9381 119.484 21.6604 119.165 21.4253C113.5 17.2162 106.788 14.9941 99.7368 14.9941C81.6805 14.9941 66.9836 29.7937 66.9836 47.9905C66.9836 51.3093 67.4716 54.5926 68.4477 57.7619C68.6528 58.4314 68.872 59.051 69.0983 59.6492C69.2186 60.0124 69.36 60.3685 69.4873 60.6677C69.5085 60.7246 69.5368 60.7816 69.5581 60.8315C69.5793 60.8885 69.6005 60.9454 69.6288 61.0024C69.8056 61.4012 70.0036 61.8571 70.2087 62.2844C70.6826 63.2672 71.1918 64.2073 71.7223 65.0905C71.9627 65.4822 72.2527 65.9522 72.578 66.4365C72.861 66.8781 73.1721 67.3125 73.4833 67.7327C79.7497 76.1581 89.3189 80.9868 99.7368 80.9868C113.939 80.9868 126.45 71.8635 130.863 58.2818L130.906 58.1536H117.857L117.829 58.2034C114.144 64.8554 107.163 68.9933 99.6095 68.9933C88.1095 68.9933 78.7524 59.5709 78.7524 47.9905C78.7524 36.4101 88.1095 26.9876 99.6095 26.9876H99.6166Z" fill="white"/>
<path d="M32.6234 26.9876C40.2689 26.9876 47.2849 31.1967 50.9415 37.9698L50.9698 38.0196H63.9833L63.9409 37.8915C61.9818 31.7309 58.2758 26.3253 53.233 22.2515C52.8723 21.9381 52.4904 21.6604 52.1721 21.4253C46.507 17.2162 39.7951 14.9941 32.7437 14.9941C14.6873 14.9941 -0.00952148 29.7937 -0.00952148 47.9905C-0.00952148 51.3093 0.478482 54.5926 1.4545 57.7619C1.65961 58.4314 1.87887 59.051 2.10519 59.6492C2.22542 60.0124 2.36687 60.3685 2.49417 60.6677C2.51539 60.7246 2.54369 60.7816 2.5649 60.8315C2.58612 60.8885 2.60734 60.9454 2.6427 61.0238C2.82659 61.444 3.01755 61.8713 3.21558 62.2844C3.68945 63.2672 4.19867 64.2073 4.72912 65.0905C4.96959 65.4822 5.25957 65.9522 5.58491 66.4365C5.86781 66.8781 6.179 67.3125 6.4902 67.7327C12.7565 76.1581 22.3257 80.9868 32.7437 80.9868C46.9455 80.9868 59.4569 71.8635 63.8702 58.2818L63.9126 58.1536H50.8637L50.8354 58.2034C47.1506 64.8554 40.1699 68.9933 32.6164 68.9933C21.1163 68.9933 11.7593 59.5709 11.7593 47.9905C11.7593 36.4101 21.1163 26.9876 32.6164 26.9876H32.6234Z" fill="white"/>
</svg>
