<svg width="116" height="120" viewBox="0 0 116 120" fill="none" xmlns="http://www.w3.org/2000/svg">
<path d="M79.0885 30H65.9366L29 120H42.5237L45.4249 112.547C45.543 112.246 45.661 111.958 45.7766 111.692C50.3607 101.009 60.8501 94.1046 72.5025 94.1046C78.0687 94.1046 83.4767 95.678 88.1437 98.6594C92.6876 101.561 96.3298 106.015 98.6733 110.85C99.2435 112.023 99.7158 113.11 100.12 114.173L102.421 120H116L79.0911 30H79.0885ZM87.0888 83.3566C82.7031 80.7511 77.6668 79.3756 72.5251 79.3756C67.3834 79.3756 62.3145 80.7611 57.9087 83.3842L57.5922 83.5746L72.4975 45.3929L87.4052 83.547L87.0888 83.3566Z" fill="white"/>
<path d="M47 0H7V7H47V0Z" fill="#37B46E"/>
<path d="M7 7H0V48H7V7Z" fill="#37B46E"/>
</svg>
