<svg width="785" height="156" viewBox="0 0 785 156" fill="none" xmlns="http://www.w3.org/2000/svg">
<path d="M430 30H419V32.3451H423.211V44H425.789V32.3451H430V30Z" fill="white"/>
<path d="M443.774 30.333L443.718 30H441.541L437.5 39.1326L433.493 30.0921L433.452 30H431.316L429.028 43.8158L429 44H431.455L432.986 34.6478L436.937 43.4332L437.048 43.6599H437.973L442.028 34.6265L443.538 43.8654L443.558 44H446L443.774 30.333Z" fill="white"/>
<path d="M380.923 85.204C380.895 84.7408 380.86 84.2846 380.811 83.8284C380.776 83.3865 380.72 82.9446 380.664 82.5526C380.664 82.5099 380.664 82.46 380.65 82.4101C380.629 82.2176 380.594 82.0394 380.552 81.8399C380.308 80.2647 379.965 78.7537 379.524 77.3496C379.363 76.8435 379.188 76.3232 379.014 75.8243C378.454 74.2919 377.859 72.9377 377.202 71.6761C377.153 71.5906 377.111 71.5051 377.062 71.4267C377.02 71.3483 376.971 71.277 376.929 71.1986C376.747 70.8351 376.523 70.4431 376.279 70.0368C376.006 69.5806 375.719 69.1316 375.432 68.6897C375.069 68.1338 374.649 67.5422 374.187 66.9506C373.977 66.6441 373.761 66.3733 373.558 66.1452C373.166 65.6534 372.851 65.2756 372.537 64.9335C372.243 64.5985 371.893 64.2208 371.459 63.786C371.04 63.3584 370.669 62.9949 370.333 62.6884C369.956 62.3391 369.557 61.9756 369.151 61.6478C368.368 60.9635 367.529 60.3149 366.654 59.7376C365.801 59.1318 364.899 58.5687 363.982 58.0698C363.087 57.5637 362.129 57.1005 361.136 56.6799C360.163 56.2523 359.156 55.8745 358.142 55.5752C357.198 55.2687 356.183 54.9979 355.036 54.7484C354.456 54.6201 353.931 54.5274 353.435 54.4562C352.91 54.3778 352.385 54.3136 351.84 54.2495C351.714 54.2352 351.567 54.221 351.413 54.2138C350.952 54.1782 350.469 54.1354 349.986 54.114C349.958 54.114 349.937 54.114 349.923 54.114H349.853C349.665 54.0927 349.49 54.0784 349.315 54.0784H349.308C348.58 54.0285 347.874 54 347.133 54C343.083 54 339.285 54.8981 335.843 56.6871L335.78 56.7013C335.319 56.9151 334.857 57.129 334.41 57.3499L334.13 57.4925C333.85 57.635 333.556 57.7776 333.283 57.9344C333.109 58.027 332.934 58.1268 332.759 58.2266C332.416 58.4048 332.122 58.5901 331.857 58.7754C330.891 59.3385 329.933 59.9871 328.933 60.764L328.821 60.8566C328.527 61.0918 328.24 61.3199 327.968 61.548C327.842 61.6478 327.73 61.7404 327.625 61.826V54.0071H316V140H328.156V113.03C328.233 113.087 328.317 113.151 328.394 113.208C329.464 114.077 330.563 114.854 331.647 115.51C332.045 115.767 332.437 115.995 332.85 116.23L333.011 116.323C333.857 116.807 334.78 117.263 335.843 117.72C336.718 118.097 337.627 118.439 338.613 118.76C338.697 118.789 338.774 118.817 338.844 118.831H338.851C341.299 119.701 343.873 120.179 346.51 120.25H346.545C346.699 120.264 346.853 120.278 347.007 120.278C347.021 120.278 347.035 120.278 347.056 120.278C347.084 120.278 347.098 120.278 347.14 120.285C347.587 120.314 348.035 120.321 348.503 120.321C349.063 120.321 349.546 120.307 349.965 120.271C350.532 120.25 351.14 120.2 351.826 120.129C352.84 120.043 353.924 119.879 355.05 119.63C355.561 119.523 356.099 119.402 356.624 119.259C357.177 119.109 357.708 118.953 358.156 118.81C359.142 118.504 360.121 118.14 361.157 117.705C361.639 117.491 362.115 117.263 362.59 117.035C363.108 116.786 363.591 116.529 364.003 116.308L364.157 116.223C364.57 115.98 364.962 115.759 365.346 115.503C365.899 115.175 366.304 114.911 366.668 114.648C367.088 114.363 367.515 114.056 367.941 113.735C368.151 113.578 368.34 113.422 368.473 113.293C368.76 113.087 369.032 112.859 369.305 112.631L369.354 112.595C369.508 112.474 369.655 112.345 369.788 112.203C370.005 112.032 370.214 111.839 370.431 111.64L370.571 111.512C370.823 111.269 371.082 111.02 371.313 110.777C371.529 110.571 371.697 110.4 371.823 110.243C372.033 110.029 372.236 109.822 372.425 109.609C372.809 109.195 373.194 108.739 373.572 108.261C374.873 106.693 376.055 104.919 377.083 102.994C377.566 102.082 378.013 101.134 378.44 100.093C378.699 99.4946 378.874 99.0313 379.028 98.5823C379.153 98.2402 379.272 97.8696 379.377 97.5346V97.4989C379.538 97.0356 379.65 96.6508 379.748 96.2873C379.811 96.1162 379.853 95.9309 379.888 95.7598C379.972 95.489 380.042 95.211 380.105 94.9259C380.231 94.4056 380.356 93.8497 380.44 93.308C380.51 93.0015 380.566 92.7021 380.601 92.36C380.769 91.3052 380.888 90.1648 380.951 88.9745C380.965 88.7963 380.972 88.611 380.972 88.4257C380.986 88.0194 381 87.6131 381 87.2069C381 86.6937 380.986 86.2019 380.965 85.7101C380.965 85.5462 380.951 85.3609 380.937 85.1969L380.923 85.204ZM369.039 87.214C369.039 88.3615 368.941 89.5304 368.753 90.678C368.347 93.1155 367.543 95.4177 366.36 97.5203C363.395 102.873 358.296 106.601 352.371 107.755C351.077 108.012 349.769 108.147 348.489 108.147C341.124 108.147 334.27 104.078 330.619 97.5203C329.506 95.546 328.723 93.365 328.289 91.0557C328.289 90.9987 328.282 90.9417 328.275 90.8846C328.275 90.8205 328.275 90.7563 328.261 90.6851C328.142 89.6159 328.087 88.4613 328.087 87.1427C328.087 85.8241 328.149 84.5911 328.268 83.522C329.989 73.5221 338.487 66.2664 348.482 66.2664C349.937 66.2664 351.392 66.4303 352.798 66.7439C362.206 68.7966 369.032 77.3995 369.032 87.2069L369.039 87.214Z" fill="white"/>
<path d="M306.181 69.7187C300.228 59.8741 289.877 54 278.496 54C262.885 54 249.49 65.2652 246.588 80.8063H246.497L246.476 80.9412C246.28 82.1487 246.147 83.477 246.063 85.0041C246.021 85.7428 246 86.3962 246 87.0071V87.2486C246.014 88.3496 246.077 89.4434 246.189 90.5017C246.42 92.8599 246.916 95.1825 247.665 97.4128C252.071 110.923 264.459 120 278.496 120C291.688 120 303.474 112.016 308.517 99.6573C308.804 98.9897 309.062 98.2723 309.342 97.4128L309.412 97.1997H296.43L296.381 97.285C292.744 103.805 285.89 107.861 278.496 107.861C271.544 107.861 265.123 104.331 261.311 98.4214C261.045 98.0308 260.807 97.6117 260.633 97.285C259.478 95.2393 258.681 93.009 258.275 90.6509H310.797L310.811 90.5088C310.937 89.3653 311 88.1862 311 87.0071C311 84.9686 310.818 82.9229 310.454 80.9341C309.727 76.9565 308.293 73.1778 306.188 69.7116L306.181 69.7187ZM261.304 75.607C265.109 69.6832 271.537 66.1459 278.496 66.1459C284.043 66.1459 289.24 68.3549 293.143 72.3681C295.444 74.7475 297.172 77.6597 298.137 80.8134H258.891C259.443 79.0022 260.255 77.2548 261.304 75.6141V75.607Z" fill="white"/>
<path d="M400.525 39H388V102.164C388 114.833 392.999 120 405.25 120C407.562 120 410.731 119.843 412.244 119.488L412.928 119.324V108.691L412.561 108.741C412.453 108.755 412.337 108.741 412.244 108.755C405.61 108.755 401.879 106.869 400.82 103.004C400.82 102.976 400.806 102.954 400.799 102.919C400.792 102.876 400.777 102.833 400.77 102.784C400.54 101.538 400.525 98.7411 400.525 97.9156V64.1946H413V53.7111H400.525V39Z" fill="white"/>
<path d="M77.1644 30H63.8781L27.0923 119.773L27 119.993H40.7974L43.7215 112.462C43.8208 112.213 43.9202 111.972 44.0196 111.745L44.0693 111.625C48.5974 101.044 58.9667 94.2006 70.4929 94.2006C76.0076 94.2006 81.359 95.7608 85.9723 98.7109C90.2237 101.427 93.9214 105.717 96.3771 110.788C96.9662 112.001 97.4346 113.079 97.825 114.093L100.146 120H114L77.207 30.1064L77.1644 30.0071V30ZM85.0071 83.1305C80.6422 80.5563 75.6385 79.1947 70.5284 79.1947C65.4182 79.1947 60.4004 80.5634 56 83.1589L70.5 45.9491L85 83.1305H85.0071Z" fill="white"/>
<path d="M210.637 65.9948C218.283 65.9948 225.3 70.2044 228.957 76.9782L228.985 77.0281H242L241.958 76.8999C239.998 70.7386 236.292 65.3324 231.248 61.2581C230.888 60.9447 230.506 60.667 230.187 60.4319C224.522 56.2223 217.809 54 210.757 54C192.698 54 178 68.8012 178 87C178 90.3192 178.488 93.6029 179.464 96.7725C179.669 97.4421 179.889 98.0617 180.115 98.6601C180.235 99.0233 180.377 99.3795 180.504 99.6786C180.525 99.7356 180.553 99.7926 180.575 99.8424C180.596 99.8994 180.617 99.9564 180.645 100.013C180.822 100.412 181.02 100.868 181.225 101.296C181.699 102.278 182.209 103.219 182.739 104.102C182.98 104.494 183.27 104.964 183.595 105.448C183.878 105.89 184.189 106.324 184.5 106.744C190.767 115.171 200.338 120 210.757 120C224.96 120 237.473 110.876 241.887 97.2925L241.929 97.1643H228.879L228.851 97.2141C225.165 103.867 218.184 108.005 210.63 108.005C199.128 108.005 189.77 98.5817 189.77 87C189.77 75.4183 199.128 65.9948 210.63 65.9948H210.637Z" fill="white"/>
<path d="M143.637 65.9948C151.283 65.9948 158.3 70.2044 161.957 76.9782L161.985 77.0281H175L174.958 76.8999C172.998 70.7386 169.292 65.3324 164.248 61.2581C163.888 60.9447 163.506 60.667 163.187 60.4319C157.522 56.2223 150.809 54 143.757 54C125.698 54 111 68.8012 111 87C111 90.3192 111.488 93.6029 112.464 96.7725C112.669 97.4421 112.889 98.0617 113.115 98.6601C113.235 99.0233 113.377 99.3795 113.504 99.6786C113.525 99.7356 113.553 99.7926 113.575 99.8424C113.596 99.8994 113.617 99.9564 113.653 100.035C113.836 100.455 114.027 100.882 114.225 101.296C114.699 102.278 115.209 103.219 115.739 104.102C115.98 104.494 116.27 104.964 116.595 105.448C116.878 105.89 117.189 106.324 117.5 106.744C123.767 115.171 133.338 120 143.757 120C157.96 120 170.473 110.876 174.887 97.2925L174.929 97.1643H161.879L161.851 97.2141C158.165 103.867 151.184 108.005 143.63 108.005C132.128 108.005 122.77 98.5817 122.77 87C122.77 75.4183 132.128 65.9948 143.63 65.9948H143.637Z" fill="white"/>
<path d="M48 0H7V7H48V0Z" fill="#37B46E"/>
<path d="M7 7H0V48H7V7Z" fill="#37B46E"/>
<path d="M453 149H413V156H453V149Z" fill="#37B46E"/>
<path d="M460 109H453V149H460V109Z" fill="#37B46E"/>
<path d="M538.8 72.288C538.384 69.792 537.248 67.696 535.392 66C533.536 64.304 531.024 63.456 527.856 63.456C525.136 63.456 522.8 64.144 520.848 65.52C518.896 66.896 517.424 68.752 516.432 71.088C515.44 73.424 514.944 76.016 514.944 78.864C514.944 81.712 515.44 84.304 516.432 86.64C517.424 88.976 518.88 90.832 520.8 92.208C522.752 93.552 525.072 94.224 527.76 94.224C531.216 94.224 533.888 93.248 535.776 91.296C537.696 89.312 538.784 86.864 539.04 83.952H541.824C541.536 86.448 540.784 88.656 539.568 90.576C538.352 92.464 536.72 93.936 534.672 94.992C532.656 96.048 530.352 96.576 527.76 96.576C524.72 96.576 522.016 95.84 519.648 94.368C517.312 92.864 515.488 90.768 514.176 88.08C512.864 85.392 512.208 82.32 512.208 78.864C512.208 75.44 512.864 72.384 514.176 69.696C515.488 67.008 517.328 64.912 519.696 63.408C522.064 61.872 524.784 61.104 527.856 61.104C530.352 61.104 532.576 61.584 534.528 62.544C536.48 63.504 538.048 64.832 539.232 66.528C540.448 68.192 541.232 70.112 541.584 72.288H538.8ZM556.996 96.624C554.628 96.624 552.564 96.096 550.804 95.04C549.076 93.952 547.748 92.448 546.82 90.528C545.892 88.576 545.428 86.336 545.428 83.808C545.428 81.28 545.892 79.056 546.82 77.136C547.748 75.184 549.076 73.68 550.804 72.624C552.564 71.536 554.628 70.992 556.996 70.992C559.364 70.992 561.412 71.536 563.14 72.624C564.9 73.68 566.244 75.184 567.172 77.136C568.1 79.056 568.564 81.28 568.564 83.808C568.564 86.336 568.1 88.576 567.172 90.528C566.244 92.448 564.9 93.952 563.14 95.04C561.412 96.096 559.364 96.624 556.996 96.624ZM556.996 94.56C559.876 94.56 562.1 93.568 563.668 91.584C565.236 89.568 566.02 86.976 566.02 83.808C566.02 80.672 565.236 78.112 563.668 76.128C562.1 74.112 559.876 73.104 556.996 73.104C554.116 73.104 551.892 74.112 550.324 76.128C548.756 78.112 547.972 80.672 547.972 83.808C547.972 86.976 548.756 89.568 550.324 91.584C551.892 93.568 554.116 94.56 556.996 94.56ZM598.173 71.04C600.413 71.04 602.157 71.712 603.405 73.056C604.653 74.368 605.277 76.272 605.277 78.768V96H602.877V79.152C602.877 77.328 602.509 75.872 601.773 74.784C601.069 73.696 599.741 73.152 597.789 73.152C596.285 73.152 594.957 73.52 593.805 74.256C592.685 74.96 591.821 75.872 591.213 76.992C590.605 78.08 590.301 79.216 590.301 80.4V96H587.901V79.152C587.901 77.328 587.533 75.872 586.797 74.784C586.093 73.696 584.765 73.152 582.813 73.152C581.309 73.152 579.981 73.52 578.829 74.256C577.709 74.96 576.845 75.872 576.237 76.992C575.629 78.08 575.325 79.216 575.325 80.4V96H572.925V71.52H575.325V75.504H575.421C576.125 74.224 577.133 73.168 578.445 72.336C579.757 71.472 581.341 71.04 583.197 71.04C584.893 71.04 586.317 71.456 587.469 72.288C588.621 73.088 589.405 74.272 589.821 75.84H589.917C590.749 74.432 591.853 73.28 593.229 72.384C594.637 71.488 596.285 71.04 598.173 71.04ZM610.221 66.528V63.072H613.677V66.528H610.221ZM613.149 96H610.749V71.52H613.149V96ZM630.046 71.04C632.318 71.04 634.19 71.696 635.662 73.008C637.134 74.32 637.87 76.224 637.87 78.72V96H635.47V79.104C635.47 77.376 635.006 75.952 634.078 74.832C633.15 73.68 631.614 73.104 629.47 73.104C627.902 73.104 626.494 73.472 625.246 74.208C623.998 74.912 623.022 75.824 622.318 76.944C621.614 78.064 621.262 79.2 621.262 80.352V96H618.862V71.52H621.262V75.552H621.358C622.19 74.24 623.31 73.168 624.718 72.336C626.158 71.472 627.934 71.04 630.046 71.04ZM661.382 71.472H663.782V94.56C663.782 97.92 662.822 100.464 660.902 102.192C659.014 103.92 656.39 104.784 653.03 104.784C649.926 104.784 647.478 104.096 645.686 102.72C643.894 101.376 642.902 99.648 642.71 97.536H645.158C645.446 99.04 646.23 100.272 647.51 101.232C648.822 102.192 650.678 102.672 653.078 102.672C655.734 102.672 657.782 102.032 659.222 100.752C660.662 99.504 661.382 97.584 661.382 94.992V89.808H661.286C660.55 91.344 659.43 92.592 657.926 93.552C656.422 94.48 654.662 94.944 652.646 94.944C650.694 94.944 648.902 94.496 647.27 93.6C645.67 92.704 644.39 91.36 643.43 89.568C642.47 87.744 641.99 85.52 641.99 82.896C641.99 80.304 642.47 78.128 643.43 76.368C644.39 74.576 645.67 73.248 647.27 72.384C648.902 71.488 650.694 71.04 652.646 71.04C654.662 71.04 656.422 71.504 657.926 72.432C659.43 73.36 660.55 74.608 661.286 76.176H661.382V71.472ZM653.03 92.832C654.534 92.832 655.91 92.464 657.158 91.728C658.438 90.992 659.462 89.888 660.23 88.416C660.998 86.912 661.382 85.072 661.382 82.896C661.382 80.784 660.998 78.992 660.23 77.52C659.462 76.048 658.438 74.944 657.158 74.208C655.91 73.472 654.534 73.104 653.03 73.104C650.47 73.104 648.406 73.968 646.838 75.696C645.302 77.424 644.534 79.824 644.534 82.896C644.534 86.032 645.302 88.48 646.838 90.24C648.406 91.968 650.47 92.832 653.03 92.832ZM693.74 76.752C696.524 77.328 698.764 77.984 700.46 78.72C702.188 79.424 703.532 80.432 704.492 81.744C705.452 83.024 705.932 84.72 705.932 86.832C705.932 88.656 705.484 90.304 704.588 91.776C703.692 93.248 702.348 94.416 700.556 95.28C698.796 96.144 696.652 96.576 694.124 96.576C690.028 96.576 686.668 95.552 684.044 93.504C681.452 91.456 680.044 88.544 679.82 84.768H682.604C682.86 87.744 683.948 90.08 685.868 91.776C687.82 93.44 690.556 94.272 694.076 94.272C697.148 94.272 699.42 93.584 700.892 92.208C702.396 90.8 703.148 88.992 703.148 86.784C703.148 85.056 702.748 83.712 701.948 82.752C701.148 81.792 699.996 81.056 698.492 80.544C697.02 80 694.86 79.424 692.012 78.816C689.74 78.336 687.82 77.776 686.252 77.136C684.716 76.464 683.484 75.536 682.556 74.352C681.66 73.136 681.212 71.584 681.212 69.696C681.212 67.008 682.22 64.912 684.236 63.408C686.284 61.872 689.02 61.104 692.444 61.104C696.06 61.104 698.956 62 701.132 63.792C703.308 65.552 704.508 68.048 704.732 71.28H701.948C701.372 66.064 698.252 63.456 692.588 63.456C689.868 63.456 687.756 64 686.252 65.088C684.748 66.144 683.996 67.664 683.996 69.648C683.996 71.184 684.38 72.4 685.148 73.296C685.948 74.192 686.988 74.88 688.268 75.36C689.58 75.808 691.404 76.272 693.74 76.752ZM720.918 96.624C718.55 96.624 716.486 96.096 714.726 95.04C712.998 93.952 711.67 92.448 710.742 90.528C709.814 88.576 709.35 86.336 709.35 83.808C709.35 81.28 709.814 79.056 710.742 77.136C711.67 75.184 712.998 73.68 714.726 72.624C716.486 71.536 718.55 70.992 720.918 70.992C723.286 70.992 725.334 71.536 727.062 72.624C728.822 73.68 730.166 75.184 731.094 77.136C732.022 79.056 732.486 81.28 732.486 83.808C732.486 86.336 732.022 88.576 731.094 90.528C730.166 92.448 728.822 93.952 727.062 95.04C725.334 96.096 723.286 96.624 720.918 96.624ZM720.918 94.56C723.798 94.56 726.022 93.568 727.59 91.584C729.158 89.568 729.942 86.976 729.942 83.808C729.942 80.672 729.158 78.112 727.59 76.128C726.022 74.112 723.798 73.104 720.918 73.104C718.038 73.104 715.814 74.112 714.246 76.128C712.678 78.112 711.894 80.672 711.894 83.808C711.894 86.976 712.678 89.568 714.246 91.584C715.814 93.568 718.038 94.56 720.918 94.56ZM747.215 96.624C744.847 96.624 742.783 96.096 741.023 95.04C739.295 93.952 737.967 92.448 737.039 90.528C736.111 88.576 735.646 86.336 735.646 83.808C735.646 81.28 736.111 79.056 737.039 77.136C737.967 75.184 739.295 73.68 741.023 72.624C742.783 71.536 744.847 70.992 747.215 70.992C749.583 70.992 751.631 71.536 753.359 72.624C755.119 73.68 756.463 75.184 757.391 77.136C758.319 79.056 758.783 81.28 758.783 83.808C758.783 86.336 758.319 88.576 757.391 90.528C756.463 92.448 755.119 93.952 753.359 95.04C751.631 96.096 749.583 96.624 747.215 96.624ZM747.215 94.56C750.095 94.56 752.319 93.568 753.887 91.584C755.455 89.568 756.239 86.976 756.239 83.808C756.239 80.672 755.455 78.112 753.887 76.128C752.319 74.112 750.095 73.104 747.215 73.104C744.335 73.104 742.111 74.112 740.543 76.128C738.975 78.112 738.191 80.672 738.191 83.808C738.191 86.976 738.975 89.568 740.543 91.584C742.111 93.568 744.335 94.56 747.215 94.56ZM774.327 71.04C776.599 71.04 778.471 71.696 779.943 73.008C781.415 74.32 782.151 76.224 782.151 78.72V96H779.751V79.104C779.751 77.376 779.287 75.952 778.359 74.832C777.431 73.68 775.895 73.104 773.751 73.104C772.183 73.104 770.775 73.472 769.527 74.208C768.279 74.912 767.303 75.824 766.599 76.944C765.895 78.064 765.543 79.2 765.543 80.352V96H763.143V71.52H765.543V75.552H765.639C766.471 74.24 767.591 73.168 768.999 72.336C770.439 71.472 772.215 71.04 774.327 71.04Z" fill="white"/>
</svg>
