<svg width="719" height="156" viewBox="0 0 719 156" fill="none" xmlns="http://www.w3.org/2000/svg">
<path d="M430 30H419V32.3451H423.211V44H425.789V32.3451H430V30Z" fill="white"/>
<path d="M443.774 30.333L443.718 30H441.541L437.5 39.1326L433.493 30.0921L433.452 30H431.316L429.028 43.8158L429 44H431.455L432.986 34.6478L436.937 43.4332L437.048 43.6599H437.973L442.028 34.6265L443.538 43.8654L443.558 44H446L443.774 30.333Z" fill="white"/>
<path d="M380.923 85.204C380.895 84.7408 380.86 84.2846 380.811 83.8284C380.776 83.3865 380.72 82.9446 380.664 82.5526C380.664 82.5099 380.664 82.46 380.65 82.4101C380.629 82.2176 380.594 82.0394 380.552 81.8399C380.308 80.2647 379.965 78.7537 379.524 77.3496C379.363 76.8435 379.188 76.3232 379.014 75.8243C378.454 74.2919 377.859 72.9377 377.202 71.6761C377.153 71.5906 377.111 71.5051 377.062 71.4267C377.02 71.3483 376.971 71.277 376.929 71.1986C376.747 70.8351 376.523 70.4431 376.279 70.0368C376.006 69.5806 375.719 69.1316 375.432 68.6897C375.069 68.1338 374.649 67.5422 374.187 66.9506C373.977 66.6441 373.761 66.3733 373.558 66.1452C373.166 65.6534 372.851 65.2756 372.537 64.9335C372.243 64.5985 371.893 64.2208 371.459 63.786C371.04 63.3584 370.669 62.9949 370.333 62.6884C369.956 62.3391 369.557 61.9756 369.151 61.6478C368.368 60.9635 367.529 60.3149 366.654 59.7376C365.801 59.1318 364.899 58.5687 363.982 58.0698C363.087 57.5637 362.129 57.1005 361.136 56.6799C360.163 56.2523 359.156 55.8745 358.142 55.5752C357.198 55.2687 356.183 54.9979 355.036 54.7484C354.456 54.6201 353.931 54.5274 353.435 54.4562C352.91 54.3778 352.385 54.3136 351.84 54.2495C351.714 54.2352 351.567 54.221 351.413 54.2138C350.952 54.1782 350.469 54.1354 349.986 54.114C349.958 54.114 349.937 54.114 349.923 54.114H349.853C349.665 54.0927 349.49 54.0784 349.315 54.0784H349.308C348.58 54.0285 347.874 54 347.133 54C343.083 54 339.285 54.8981 335.843 56.6871L335.78 56.7013C335.319 56.9151 334.857 57.129 334.41 57.3499L334.13 57.4925C333.85 57.635 333.556 57.7776 333.283 57.9344C333.109 58.027 332.934 58.1268 332.759 58.2266C332.416 58.4048 332.122 58.5901 331.857 58.7754C330.891 59.3385 329.933 59.9871 328.933 60.764L328.821 60.8566C328.527 61.0918 328.24 61.3199 327.968 61.548C327.842 61.6478 327.73 61.7404 327.625 61.826V54.0071H316V140H328.156V113.03C328.233 113.087 328.317 113.151 328.394 113.208C329.464 114.077 330.563 114.854 331.647 115.51C332.045 115.767 332.437 115.995 332.85 116.23L333.011 116.323C333.857 116.807 334.78 117.263 335.843 117.72C336.718 118.097 337.627 118.439 338.613 118.76C338.697 118.789 338.774 118.817 338.844 118.831H338.851C341.299 119.701 343.873 120.179 346.51 120.25H346.545C346.699 120.264 346.853 120.278 347.007 120.278C347.021 120.278 347.035 120.278 347.056 120.278C347.084 120.278 347.098 120.278 347.14 120.285C347.587 120.314 348.035 120.321 348.503 120.321C349.063 120.321 349.546 120.307 349.965 120.271C350.532 120.25 351.14 120.2 351.826 120.129C352.84 120.043 353.924 119.879 355.05 119.63C355.561 119.523 356.099 119.402 356.624 119.259C357.177 119.109 357.708 118.953 358.156 118.81C359.142 118.504 360.121 118.14 361.157 117.705C361.639 117.491 362.115 117.263 362.59 117.035C363.108 116.786 363.591 116.529 364.003 116.308L364.157 116.223C364.57 115.98 364.962 115.759 365.346 115.503C365.899 115.175 366.304 114.911 366.668 114.648C367.088 114.363 367.515 114.056 367.941 113.735C368.151 113.578 368.34 113.422 368.473 113.293C368.76 113.087 369.032 112.859 369.305 112.631L369.354 112.595C369.508 112.474 369.655 112.345 369.788 112.203C370.005 112.032 370.214 111.839 370.431 111.64L370.571 111.512C370.823 111.269 371.082 111.02 371.313 110.777C371.529 110.571 371.697 110.4 371.823 110.243C372.033 110.029 372.236 109.822 372.425 109.609C372.809 109.195 373.194 108.739 373.572 108.261C374.873 106.693 376.055 104.919 377.083 102.994C377.566 102.082 378.013 101.134 378.44 100.093C378.699 99.4946 378.874 99.0313 379.028 98.5823C379.153 98.2402 379.272 97.8696 379.377 97.5346V97.4989C379.538 97.0356 379.65 96.6508 379.748 96.2873C379.811 96.1162 379.853 95.9309 379.888 95.7598C379.972 95.489 380.042 95.211 380.105 94.9259C380.231 94.4056 380.356 93.8497 380.44 93.308C380.51 93.0015 380.566 92.7021 380.601 92.36C380.769 91.3052 380.888 90.1648 380.951 88.9745C380.965 88.7963 380.972 88.611 380.972 88.4257C380.986 88.0194 381 87.6131 381 87.2069C381 86.6937 380.986 86.2019 380.965 85.7101C380.965 85.5462 380.951 85.3609 380.937 85.1969L380.923 85.204ZM369.039 87.214C369.039 88.3615 368.941 89.5304 368.753 90.678C368.347 93.1155 367.543 95.4177 366.36 97.5203C363.395 102.873 358.296 106.601 352.371 107.755C351.077 108.012 349.769 108.147 348.489 108.147C341.124 108.147 334.27 104.078 330.619 97.5203C329.506 95.546 328.723 93.365 328.289 91.0557C328.289 90.9987 328.282 90.9417 328.275 90.8846C328.275 90.8205 328.275 90.7563 328.261 90.6851C328.142 89.6159 328.087 88.4613 328.087 87.1427C328.087 85.8241 328.149 84.5911 328.268 83.522C329.989 73.5221 338.487 66.2664 348.482 66.2664C349.937 66.2664 351.392 66.4303 352.798 66.7439C362.206 68.7966 369.032 77.3995 369.032 87.2069L369.039 87.214Z" fill="white"/>
<path d="M306.181 69.7187C300.228 59.8741 289.877 54 278.496 54C262.885 54 249.49 65.2652 246.588 80.8063H246.497L246.476 80.9412C246.28 82.1487 246.147 83.477 246.063 85.0041C246.021 85.7428 246 86.3962 246 87.0071V87.2486C246.014 88.3496 246.077 89.4434 246.189 90.5017C246.42 92.8599 246.916 95.1825 247.665 97.4128C252.071 110.923 264.459 120 278.496 120C291.688 120 303.474 112.016 308.517 99.6573C308.804 98.9897 309.062 98.2723 309.342 97.4128L309.412 97.1997H296.43L296.381 97.285C292.744 103.805 285.89 107.861 278.496 107.861C271.544 107.861 265.123 104.331 261.311 98.4214C261.045 98.0308 260.807 97.6117 260.633 97.285C259.478 95.2393 258.681 93.009 258.275 90.6509H310.797L310.811 90.5088C310.937 89.3653 311 88.1862 311 87.0071C311 84.9686 310.818 82.9229 310.454 80.9341C309.727 76.9565 308.293 73.1778 306.188 69.7116L306.181 69.7187ZM261.304 75.607C265.109 69.6832 271.537 66.1459 278.496 66.1459C284.043 66.1459 289.24 68.3549 293.143 72.3681C295.444 74.7475 297.172 77.6597 298.137 80.8134H258.891C259.443 79.0022 260.255 77.2548 261.304 75.6141V75.607Z" fill="white"/>
<path d="M400.525 39H388V102.164C388 114.833 392.999 120 405.25 120C407.562 120 410.731 119.843 412.244 119.488L412.928 119.324V108.691L412.561 108.741C412.453 108.755 412.337 108.741 412.244 108.755C405.61 108.755 401.879 106.869 400.82 103.004C400.82 102.976 400.806 102.954 400.799 102.919C400.792 102.876 400.777 102.833 400.77 102.784C400.54 101.538 400.525 98.7411 400.525 97.9156V64.1946H413V53.7111H400.525V39Z" fill="white"/>
<path d="M77.1644 30H63.8781L27.0923 119.773L27 119.993H40.7974L43.7215 112.462C43.8208 112.213 43.9202 111.972 44.0196 111.745L44.0693 111.625C48.5974 101.044 58.9667 94.2006 70.4929 94.2006C76.0076 94.2006 81.359 95.7608 85.9723 98.7109C90.2237 101.427 93.9214 105.717 96.3771 110.788C96.9662 112.001 97.4346 113.079 97.825 114.093L100.146 120H114L77.207 30.1064L77.1644 30.0071V30ZM85.0071 83.1305C80.6422 80.5563 75.6385 79.1947 70.5284 79.1947C65.4182 79.1947 60.4004 80.5634 56 83.1589L70.5 45.9491L85 83.1305H85.0071Z" fill="white"/>
<path d="M210.637 65.9948C218.283 65.9948 225.3 70.2044 228.957 76.9782L228.985 77.0281H242L241.958 76.8999C239.998 70.7386 236.292 65.3324 231.248 61.2581C230.888 60.9447 230.506 60.667 230.187 60.4319C224.522 56.2223 217.809 54 210.757 54C192.698 54 178 68.8012 178 87C178 90.3192 178.488 93.6029 179.464 96.7725C179.669 97.4421 179.889 98.0617 180.115 98.6601C180.235 99.0233 180.377 99.3795 180.504 99.6786C180.525 99.7356 180.553 99.7926 180.575 99.8424C180.596 99.8994 180.617 99.9564 180.645 100.013C180.822 100.412 181.02 100.868 181.225 101.296C181.699 102.278 182.209 103.219 182.739 104.102C182.98 104.494 183.27 104.964 183.595 105.448C183.878 105.89 184.189 106.324 184.5 106.744C190.767 115.171 200.338 120 210.757 120C224.96 120 237.473 110.876 241.887 97.2925L241.929 97.1643H228.879L228.851 97.2141C225.165 103.867 218.184 108.005 210.63 108.005C199.128 108.005 189.77 98.5817 189.77 87C189.77 75.4183 199.128 65.9948 210.63 65.9948H210.637Z" fill="white"/>
<path d="M143.637 65.9948C151.283 65.9948 158.3 70.2044 161.957 76.9782L161.985 77.0281H175L174.958 76.8999C172.998 70.7386 169.292 65.3324 164.248 61.2581C163.888 60.9447 163.506 60.667 163.187 60.4319C157.522 56.2223 150.809 54 143.757 54C125.698 54 111 68.8012 111 87C111 90.3192 111.488 93.6029 112.464 96.7725C112.669 97.4421 112.889 98.0617 113.115 98.6601C113.235 99.0233 113.377 99.3795 113.504 99.6786C113.525 99.7356 113.553 99.7926 113.575 99.8424C113.596 99.8994 113.617 99.9564 113.653 100.035C113.836 100.455 114.027 100.882 114.225 101.296C114.699 102.278 115.209 103.219 115.739 104.102C115.98 104.494 116.27 104.964 116.595 105.448C116.878 105.89 117.189 106.324 117.5 106.744C123.767 115.171 133.338 120 143.757 120C157.96 120 170.473 110.876 174.887 97.2925L174.929 97.1643H161.879L161.851 97.2141C158.165 103.867 151.184 108.005 143.63 108.005C132.128 108.005 122.77 98.5817 122.77 87C122.77 75.4183 132.128 65.9948 143.63 65.9948H143.637Z" fill="white"/>
<path d="M48 0H7V7H48V0Z" fill="#37B46E"/>
<path d="M7 7H0V48H7V7Z" fill="#37B46E"/>
<path d="M453 149H413V156H453V149Z" fill="#37B46E"/>
<path d="M460 109H453V149H460V109Z" fill="#37B46E"/>
<path d="M514 79.24C513.653 77.16 512.707 75.4133 511.16 74C509.613 72.5867 507.52 71.88 504.88 71.88C502.613 71.88 500.667 72.4533 499.04 73.6C497.413 74.7467 496.187 76.2933 495.36 78.24C494.533 80.1867 494.12 82.3467 494.12 84.72C494.12 87.0933 494.533 89.2533 495.36 91.2C496.187 93.1467 497.4 94.6933 499 95.84C500.627 96.96 502.56 97.52 504.8 97.52C507.68 97.52 509.907 96.7067 511.48 95.08C513.08 93.4267 513.987 91.3867 514.2 88.96H516.52C516.28 91.04 515.653 92.88 514.64 94.48C513.627 96.0533 512.267 97.28 510.56 98.16C508.88 99.04 506.96 99.48 504.8 99.48C502.267 99.48 500.013 98.8667 498.04 97.64C496.093 96.3867 494.573 94.64 493.48 92.4C492.387 90.16 491.84 87.6 491.84 84.72C491.84 81.8667 492.387 79.32 493.48 77.08C494.573 74.84 496.107 73.0933 498.08 71.84C500.053 70.56 502.32 69.92 504.88 69.92C506.96 69.92 508.813 70.32 510.44 71.12C512.067 71.92 513.373 73.0267 514.36 74.44C515.373 75.8267 516.027 77.4267 516.32 79.24H514ZM529.163 99.52C527.19 99.52 525.47 99.08 524.003 98.2C522.563 97.2933 521.456 96.04 520.683 94.44C519.91 92.8133 519.523 90.9467 519.523 88.84C519.523 86.7333 519.91 84.88 520.683 83.28C521.456 81.6533 522.563 80.4 524.003 79.52C525.47 78.6133 527.19 78.16 529.163 78.16C531.136 78.16 532.843 78.6133 534.283 79.52C535.75 80.4 536.87 81.6533 537.643 83.28C538.416 84.88 538.803 86.7333 538.803 88.84C538.803 90.9467 538.416 92.8133 537.643 94.44C536.87 96.04 535.75 97.2933 534.283 98.2C532.843 99.08 531.136 99.52 529.163 99.52ZM529.163 97.8C531.563 97.8 533.416 96.9733 534.723 95.32C536.03 93.64 536.683 91.48 536.683 88.84C536.683 86.2267 536.03 84.0933 534.723 82.44C533.416 80.76 531.563 79.92 529.163 79.92C526.763 79.92 524.91 80.76 523.603 82.44C522.296 84.0933 521.643 86.2267 521.643 88.84C521.643 91.48 522.296 93.64 523.603 95.32C524.91 96.9733 526.763 97.8 529.163 97.8ZM563.477 78.2C565.344 78.2 566.797 78.76 567.837 79.88C568.877 80.9733 569.397 82.56 569.397 84.64V99H567.397V84.96C567.397 83.44 567.091 82.2267 566.477 81.32C565.891 80.4133 564.784 79.96 563.157 79.96C561.904 79.96 560.797 80.2667 559.837 80.88C558.904 81.4667 558.184 82.2267 557.677 83.16C557.171 84.0667 556.917 85.0133 556.917 86V99H554.917V84.96C554.917 83.44 554.611 82.2267 553.997 81.32C553.411 80.4133 552.304 79.96 550.677 79.96C549.424 79.96 548.317 80.2667 547.357 80.88C546.424 81.4667 545.704 82.2267 545.197 83.16C544.691 84.0667 544.437 85.0133 544.437 86V99H542.437V78.6H544.437V81.92H544.517C545.104 80.8533 545.944 79.9733 547.037 79.28C548.131 78.56 549.451 78.2 550.997 78.2C552.411 78.2 553.597 78.5467 554.557 79.24C555.517 79.9067 556.171 80.8933 556.517 82.2H556.597C557.291 81.0267 558.211 80.0667 559.357 79.32C560.531 78.5733 561.904 78.2 563.477 78.2ZM573.518 74.44V71.56H576.398V74.44H573.518ZM575.958 99H573.958V78.6H575.958V99ZM590.038 78.2C591.932 78.2 593.492 78.7467 594.718 79.84C595.945 80.9333 596.558 82.52 596.558 84.6V99H594.558V84.92C594.558 83.48 594.172 82.2933 593.398 81.36C592.625 80.4 591.345 79.92 589.558 79.92C588.252 79.92 587.078 80.2267 586.038 80.84C584.998 81.4267 584.185 82.1867 583.598 83.12C583.012 84.0533 582.718 85 582.718 85.96V99H580.718V78.6H582.718V81.96H582.798C583.492 80.8667 584.425 79.9733 585.598 79.28C586.798 78.56 588.278 78.2 590.038 78.2ZM616.152 78.56H618.152V97.8C618.152 100.6 617.352 102.72 615.752 104.16C614.179 105.6 611.992 106.32 609.192 106.32C606.605 106.32 604.565 105.747 603.072 104.6C601.579 103.48 600.752 102.04 600.592 100.28H602.632C602.872 101.533 603.525 102.56 604.592 103.36C605.685 104.16 607.232 104.56 609.232 104.56C611.445 104.56 613.152 104.027 614.352 102.96C615.552 101.92 616.152 100.32 616.152 98.16V93.84H616.072C615.459 95.12 614.525 96.16 613.272 96.96C612.019 97.7333 610.552 98.12 608.872 98.12C607.245 98.12 605.752 97.7467 604.392 97C603.059 96.2533 601.992 95.1333 601.192 93.64C600.392 92.12 599.992 90.2667 599.992 88.08C599.992 85.92 600.392 84.1067 601.192 82.64C601.992 81.1467 603.059 80.04 604.392 79.32C605.752 78.5733 607.245 78.2 608.872 78.2C610.552 78.2 612.019 78.5867 613.272 79.36C614.525 80.1333 615.459 81.1733 616.072 82.48H616.152V78.56ZM609.192 96.36C610.445 96.36 611.592 96.0533 612.632 95.44C613.699 94.8267 614.552 93.9067 615.192 92.68C615.832 91.4267 616.152 89.8933 616.152 88.08C616.152 86.32 615.832 84.8267 615.192 83.6C614.552 82.3733 613.699 81.4533 612.632 80.84C611.592 80.2267 610.445 79.92 609.192 79.92C607.059 79.92 605.339 80.64 604.032 82.08C602.752 83.52 602.112 85.52 602.112 88.08C602.112 90.6933 602.752 92.7333 604.032 94.2C605.339 95.64 607.059 96.36 609.192 96.36ZM643.116 82.96C645.436 83.44 647.303 83.9867 648.716 84.6C650.156 85.1867 651.276 86.0267 652.076 87.12C652.876 88.1867 653.276 89.6 653.276 91.36C653.276 92.88 652.903 94.2533 652.156 95.48C651.41 96.7067 650.29 97.68 648.796 98.4C647.33 99.12 645.543 99.48 643.436 99.48C640.023 99.48 637.223 98.6267 635.036 96.92C632.876 95.2133 631.703 92.7867 631.516 89.64H633.836C634.05 92.12 634.956 94.0667 636.556 95.48C638.183 96.8667 640.463 97.56 643.396 97.56C645.956 97.56 647.85 96.9867 649.076 95.84C650.33 94.6667 650.956 93.16 650.956 91.32C650.956 89.88 650.623 88.76 649.956 87.96C649.29 87.16 648.33 86.5467 647.076 86.12C645.85 85.6667 644.05 85.1867 641.676 84.68C639.783 84.28 638.183 83.8133 636.876 83.28C635.596 82.72 634.57 81.9467 633.796 80.96C633.05 79.9467 632.676 78.6533 632.676 77.08C632.676 74.84 633.516 73.0933 635.196 71.84C636.903 70.56 639.183 69.92 642.036 69.92C645.05 69.92 647.463 70.6667 649.276 72.16C651.09 73.6267 652.09 75.7067 652.276 78.4H649.956C649.476 74.0533 646.876 71.88 642.156 71.88C639.89 71.88 638.13 72.3333 636.876 73.24C635.623 74.12 634.996 75.3867 634.996 77.04C634.996 78.32 635.316 79.3333 635.956 80.08C636.623 80.8267 637.49 81.4 638.556 81.8C639.65 82.1733 641.17 82.56 643.116 82.96ZM665.765 99.52C663.791 99.52 662.071 99.08 660.605 98.2C659.165 97.2933 658.058 96.04 657.285 94.44C656.511 92.8133 656.125 90.9467 656.125 88.84C656.125 86.7333 656.511 84.88 657.285 83.28C658.058 81.6533 659.165 80.4 660.605 79.52C662.071 78.6133 663.791 78.16 665.765 78.16C667.738 78.16 669.445 78.6133 670.885 79.52C672.351 80.4 673.471 81.6533 674.245 83.28C675.018 84.88 675.405 86.7333 675.405 88.84C675.405 90.9467 675.018 92.8133 674.245 94.44C673.471 96.04 672.351 97.2933 670.885 98.2C669.445 99.08 667.738 99.52 665.765 99.52ZM665.765 97.8C668.165 97.8 670.018 96.9733 671.325 95.32C672.631 93.64 673.285 91.48 673.285 88.84C673.285 86.2267 672.631 84.0933 671.325 82.44C670.018 80.76 668.165 79.92 665.765 79.92C663.365 79.92 661.511 80.76 660.205 82.44C658.898 84.0933 658.245 86.2267 658.245 88.84C658.245 91.48 658.898 93.64 660.205 95.32C661.511 96.9733 663.365 97.8 665.765 97.8ZM687.679 99.52C685.705 99.52 683.985 99.08 682.519 98.2C681.079 97.2933 679.972 96.04 679.199 94.44C678.425 92.8133 678.039 90.9467 678.039 88.84C678.039 86.7333 678.425 84.88 679.199 83.28C679.972 81.6533 681.079 80.4 682.519 79.52C683.985 78.6133 685.705 78.16 687.679 78.16C689.652 78.16 691.359 78.6133 692.799 79.52C694.265 80.4 695.385 81.6533 696.159 83.28C696.932 84.88 697.319 86.7333 697.319 88.84C697.319 90.9467 696.932 92.8133 696.159 94.44C695.385 96.04 694.265 97.2933 692.799 98.2C691.359 99.08 689.652 99.52 687.679 99.52ZM687.679 97.8C690.079 97.8 691.932 96.9733 693.239 95.32C694.545 93.64 695.199 91.48 695.199 88.84C695.199 86.2267 694.545 84.0933 693.239 82.44C691.932 80.76 690.079 79.92 687.679 79.92C685.279 79.92 683.425 80.76 682.119 82.44C680.812 84.0933 680.159 86.2267 680.159 88.84C680.159 91.48 680.812 93.64 682.119 95.32C683.425 96.9733 685.279 97.8 687.679 97.8ZM710.273 78.2C712.166 78.2 713.726 78.7467 714.953 79.84C716.179 80.9333 716.793 82.52 716.793 84.6V99H714.793V84.92C714.793 83.48 714.406 82.2933 713.633 81.36C712.859 80.4 711.579 79.92 709.793 79.92C708.486 79.92 707.313 80.2267 706.273 80.84C705.233 81.4267 704.419 82.1867 703.833 83.12C703.246 84.0533 702.953 85 702.953 85.96V99H700.953V78.6H702.953V81.96H703.033C703.726 80.8667 704.659 79.9733 705.833 79.28C707.033 78.56 708.513 78.2 710.273 78.2Z" fill="white"/>
</svg>
