<svg width="272" height="21" viewBox="0 0 272 21" fill="none" xmlns="http://www.w3.org/2000/svg">
<path d="M18.882 7.594C18.882 6.826 19.044 6.118 19.368 5.47C19.692 4.822 20.172 4.306 20.808 3.922C21.444 3.538 22.212 3.346 23.112 3.346C23.832 3.346 24.474 3.49 25.038 3.778C25.602 4.054 26.046 4.462 26.37 5.002C26.694 5.542 26.856 6.184 26.856 6.928C26.856 7.648 26.694 8.266 26.37 8.782C26.046 9.298 25.65 9.724 25.182 10.06C24.714 10.396 24.078 10.792 23.274 11.248C22.542 11.656 21.954 12.016 21.51 12.328C21.078 12.628 20.688 13.006 20.34 13.462C20.004 13.918 19.794 14.458 19.71 15.082V15.118H26.784V16H18.558C18.558 14.872 18.87 13.882 19.494 13.03C20.118 12.178 21.012 11.428 22.176 10.78L22.5 10.6C23.34 10.144 23.976 9.772 24.408 9.484C24.84 9.184 25.182 8.836 25.434 8.44C25.686 8.032 25.812 7.528 25.812 6.928C25.812 6.172 25.584 5.536 25.128 5.02C24.672 4.492 23.994 4.228 23.094 4.228C22.074 4.228 21.288 4.552 20.736 5.2C20.184 5.836 19.908 6.634 19.908 7.594H18.882ZM33.0006 16.216C31.9806 16.216 31.1226 15.934 30.4266 15.37C29.7426 14.806 29.2326 14.038 28.8966 13.066C28.5726 12.094 28.4106 11.002 28.4106 9.79C28.4106 8.566 28.5726 7.474 28.8966 6.514C29.2326 5.542 29.7426 4.774 30.4266 4.21C31.1226 3.634 31.9806 3.346 33.0006 3.346C34.0206 3.346 34.8726 3.634 35.5566 4.21C36.2406 4.774 36.7446 5.542 37.0686 6.514C37.4046 7.474 37.5726 8.566 37.5726 9.79C37.5726 11.014 37.4046 12.112 37.0686 13.084C36.7446 14.044 36.2406 14.806 35.5566 15.37C34.8726 15.934 34.0206 16.216 33.0006 16.216ZM33.0006 15.334C34.2006 15.334 35.0886 14.818 35.6646 13.786C36.2406 12.754 36.5286 11.422 36.5286 9.79C36.5286 8.146 36.2406 6.808 35.6646 5.776C35.0886 4.744 34.2006 4.228 33.0006 4.228C31.8006 4.228 30.9066 4.75 30.3186 5.794C29.7426 6.826 29.4546 8.158 29.4546 9.79C29.4546 11.422 29.7426 12.754 30.3186 13.786C30.9066 14.818 31.8006 15.334 33.0006 15.334ZM39.2902 7.594C39.2902 6.826 39.4522 6.118 39.7762 5.47C40.1002 4.822 40.5802 4.306 41.2162 3.922C41.8522 3.538 42.6202 3.346 43.5202 3.346C44.2402 3.346 44.8822 3.49 45.4462 3.778C46.0102 4.054 46.4542 4.462 46.7782 5.002C47.1022 5.542 47.2642 6.184 47.2642 6.928C47.2642 7.648 47.1022 8.266 46.7782 8.782C46.4542 9.298 46.0582 9.724 45.5902 10.06C45.1222 10.396 44.4862 10.792 43.6822 11.248C42.9502 11.656 42.3622 12.016 41.9182 12.328C41.4862 12.628 41.0962 13.006 40.7482 13.462C40.4122 13.918 40.2022 14.458 40.1182 15.082V15.118H47.1922V16H38.9662C38.9662 14.872 39.2782 13.882 39.9022 13.03C40.5262 12.178 41.4202 11.428 42.5842 10.78L42.9082 10.6C43.7482 10.144 44.3842 9.772 44.8162 9.484C45.2482 9.184 45.5902 8.836 45.8422 8.44C46.0942 8.032 46.2202 7.528 46.2202 6.928C46.2202 6.172 45.9922 5.536 45.5362 5.02C45.0802 4.492 44.4022 4.228 43.5022 4.228C42.4822 4.228 41.6962 4.552 41.1442 5.2C40.5922 5.836 40.3162 6.634 40.3162 7.594H39.2902ZM53.1534 7.792C53.9334 7.792 54.6174 7.972 55.2054 8.332C55.7934 8.68 56.2434 9.16 56.5554 9.772C56.8794 10.384 57.0414 11.074 57.0414 11.842C57.0414 12.706 56.8614 13.468 56.5014 14.128C56.1534 14.788 55.6614 15.304 55.0254 15.676C54.3894 16.036 53.6574 16.216 52.8294 16.216C51.9414 16.216 51.1854 16.048 50.5614 15.712C49.9374 15.364 49.4634 14.914 49.1394 14.362C48.8274 13.81 48.6594 13.216 48.6354 12.58H49.6614C49.7214 13.408 50.0154 14.074 50.5434 14.578C51.0714 15.082 51.8214 15.334 52.7934 15.334C53.7534 15.334 54.5274 15.04 55.1154 14.452C55.7034 13.852 55.9974 12.982 55.9974 11.842C55.9974 10.774 55.7154 9.982 55.1514 9.466C54.5874 8.938 53.8434 8.674 52.9194 8.674C52.2234 8.674 51.6174 8.818 51.1014 9.106C50.5854 9.382 50.1954 9.718 49.9314 10.114H48.8514L50.1834 3.562H56.4114V4.444H50.9754L50.0394 8.98V9.016C50.3994 8.608 50.8434 8.302 51.3714 8.098C51.9114 7.894 52.5054 7.792 53.1534 7.792ZM72.2898 16L70.8498 12.094H64.9458L63.4878 16H62.4618L67.3218 3.13H68.4558L73.3698 16H72.2898ZM67.8798 4.12L65.2698 11.212H70.5258L67.9158 4.12H67.8798ZM81.0785 9.952C81.0545 9.568 80.9345 9.184 80.7185 8.8C80.5025 8.404 80.1785 8.074 79.7465 7.81C79.3145 7.546 78.7925 7.414 78.1805 7.414C77.4365 7.414 76.8065 7.6 76.2905 7.972C75.7865 8.344 75.4085 8.836 75.1565 9.448C74.9045 10.06 74.7785 10.72 74.7785 11.428C74.7785 12.136 74.9045 12.796 75.1565 13.408C75.4085 14.02 75.7865 14.512 76.2905 14.884C76.8065 15.256 77.4365 15.442 78.1805 15.442C78.8045 15.442 79.3265 15.31 79.7465 15.046C80.1785 14.782 80.5025 14.452 80.7185 14.056C80.9345 13.66 81.0545 13.258 81.0785 12.85H82.0325C81.9845 13.474 81.7925 14.044 81.4565 14.56C81.1325 15.076 80.6825 15.484 80.1065 15.784C79.5425 16.084 78.9005 16.234 78.1805 16.234C77.3285 16.234 76.5725 16.036 75.9125 15.64C75.2525 15.232 74.7365 14.668 74.3645 13.948C74.0045 13.216 73.8245 12.376 73.8245 11.428C73.8245 10.48 74.0045 9.646 74.3645 8.926C74.7365 8.206 75.2525 7.648 75.9125 7.252C76.5725 6.844 77.3285 6.64 78.1805 6.64C78.8885 6.64 79.5245 6.79 80.0885 7.09C80.6525 7.378 81.0965 7.774 81.4205 8.278C81.7565 8.782 81.9605 9.34 82.0325 9.952H81.0785ZM90.43 9.952C90.406 9.568 90.286 9.184 90.07 8.8C89.854 8.404 89.53 8.074 89.098 7.81C88.666 7.546 88.144 7.414 87.532 7.414C86.788 7.414 86.158 7.6 85.642 7.972C85.138 8.344 84.76 8.836 84.508 9.448C84.256 10.06 84.13 10.72 84.13 11.428C84.13 12.136 84.256 12.796 84.508 13.408C84.76 14.02 85.138 14.512 85.642 14.884C86.158 15.256 86.788 15.442 87.532 15.442C88.156 15.442 88.678 15.31 89.098 15.046C89.53 14.782 89.854 14.452 90.07 14.056C90.286 13.66 90.406 13.258 90.43 12.85H91.384C91.336 13.474 91.144 14.044 90.808 14.56C90.484 15.076 90.034 15.484 89.458 15.784C88.894 16.084 88.252 16.234 87.532 16.234C86.68 16.234 85.924 16.036 85.264 15.64C84.604 15.232 84.088 14.668 83.716 13.948C83.356 13.216 83.176 12.376 83.176 11.428C83.176 10.48 83.356 9.646 83.716 8.926C84.088 8.206 84.604 7.648 85.264 7.252C85.924 6.844 86.68 6.64 87.532 6.64C88.24 6.64 88.876 6.79 89.44 7.09C90.004 7.378 90.448 7.774 90.772 8.278C91.108 8.782 91.312 9.34 91.384 9.952H90.43ZM93.4816 11.5V11.536C93.4816 12.256 93.6076 12.916 93.8596 13.516C94.1116 14.104 94.4896 14.578 94.9936 14.938C95.4976 15.286 96.1156 15.46 96.8476 15.46C97.7356 15.46 98.4196 15.226 98.8996 14.758C99.3796 14.29 99.6856 13.774 99.8176 13.21H100.736C100.508 14.098 100.064 14.824 99.4036 15.388C98.7556 15.952 97.8976 16.234 96.8296 16.234C95.9416 16.234 95.1736 16.03 94.5256 15.622C93.8776 15.214 93.3796 14.65 93.0316 13.93C92.6956 13.198 92.5276 12.364 92.5276 11.428C92.5276 10.456 92.7016 9.61 93.0496 8.89C93.4096 8.17 93.9136 7.612 94.5616 7.216C95.2216 6.82 95.9836 6.622 96.8476 6.622C97.6876 6.622 98.4076 6.808 99.0076 7.18C99.6076 7.552 100.064 8.068 100.376 8.728C100.7 9.376 100.862 10.114 100.862 10.942C100.862 11.218 100.856 11.404 100.844 11.5H93.4816ZM96.7936 7.396C96.1576 7.396 95.5936 7.546 95.1016 7.846C94.6096 8.146 94.2256 8.548 93.9496 9.052C93.6736 9.556 93.5176 10.114 93.4816 10.726H99.9076C99.9076 10.114 99.7876 9.556 99.5476 9.052C99.3196 8.548 98.9656 8.146 98.4856 7.846C98.0176 7.546 97.4536 7.396 96.7936 7.396ZM106.771 6.604C107.503 6.604 108.163 6.796 108.751 7.18C109.351 7.564 109.825 8.122 110.173 8.854C110.533 9.574 110.713 10.426 110.713 11.41C110.713 12.382 110.533 13.228 110.173 13.948C109.825 14.668 109.351 15.22 108.751 15.604C108.151 15.988 107.485 16.18 106.753 16.18C105.937 16.18 105.253 15.988 104.701 15.604C104.149 15.22 103.729 14.71 103.441 14.074H103.405V19.186H102.505V6.82H103.405V8.656H103.441C103.729 8.056 104.149 7.564 104.701 7.18C105.265 6.796 105.955 6.604 106.771 6.604ZM106.627 15.406C107.263 15.406 107.815 15.238 108.283 14.902C108.763 14.554 109.129 14.08 109.381 13.48C109.633 12.868 109.759 12.178 109.759 11.41C109.759 10.222 109.477 9.256 108.913 8.512C108.349 7.756 107.587 7.378 106.627 7.378C106.015 7.378 105.463 7.546 104.971 7.882C104.491 8.206 104.107 8.674 103.819 9.286C103.543 9.898 103.405 10.606 103.405 11.41C103.405 12.202 103.543 12.904 103.819 13.516C104.107 14.116 104.491 14.584 104.971 14.92C105.463 15.244 106.015 15.406 106.627 15.406ZM115.612 7.612H113.668V13.696C113.668 14.14 113.704 14.476 113.776 14.704C113.848 14.92 113.974 15.07 114.154 15.154C114.334 15.238 114.598 15.28 114.946 15.28C115.138 15.28 115.36 15.262 115.612 15.226V15.982C115.324 16.03 115.06 16.054 114.82 16.054C114.112 16.054 113.59 15.892 113.254 15.568C112.93 15.232 112.768 14.614 112.768 13.714V7.612H111.418V6.82H112.768V3.76H113.668V6.82H115.612V7.612ZM121.846 16V3.13H122.836V8.782H130.522V3.13H131.512V16H130.522V9.664H122.836V16H121.846ZM134.063 16V3.13H138.941C140.285 3.13 141.317 3.436 142.037 4.048C142.757 4.648 143.117 5.53 143.117 6.694C143.117 7.582 142.895 8.314 142.451 8.89C142.019 9.454 141.425 9.832 140.669 10.024V10.06C141.293 10.192 141.773 10.498 142.109 10.978C142.445 11.446 142.667 11.956 142.775 12.508C142.895 13.06 142.991 13.72 143.063 14.488C143.099 14.944 143.135 15.286 143.171 15.514C143.219 15.73 143.297 15.856 143.405 15.892V16H142.343C142.259 15.928 142.199 15.796 142.163 15.604C142.139 15.412 142.109 15.1 142.073 14.668C142.025 13.876 141.935 13.198 141.803 12.634C141.683 12.07 141.419 11.578 141.011 11.158C140.603 10.726 140.003 10.51 139.211 10.51H135.053V16H134.063ZM135.053 4.012V9.646H138.689C139.781 9.646 140.627 9.4 141.227 8.908C141.827 8.416 142.127 7.684 142.127 6.712C142.127 5.8 141.857 5.122 141.317 4.678C140.777 4.234 139.943 4.012 138.815 4.012H135.053ZM154.437 8.782C155.481 8.998 156.321 9.244 156.957 9.52C157.605 9.784 158.109 10.162 158.469 10.654C158.829 11.134 159.009 11.77 159.009 12.562C159.009 13.246 158.841 13.864 158.505 14.416C158.169 14.968 157.665 15.406 156.993 15.73C156.333 16.054 155.529 16.216 154.581 16.216C153.045 16.216 151.785 15.832 150.801 15.064C149.829 14.296 149.301 13.204 149.217 11.788H150.261C150.357 12.904 150.765 13.78 151.485 14.416C152.217 15.04 153.243 15.352 154.563 15.352C155.715 15.352 156.567 15.094 157.119 14.578C157.683 14.05 157.965 13.372 157.965 12.544C157.965 11.896 157.815 11.392 157.515 11.032C157.215 10.672 156.783 10.396 156.219 10.204C155.667 10 154.857 9.784 153.789 9.556C152.937 9.376 152.217 9.166 151.629 8.926C151.053 8.674 150.591 8.326 150.243 7.882C149.907 7.426 149.739 6.844 149.739 6.136C149.739 5.128 150.117 4.342 150.873 3.778C151.641 3.202 152.667 2.914 153.951 2.914C155.307 2.914 156.393 3.25 157.209 3.922C158.025 4.582 158.475 5.518 158.559 6.73H157.515C157.299 4.774 156.129 3.796 154.005 3.796C152.985 3.796 152.193 4 151.629 4.408C151.065 4.804 150.783 5.374 150.783 6.118C150.783 6.694 150.927 7.15 151.215 7.486C151.515 7.822 151.905 8.08 152.385 8.26C152.877 8.428 153.561 8.602 154.437 8.782ZM161.245 11.5V11.536C161.245 12.256 161.371 12.916 161.623 13.516C161.875 14.104 162.253 14.578 162.757 14.938C163.261 15.286 163.879 15.46 164.611 15.46C165.499 15.46 166.183 15.226 166.663 14.758C167.143 14.29 167.449 13.774 167.581 13.21H168.499C168.271 14.098 167.827 14.824 167.167 15.388C166.519 15.952 165.661 16.234 164.593 16.234C163.705 16.234 162.937 16.03 162.289 15.622C161.641 15.214 161.143 14.65 160.795 13.93C160.459 13.198 160.291 12.364 160.291 11.428C160.291 10.456 160.465 9.61 160.813 8.89C161.173 8.17 161.677 7.612 162.325 7.216C162.985 6.82 163.747 6.622 164.611 6.622C165.451 6.622 166.171 6.808 166.771 7.18C167.371 7.552 167.827 8.068 168.139 8.728C168.463 9.376 168.625 10.114 168.625 10.942C168.625 11.218 168.619 11.404 168.607 11.5H161.245ZM164.557 7.396C163.921 7.396 163.357 7.546 162.865 7.846C162.373 8.146 161.989 8.548 161.713 9.052C161.437 9.556 161.281 10.114 161.245 10.726H167.671C167.671 10.114 167.551 9.556 167.311 9.052C167.083 8.548 166.729 8.146 166.249 7.846C165.781 7.546 165.217 7.396 164.557 7.396ZM173.887 6.64C174.175 6.64 174.421 6.658 174.625 6.694V7.558C174.457 7.522 174.283 7.504 174.103 7.504C173.563 7.504 173.071 7.642 172.627 7.918C172.183 8.182 171.829 8.554 171.565 9.034C171.301 9.514 171.169 10.048 171.169 10.636V16H170.269V6.82H171.169V8.728H171.205C171.433 8.104 171.781 7.6 172.249 7.216C172.717 6.832 173.263 6.64 173.887 6.64ZM178.714 16L175.294 6.82H176.284L179.254 15.064H179.272L182.224 6.82H183.196L179.758 16H178.714ZM184.202 4.948V3.652H185.498V4.948H184.202ZM185.3 16H184.4V6.82H185.3V16ZM194.159 9.952C194.135 9.568 194.015 9.184 193.799 8.8C193.583 8.404 193.259 8.074 192.827 7.81C192.395 7.546 191.873 7.414 191.261 7.414C190.517 7.414 189.887 7.6 189.371 7.972C188.867 8.344 188.489 8.836 188.237 9.448C187.985 10.06 187.859 10.72 187.859 11.428C187.859 12.136 187.985 12.796 188.237 13.408C188.489 14.02 188.867 14.512 189.371 14.884C189.887 15.256 190.517 15.442 191.261 15.442C191.885 15.442 192.407 15.31 192.827 15.046C193.259 14.782 193.583 14.452 193.799 14.056C194.015 13.66 194.135 13.258 194.159 12.85H195.113C195.065 13.474 194.873 14.044 194.537 14.56C194.213 15.076 193.763 15.484 193.187 15.784C192.623 16.084 191.981 16.234 191.261 16.234C190.409 16.234 189.653 16.036 188.993 15.64C188.333 15.232 187.817 14.668 187.445 13.948C187.085 13.216 186.905 12.376 186.905 11.428C186.905 10.48 187.085 9.646 187.445 8.926C187.817 8.206 188.333 7.648 188.993 7.252C189.653 6.844 190.409 6.64 191.261 6.64C191.969 6.64 192.605 6.79 193.169 7.09C193.733 7.378 194.177 7.774 194.501 8.278C194.837 8.782 195.041 9.34 195.113 9.952H194.159ZM197.21 11.5V11.536C197.21 12.256 197.336 12.916 197.588 13.516C197.84 14.104 198.218 14.578 198.722 14.938C199.226 15.286 199.844 15.46 200.576 15.46C201.464 15.46 202.148 15.226 202.628 14.758C203.108 14.29 203.414 13.774 203.546 13.21H204.464C204.236 14.098 203.792 14.824 203.132 15.388C202.484 15.952 201.626 16.234 200.558 16.234C199.67 16.234 198.902 16.03 198.254 15.622C197.606 15.214 197.108 14.65 196.76 13.93C196.424 13.198 196.256 12.364 196.256 11.428C196.256 10.456 196.43 9.61 196.778 8.89C197.138 8.17 197.642 7.612 198.29 7.216C198.95 6.82 199.712 6.622 200.576 6.622C201.416 6.622 202.136 6.808 202.736 7.18C203.336 7.552 203.792 8.068 204.104 8.728C204.428 9.376 204.59 10.114 204.59 10.942C204.59 11.218 204.584 11.404 204.572 11.5H197.21ZM200.522 7.396C199.886 7.396 199.322 7.546 198.83 7.846C198.338 8.146 197.954 8.548 197.678 9.052C197.402 9.556 197.246 10.114 197.21 10.726H203.636C203.636 10.114 203.516 9.556 203.276 9.052C203.048 8.548 202.694 8.146 202.214 7.846C201.746 7.546 201.182 7.396 200.522 7.396ZM210.827 16V3.13H215.615C216.887 3.13 217.889 3.424 218.621 4.012C219.353 4.6 219.719 5.536 219.719 6.82C219.719 8.104 219.353 9.04 218.621 9.628C217.889 10.216 216.887 10.51 215.615 10.51H211.817V16H210.827ZM215.759 9.628C217.703 9.628 218.675 8.692 218.675 6.82C218.675 4.948 217.703 4.012 215.759 4.012H211.817V9.628H215.759ZM224.916 6.64C225.204 6.64 225.45 6.658 225.654 6.694V7.558C225.486 7.522 225.312 7.504 225.132 7.504C224.592 7.504 224.1 7.642 223.656 7.918C223.212 8.182 222.858 8.554 222.594 9.034C222.33 9.514 222.198 10.048 222.198 10.636V16H221.298V6.82H222.198V8.728H222.234C222.462 8.104 222.81 7.6 223.278 7.216C223.746 6.832 224.292 6.64 224.916 6.64ZM230.301 16.234C229.413 16.234 228.639 16.036 227.979 15.64C227.331 15.232 226.833 14.668 226.485 13.948C226.137 13.216 225.963 12.376 225.963 11.428C225.963 10.48 226.137 9.646 226.485 8.926C226.833 8.194 227.331 7.63 227.979 7.234C228.639 6.826 229.413 6.622 230.301 6.622C231.189 6.622 231.957 6.826 232.605 7.234C233.265 7.63 233.769 8.194 234.117 8.926C234.465 9.646 234.639 10.48 234.639 11.428C234.639 12.376 234.465 13.216 234.117 13.948C233.769 14.668 233.265 15.232 232.605 15.64C231.957 16.036 231.189 16.234 230.301 16.234ZM230.301 15.46C231.381 15.46 232.215 15.088 232.803 14.344C233.391 13.588 233.685 12.616 233.685 11.428C233.685 10.252 233.391 9.292 232.803 8.548C232.215 7.792 231.381 7.414 230.301 7.414C229.221 7.414 228.387 7.792 227.799 8.548C227.211 9.292 226.917 10.252 226.917 11.428C226.917 12.616 227.211 13.588 227.799 14.344C228.387 15.088 229.221 15.46 230.301 15.46ZM238.515 16L235.095 6.82H236.085L239.055 15.064H239.073L242.025 6.82H242.997L239.559 16H238.515ZM244.003 4.948V3.652H245.299V4.948H244.003ZM245.101 16H244.201V6.82H245.101V16ZM254.013 3.13H254.913V16H254.013V14.164H253.977C253.689 14.764 253.263 15.256 252.699 15.64C252.147 16.024 251.463 16.216 250.647 16.216C249.915 16.216 249.249 16.024 248.649 15.64C248.061 15.256 247.587 14.704 247.227 13.984C246.879 13.252 246.705 12.394 246.705 11.41C246.705 10.438 246.879 9.592 247.227 8.872C247.587 8.152 248.067 7.6 248.667 7.216C249.267 6.832 249.933 6.64 250.665 6.64C251.481 6.64 252.165 6.832 252.717 7.216C253.269 7.6 253.689 8.11 253.977 8.746H254.013V3.13ZM250.791 15.442C251.403 15.442 251.949 15.28 252.429 14.956C252.921 14.62 253.305 14.146 253.581 13.534C253.869 12.922 254.013 12.214 254.013 11.41C254.013 10.618 253.869 9.922 253.581 9.322C253.305 8.71 252.921 8.242 252.429 7.918C251.949 7.582 251.403 7.414 250.791 7.414C250.155 7.414 249.597 7.588 249.117 7.936C248.649 8.272 248.289 8.746 248.037 9.358C247.785 9.958 247.659 10.642 247.659 11.41C247.659 12.598 247.941 13.57 248.505 14.326C249.069 15.07 249.831 15.442 250.791 15.442ZM257.503 11.5V11.536C257.503 12.256 257.629 12.916 257.881 13.516C258.133 14.104 258.511 14.578 259.015 14.938C259.519 15.286 260.137 15.46 260.869 15.46C261.757 15.46 262.441 15.226 262.921 14.758C263.401 14.29 263.707 13.774 263.839 13.21H264.757C264.529 14.098 264.085 14.824 263.425 15.388C262.777 15.952 261.919 16.234 260.851 16.234C259.963 16.234 259.195 16.03 258.547 15.622C257.899 15.214 257.401 14.65 257.053 13.93C256.717 13.198 256.549 12.364 256.549 11.428C256.549 10.456 256.723 9.61 257.071 8.89C257.431 8.17 257.935 7.612 258.583 7.216C259.243 6.82 260.005 6.622 260.869 6.622C261.709 6.622 262.429 6.808 263.029 7.18C263.629 7.552 264.085 8.068 264.397 8.728C264.721 9.376 264.883 10.114 264.883 10.942C264.883 11.218 264.877 11.404 264.865 11.5H257.503ZM260.815 7.396C260.179 7.396 259.615 7.546 259.123 7.846C258.631 8.146 258.247 8.548 257.971 9.052C257.695 9.556 257.539 10.114 257.503 10.726H263.929C263.929 10.114 263.809 9.556 263.569 9.052C263.341 8.548 262.987 8.146 262.507 7.846C262.039 7.546 261.475 7.396 260.815 7.396ZM270.144 6.64C270.432 6.64 270.678 6.658 270.882 6.694V7.558C270.714 7.522 270.54 7.504 270.36 7.504C269.82 7.504 269.328 7.642 268.884 7.918C268.44 8.182 268.086 8.554 267.822 9.034C267.558 9.514 267.426 10.048 267.426 10.636V16H266.526V6.82H267.426V8.728H267.462C267.69 8.104 268.038 7.6 268.506 7.216C268.974 6.832 269.52 6.64 270.144 6.64Z" fill="black"/>
<path d="M6.5 3C2.91602 3 0 5.91602 0 9.5C0 13.084 2.91602 16 6.5 16C10.084 16 13 13.084 13 9.5C13 5.91602 10.084 3 6.5 3ZM6.5 4C9.54297 4 12 6.45703 12 9.5C12 12.543 9.54297 15 6.5 15C3.45703 15 1 12.543 1 9.5C1 6.45703 3.45703 4 6.5 4ZM6.45312 6.5C4.79102 6.5 3.45312 7.83789 3.45312 9.5C3.45312 11.1621 4.79102 12.5 6.45312 12.5C7.65234 12.5 8.67773 11.7812 9.15625 10.7656L8.25 10.3438C7.92773 11.0293 7.25391 11.5 6.45312 11.5C5.31445 11.5 4.45312 10.6387 4.45312 9.5C4.45312 8.36133 5.31445 7.5 6.45312 7.5C7.25391 7.5 7.92773 7.9707 8.25 8.65625L9.15625 8.23438C8.67773 7.21875 7.65234 6.5 6.45312 6.5Z" fill="black"/>
</svg>
