<svg width="251" height="46" viewBox="0 0 251 46" fill="none" xmlns="http://www.w3.org/2000/svg">
<path d="M128 9H125V9.67004H126.149V13H126.851V9.67004H128V9Z" fill="white"/>
<path d="M132.345 9.09514L132.329 9H131.689L130.5 11.6093L129.322 9.02632L129.309 9H128.681L128.008 12.9474L128 13H128.722L129.172 10.3279L130.334 12.8381L130.367 12.9028H130.639L131.832 10.3219L132.276 12.9615L132.282 13H133L132.345 9.09514Z" fill="white"/>
<path d="M113.976 25.0709C113.968 24.9363 113.957 24.8037 113.942 24.6711C113.931 24.5426 113.914 24.4141 113.897 24.3002C113.897 24.2877 113.897 24.2733 113.892 24.2587C113.886 24.2028 113.875 24.151 113.862 24.093C113.787 23.6351 113.681 23.1958 113.546 22.7877C113.496 22.6406 113.443 22.4893 113.389 22.3443C113.217 21.8988 113.034 21.5051 112.831 21.1384C112.816 21.1135 112.803 21.0887 112.788 21.0659C112.775 21.0431 112.76 21.0224 112.747 20.9996C112.691 20.8939 112.623 20.78 112.547 20.6619C112.463 20.5293 112.375 20.3987 112.287 20.2703C112.175 20.1087 112.046 19.9367 111.904 19.7647C111.839 19.6756 111.773 19.5969 111.71 19.5306C111.59 19.3876 111.493 19.2778 111.396 19.1784C111.305 19.081 111.198 18.9712 111.064 18.8448C110.935 18.7205 110.821 18.6148 110.718 18.5257C110.602 18.4242 110.479 18.3185 110.354 18.2232C110.113 18.0243 109.855 17.8357 109.586 17.6679C109.323 17.4918 109.046 17.3281 108.764 17.1831C108.488 17.036 108.193 16.9013 107.888 16.7791C107.589 16.6547 107.279 16.5449 106.967 16.4579C106.676 16.3688 106.364 16.2901 106.011 16.2176C105.833 16.1803 105.671 16.1533 105.518 16.1326C105.357 16.1098 105.196 16.0912 105.028 16.0725C104.989 16.0684 104.944 16.0642 104.896 16.0622C104.754 16.0518 104.606 16.0394 104.457 16.0332C104.449 16.0332 104.442 16.0332 104.438 16.0332H104.416C104.358 16.0269 104.305 16.0228 104.251 16.0228H104.249C104.025 16.0083 103.807 16 103.579 16C102.333 16 101.165 16.2611 100.106 16.7811L100.086 16.7853C99.9443 16.8474 99.8022 16.9096 99.6645 16.9738L99.5784 17.0153C99.4923 17.0567 99.4019 17.0981 99.318 17.1437C99.2642 17.1706 99.2104 17.1997 99.1566 17.2287C99.0511 17.2805 98.9607 17.3343 98.8789 17.3882C98.5819 17.5519 98.2871 17.7404 97.9793 17.9663L97.9449 17.9932C97.8545 18.0616 97.7663 18.1279 97.6823 18.1942C97.6436 18.2232 97.6092 18.2501 97.5769 18.275V16.0021H94V41H97.7404V33.1598C97.7641 33.1764 97.7899 33.195 97.8136 33.2116C98.1429 33.4644 98.4808 33.6902 98.8144 33.8808C98.9371 33.9554 99.0576 34.0217 99.1845 34.0901L99.234 34.117C99.4945 34.2579 99.7785 34.3905 100.106 34.5231C100.375 34.6329 100.654 34.7324 100.958 34.8256C100.984 34.8339 101.007 34.8422 101.029 34.8463H101.031C101.784 35.0991 102.576 35.2379 103.388 35.2587H103.398C103.446 35.2628 103.493 35.267 103.541 35.267C103.545 35.267 103.549 35.267 103.556 35.267C103.564 35.267 103.568 35.2669 103.581 35.269C103.719 35.2773 103.857 35.2794 104.001 35.2794C104.173 35.2794 104.322 35.2752 104.451 35.2649C104.625 35.2587 104.812 35.2442 105.023 35.2234C105.335 35.1986 105.669 35.1509 106.015 35.0784C106.173 35.0473 106.338 35.0121 106.5 34.9707C106.67 34.9271 106.833 34.8816 106.971 34.8401C107.275 34.751 107.576 34.6454 107.894 34.519C108.043 34.4568 108.189 34.3905 108.336 34.3242C108.495 34.2517 108.643 34.1771 108.77 34.1129L108.818 34.088C108.945 34.0176 109.065 33.9533 109.183 33.8788C109.353 33.7834 109.478 33.7068 109.59 33.6301C109.719 33.5472 109.851 33.4581 109.982 33.3649C110.046 33.3193 110.105 33.2737 110.145 33.2364C110.234 33.1764 110.318 33.1101 110.402 33.0438L110.417 33.0334C110.464 32.9982 110.509 32.9609 110.55 32.9194C110.617 32.8697 110.681 32.8138 110.748 32.7558L110.791 32.7185C110.869 32.648 110.948 32.5755 111.019 32.5051C111.086 32.445 111.138 32.3952 111.176 32.3497C111.241 32.2875 111.303 32.2274 111.361 32.1653C111.48 32.0451 111.598 31.9125 111.714 31.7737C112.115 31.3178 112.478 30.8019 112.795 30.2425C112.943 29.9773 113.081 29.7017 113.212 29.3992C113.292 29.2252 113.346 29.0905 113.393 28.96C113.432 28.8605 113.468 28.7528 113.501 28.6554V28.645C113.55 28.5104 113.585 28.3985 113.615 28.2928C113.634 28.2431 113.647 28.1892 113.658 28.1395C113.684 28.0607 113.705 27.9799 113.725 27.8971C113.763 27.7458 113.802 27.5842 113.828 27.4267C113.849 27.3376 113.867 27.2506 113.877 27.1512C113.929 26.8445 113.966 26.513 113.985 26.167C113.989 26.1152 113.991 26.0613 113.991 26.0075C113.996 25.8894 114 25.7713 114 25.6532C114 25.504 113.996 25.361 113.989 25.2181C113.989 25.1704 113.985 25.1165 113.981 25.0689L113.976 25.0709ZM110.32 25.6552C110.32 25.9888 110.29 26.3286 110.232 26.6622C110.107 27.3708 109.859 28.04 109.496 28.6513C108.583 30.2073 107.014 31.2909 105.191 31.6266C104.793 31.7011 104.391 31.7405 103.997 31.7405C101.731 31.7405 99.6214 30.5574 98.498 28.6513C98.1558 28.0773 97.9148 27.4433 97.7813 26.772C97.7813 26.7554 97.7792 26.7389 97.777 26.7223C97.777 26.7036 97.777 26.685 97.7727 26.6643C97.7361 26.3535 97.7189 26.0178 97.7189 25.6345C97.7189 25.2512 97.7383 24.8928 97.7749 24.582C98.3043 21.675 100.919 19.5658 103.995 19.5658C104.442 19.5658 104.89 19.6135 105.323 19.7046C108.217 20.3013 110.318 22.8022 110.318 25.6532L110.32 25.6552Z" fill="white"/>
<path d="M91.5172 20.5251C89.6857 17.691 86.5005 16 82.9989 16C78.1953 16 74.0739 19.243 73.1808 23.717H73.1528L73.1464 23.7558C73.0861 24.1034 73.0452 24.4858 73.0194 24.9254C73.0065 25.1381 73 25.3262 73 25.502V25.5716C73.0043 25.8885 73.0237 26.2034 73.0581 26.5081C73.1291 27.1869 73.2819 27.8556 73.5122 28.4976C74.8681 32.3868 78.6795 35 82.9989 35C87.0579 35 90.6843 32.7017 92.236 29.1438C92.3242 28.9516 92.4038 28.7451 92.4899 28.4976L92.5115 28.4363H88.5171L88.502 28.4608C87.3829 30.3379 85.2738 31.5055 82.9989 31.5055C80.8597 31.5055 78.884 30.4892 77.7111 28.788C77.6293 28.6755 77.5561 28.5549 77.5023 28.4608C77.1472 27.8719 76.9019 27.2299 76.777 26.551H92.9376L92.9419 26.5101C92.9806 26.1809 93 25.8415 93 25.502C93 24.9152 92.944 24.3263 92.8321 23.7538C92.6083 22.6087 92.1671 21.5209 91.5193 20.523L91.5172 20.5251ZM77.7089 22.2202C78.8797 20.5148 80.8575 19.4966 82.9989 19.4966C84.7056 19.4966 86.3046 20.1325 87.5055 21.2878C88.2136 21.9728 88.7452 22.8111 89.0422 23.719H76.9664C77.1365 23.1976 77.3861 22.6946 77.7089 22.2222V22.2202Z" fill="white"/>
<path d="M119.507 11H116V28.9356C116 32.5328 117.4 34 120.83 34C121.477 34 122.365 33.9555 122.788 33.8545L122.98 33.808V30.7888L122.877 30.8029C122.847 30.807 122.814 30.8029 122.788 30.807C120.931 30.807 119.886 30.2714 119.59 29.1741C119.59 29.166 119.586 29.1599 119.584 29.1498C119.582 29.1377 119.578 29.1256 119.576 29.1114C119.511 28.7578 119.507 27.9635 119.507 27.7291V18.154H123V15.1772H119.507V11Z" fill="white"/>
<path d="M22.9917 9H19.021L8.02757 34.9344L8 34.9979H12.1233L12.9972 32.8222C13.0269 32.7505 13.0566 32.6809 13.0863 32.6153L13.1012 32.5805C14.4544 29.5238 17.5533 27.5468 20.9979 27.5468C22.6459 27.5468 24.2452 27.9976 25.6239 28.8498C26.8944 29.6345 27.9995 30.8739 28.7334 32.3387C28.9094 32.6891 29.0494 33.0005 29.1661 33.2934L29.8597 35H34L23.0044 9.03073L22.9917 9.00204V9ZM25.3355 24.3488C24.031 23.6051 22.5357 23.2118 21.0085 23.2118C19.4813 23.2118 17.9817 23.6072 16.6667 24.357L21 13.6075L25.3333 24.3488H25.3355Z" fill="white"/>
<path d="M62.689 19.4531C64.959 19.4531 67.0421 20.6649 68.1278 22.6149L68.1362 22.6293H72L71.9874 22.5924C71.4057 20.8187 70.3054 19.2624 68.8081 18.0895C68.701 17.9992 68.5876 17.9193 68.4932 17.8516C66.8111 16.6398 64.8183 16 62.7247 16C57.3636 16 53 20.261 53 25.5C53 26.4555 53.1449 27.4008 53.4347 28.3133C53.4956 28.506 53.5607 28.6844 53.6279 28.8567C53.6636 28.9613 53.7056 29.0638 53.7434 29.1499C53.7497 29.1663 53.7581 29.1827 53.7644 29.1971C53.7707 29.2135 53.777 29.2299 53.7854 29.2463C53.8379 29.3611 53.8967 29.4923 53.9576 29.6154C54.0983 29.8983 54.2494 30.169 54.4069 30.4233C54.4783 30.5361 54.5644 30.6714 54.661 30.8108C54.745 30.9379 54.8374 31.063 54.9298 31.184C56.7903 33.6098 59.6315 35 62.7247 35C66.9413 35 70.6561 32.3733 71.9664 28.463L71.979 28.4261H68.1047L68.0963 28.4404C67.0022 30.3556 64.9296 31.5469 62.6869 31.5469C59.2724 31.5469 56.4943 28.8341 56.4943 25.5C56.4943 22.1659 59.2724 19.4531 62.6869 19.4531H62.689Z" fill="white"/>
<path d="M42.689 19.4531C44.959 19.4531 47.0421 20.6649 48.1278 22.6149L48.1362 22.6293H52L51.9874 22.5924C51.4057 20.8187 50.3054 19.2624 48.8081 18.0895C48.701 17.9992 48.5876 17.9193 48.4932 17.8516C46.8111 16.6398 44.8183 16 42.7247 16C37.3636 16 33 20.261 33 25.5C33 26.4555 33.1449 27.4008 33.4347 28.3133C33.4956 28.506 33.5607 28.6844 33.6279 28.8567C33.6636 28.9613 33.7056 29.0638 33.7434 29.1499C33.7497 29.1663 33.7581 29.1827 33.7644 29.1971C33.7707 29.2135 33.777 29.2299 33.7875 29.2524C33.8421 29.3734 33.8988 29.4964 33.9576 29.6154C34.0983 29.8983 34.2494 30.169 34.4069 30.4233C34.4783 30.5361 34.5644 30.6714 34.661 30.8108C34.745 30.9379 34.8374 31.063 34.9298 31.184C36.7903 33.6098 39.6315 35 42.7247 35C46.9413 35 50.6561 32.3733 51.9664 28.463L51.979 28.4261H48.1047L48.0963 28.4404C47.0022 30.3556 44.9296 31.5469 42.6869 31.5469C39.2724 31.5469 36.4943 28.8341 36.4943 25.5C36.4943 22.1659 39.2724 19.4531 42.6869 19.4531H42.689Z" fill="white"/>
<path d="M14 0H2V2H14V0Z" fill="#37B46E"/>
<path d="M2 2H0V14H2V2Z" fill="#37B46E"/>
<path d="M135 44H123V46H135V44Z" fill="#37B46E"/>
<path d="M137 32H135V44H137V32Z" fill="#37B46E"/>
<path d="M157.8 23.108C157.644 22.172 157.218 21.386 156.522 20.75C155.826 20.114 154.884 19.796 153.696 19.796C152.676 19.796 151.8 20.054 151.068 20.57C150.336 21.086 149.784 21.782 149.412 22.658C149.04 23.534 148.854 24.506 148.854 25.574C148.854 26.642 149.04 27.614 149.412 28.49C149.784 29.366 150.33 30.062 151.05 30.578C151.782 31.082 152.652 31.334 153.66 31.334C154.956 31.334 155.958 30.968 156.666 30.236C157.386 29.492 157.794 28.574 157.89 27.482H158.934C158.826 28.418 158.544 29.246 158.088 29.966C157.632 30.674 157.02 31.226 156.252 31.622C155.496 32.018 154.632 32.216 153.66 32.216C152.52 32.216 151.506 31.94 150.618 31.388C149.742 30.824 149.058 30.038 148.566 29.03C148.074 28.022 147.828 26.87 147.828 25.574C147.828 24.29 148.074 23.144 148.566 22.136C149.058 21.128 149.748 20.342 150.636 19.778C151.524 19.202 152.544 18.914 153.696 18.914C154.632 18.914 155.466 19.094 156.198 19.454C156.93 19.814 157.518 20.312 157.962 20.948C158.418 21.572 158.712 22.292 158.844 23.108H157.8ZM164.623 32.234C163.735 32.234 162.961 32.036 162.301 31.64C161.653 31.232 161.155 30.668 160.807 29.948C160.459 29.216 160.285 28.376 160.285 27.428C160.285 26.48 160.459 25.646 160.807 24.926C161.155 24.194 161.653 23.63 162.301 23.234C162.961 22.826 163.735 22.622 164.623 22.622C165.511 22.622 166.279 22.826 166.927 23.234C167.587 23.63 168.091 24.194 168.439 24.926C168.787 25.646 168.961 26.48 168.961 27.428C168.961 28.376 168.787 29.216 168.439 29.948C168.091 30.668 167.587 31.232 166.927 31.64C166.279 32.036 165.511 32.234 164.623 32.234ZM164.623 31.46C165.703 31.46 166.537 31.088 167.125 30.344C167.713 29.588 168.007 28.616 168.007 27.428C168.007 26.252 167.713 25.292 167.125 24.548C166.537 23.792 165.703 23.414 164.623 23.414C163.543 23.414 162.709 23.792 162.121 24.548C161.533 25.292 161.239 26.252 161.239 27.428C161.239 28.616 161.533 29.588 162.121 30.344C162.709 31.088 163.543 31.46 164.623 31.46ZM180.065 22.64C180.905 22.64 181.559 22.892 182.027 23.396C182.495 23.888 182.729 24.602 182.729 25.538V32H181.829V25.682C181.829 24.998 181.691 24.452 181.415 24.044C181.151 23.636 180.653 23.432 179.921 23.432C179.357 23.432 178.859 23.57 178.427 23.846C178.007 24.11 177.683 24.452 177.455 24.872C177.227 25.28 177.113 25.706 177.113 26.15V32H176.213V25.682C176.213 24.998 176.075 24.452 175.799 24.044C175.535 23.636 175.037 23.432 174.305 23.432C173.741 23.432 173.243 23.57 172.811 23.846C172.391 24.11 172.067 24.452 171.839 24.872C171.611 25.28 171.497 25.706 171.497 26.15V32H170.597V22.82H171.497V24.314H171.533C171.797 23.834 172.175 23.438 172.667 23.126C173.159 22.802 173.753 22.64 174.449 22.64C175.085 22.64 175.619 22.796 176.051 23.108C176.483 23.408 176.777 23.852 176.933 24.44H176.969C177.281 23.912 177.695 23.48 178.211 23.144C178.739 22.808 179.357 22.64 180.065 22.64ZM184.583 20.948V19.652H185.879V20.948H184.583ZM185.681 32H184.781V22.82H185.681V32ZM192.017 22.64C192.869 22.64 193.571 22.886 194.123 23.378C194.675 23.87 194.951 24.584 194.951 25.52V32H194.051V25.664C194.051 25.016 193.877 24.482 193.529 24.062C193.181 23.63 192.605 23.414 191.801 23.414C191.213 23.414 190.685 23.552 190.217 23.828C189.749 24.092 189.383 24.434 189.119 24.854C188.855 25.274 188.723 25.7 188.723 26.132V32H187.823V22.82H188.723V24.332H188.759C189.071 23.84 189.491 23.438 190.019 23.126C190.559 22.802 191.225 22.64 192.017 22.64ZM203.768 22.802H204.668V31.46C204.668 32.72 204.308 33.674 203.588 34.322C202.88 34.97 201.896 35.294 200.636 35.294C199.472 35.294 198.554 35.036 197.882 34.52C197.21 34.016 196.838 33.368 196.766 32.576H197.684C197.792 33.14 198.086 33.602 198.566 33.962C199.058 34.322 199.754 34.502 200.654 34.502C201.65 34.502 202.418 34.262 202.958 33.782C203.498 33.314 203.768 32.594 203.768 31.622V29.678H203.732C203.456 30.254 203.036 30.722 202.472 31.082C201.908 31.43 201.248 31.604 200.492 31.604C199.76 31.604 199.088 31.436 198.476 31.1C197.876 30.764 197.396 30.26 197.036 29.588C196.676 28.904 196.496 28.07 196.496 27.086C196.496 26.114 196.676 25.298 197.036 24.638C197.396 23.966 197.876 23.468 198.476 23.144C199.088 22.808 199.76 22.64 200.492 22.64C201.248 22.64 201.908 22.814 202.472 23.162C203.036 23.51 203.456 23.978 203.732 24.566H203.768V22.802ZM200.636 30.812C201.2 30.812 201.716 30.674 202.184 30.398C202.664 30.122 203.048 29.708 203.336 29.156C203.624 28.592 203.768 27.902 203.768 27.086C203.768 26.294 203.624 25.622 203.336 25.07C203.048 24.518 202.664 24.104 202.184 23.828C201.716 23.552 201.2 23.414 200.636 23.414C199.676 23.414 198.902 23.738 198.314 24.386C197.738 25.034 197.45 25.934 197.45 27.086C197.45 28.262 197.738 29.18 198.314 29.84C198.902 30.488 199.676 30.812 200.636 30.812ZM215.902 24.782C216.946 24.998 217.786 25.244 218.422 25.52C219.07 25.784 219.574 26.162 219.934 26.654C220.294 27.134 220.474 27.77 220.474 28.562C220.474 29.246 220.306 29.864 219.97 30.416C219.634 30.968 219.13 31.406 218.458 31.73C217.798 32.054 216.994 32.216 216.046 32.216C214.51 32.216 213.25 31.832 212.266 31.064C211.294 30.296 210.766 29.204 210.682 27.788H211.726C211.822 28.904 212.23 29.78 212.95 30.416C213.682 31.04 214.708 31.352 216.028 31.352C217.18 31.352 218.032 31.094 218.584 30.578C219.148 30.05 219.43 29.372 219.43 28.544C219.43 27.896 219.28 27.392 218.98 27.032C218.68 26.672 218.248 26.396 217.684 26.204C217.132 26 216.322 25.784 215.254 25.556C214.402 25.376 213.682 25.166 213.094 24.926C212.518 24.674 212.056 24.326 211.708 23.882C211.372 23.426 211.204 22.844 211.204 22.136C211.204 21.128 211.582 20.342 212.338 19.778C213.106 19.202 214.132 18.914 215.416 18.914C216.772 18.914 217.858 19.25 218.674 19.922C219.49 20.582 219.94 21.518 220.024 22.73H218.98C218.764 20.774 217.594 19.796 215.47 19.796C214.45 19.796 213.658 20 213.094 20.408C212.53 20.804 212.248 21.374 212.248 22.118C212.248 22.694 212.392 23.15 212.68 23.486C212.98 23.822 213.37 24.08 213.85 24.26C214.342 24.428 215.026 24.602 215.902 24.782ZM226.094 32.234C225.206 32.234 224.432 32.036 223.772 31.64C223.124 31.232 222.626 30.668 222.278 29.948C221.93 29.216 221.756 28.376 221.756 27.428C221.756 26.48 221.93 25.646 222.278 24.926C222.626 24.194 223.124 23.63 223.772 23.234C224.432 22.826 225.206 22.622 226.094 22.622C226.982 22.622 227.75 22.826 228.398 23.234C229.058 23.63 229.562 24.194 229.91 24.926C230.258 25.646 230.432 26.48 230.432 27.428C230.432 28.376 230.258 29.216 229.91 29.948C229.562 30.668 229.058 31.232 228.398 31.64C227.75 32.036 226.982 32.234 226.094 32.234ZM226.094 31.46C227.174 31.46 228.008 31.088 228.596 30.344C229.184 29.588 229.478 28.616 229.478 27.428C229.478 26.252 229.184 25.292 228.596 24.548C228.008 23.792 227.174 23.414 226.094 23.414C225.014 23.414 224.18 23.792 223.592 24.548C223.004 25.292 222.71 26.252 222.71 27.428C222.71 28.616 223.004 29.588 223.592 30.344C224.18 31.088 225.014 31.46 226.094 31.46ZM235.955 32.234C235.067 32.234 234.293 32.036 233.633 31.64C232.985 31.232 232.487 30.668 232.139 29.948C231.791 29.216 231.617 28.376 231.617 27.428C231.617 26.48 231.791 25.646 232.139 24.926C232.487 24.194 232.985 23.63 233.633 23.234C234.293 22.826 235.067 22.622 235.955 22.622C236.843 22.622 237.611 22.826 238.259 23.234C238.919 23.63 239.423 24.194 239.771 24.926C240.119 25.646 240.293 26.48 240.293 27.428C240.293 28.376 240.119 29.216 239.771 29.948C239.423 30.668 238.919 31.232 238.259 31.64C237.611 32.036 236.843 32.234 235.955 32.234ZM235.955 31.46C237.035 31.46 237.869 31.088 238.457 30.344C239.045 29.588 239.339 28.616 239.339 27.428C239.339 26.252 239.045 25.292 238.457 24.548C237.869 23.792 237.035 23.414 235.955 23.414C234.875 23.414 234.041 23.792 233.453 24.548C232.865 25.292 232.571 26.252 232.571 27.428C232.571 28.616 232.865 29.588 233.453 30.344C234.041 31.088 234.875 31.46 235.955 31.46ZM246.123 22.64C246.975 22.64 247.677 22.886 248.229 23.378C248.781 23.87 249.057 24.584 249.057 25.52V32H248.157V25.664C248.157 25.016 247.983 24.482 247.635 24.062C247.287 23.63 246.711 23.414 245.907 23.414C245.319 23.414 244.791 23.552 244.323 23.828C243.855 24.092 243.489 24.434 243.225 24.854C242.961 25.274 242.829 25.7 242.829 26.132V32H241.929V22.82H242.829V24.332H242.865C243.177 23.84 243.597 23.438 244.125 23.126C244.665 22.802 245.331 22.64 246.123 22.64Z" fill="white"/>
</svg>
