<svg width="507" height="95" viewBox="0 0 507 95" fill="none" xmlns="http://www.w3.org/2000/svg">
<path d="M262 18H255V19.5076H257.68V27H259.32V19.5076H262V18Z" fill="white"/>
<path d="M269.691 18.2141L269.658 18H268.377L266 23.871L263.643 18.0592L263.619 18H262.363L261.016 26.8816L261 27H262.444L263.345 20.9879L265.669 26.6356L265.734 26.7814H266.278L268.664 20.9742L269.552 26.9135L269.564 27H271L269.691 18.2141Z" fill="white"/>
<path d="M231.953 51.8676C231.935 51.5874 231.914 51.3116 231.884 51.0358C231.862 50.7686 231.828 50.5014 231.793 50.2644C231.793 50.2385 231.793 50.2084 231.785 50.1782C231.772 50.0618 231.75 49.9541 231.725 49.8334C231.574 48.881 231.363 47.9673 231.092 47.1184C230.993 46.8124 230.885 46.4978 230.778 46.1961C230.433 45.2695 230.067 44.4507 229.663 43.6879C229.633 43.6362 229.607 43.5845 229.577 43.5371C229.551 43.4896 229.521 43.4465 229.495 43.3991C229.383 43.1793 229.245 42.9423 229.095 42.6967C228.927 42.4209 228.75 42.1494 228.574 41.8822C228.35 41.546 228.092 41.1883 227.808 40.8306C227.678 40.6453 227.545 40.4815 227.42 40.3436C227.179 40.0462 226.985 39.8178 226.792 39.611C226.611 39.4084 226.396 39.18 226.129 38.9171C225.871 38.6585 225.643 38.4388 225.436 38.2534C225.203 38.0423 224.958 37.8225 224.708 37.6242C224.226 37.2105 223.71 36.8183 223.172 36.4693C222.647 36.1029 222.091 35.7625 221.528 35.4608C220.977 35.1548 220.387 34.8747 219.776 34.6204C219.177 34.3618 218.558 34.1334 217.934 33.9524C217.352 33.7671 216.728 33.6034 216.022 33.4525C215.665 33.3749 215.342 33.3189 215.037 33.2758C214.714 33.2284 214.391 33.1896 214.055 33.1508C213.978 33.1422 213.887 33.1336 213.793 33.1293C213.509 33.1077 213.212 33.0819 212.915 33.069C212.897 33.069 212.885 33.069 212.876 33.069H212.833C212.717 33.056 212.609 33.0474 212.501 33.0474H212.497C212.05 33.0172 211.615 33 211.158 33C208.666 33 206.329 33.543 204.211 34.6247L204.173 34.6334C203.889 34.7626 203.604 34.8919 203.329 35.0255L203.157 35.1117C202.985 35.1979 202.804 35.2841 202.636 35.3789C202.528 35.4349 202.421 35.4953 202.313 35.5556C202.102 35.6634 201.921 35.7754 201.758 35.8875C201.164 36.2279 200.574 36.6201 199.959 37.0898L199.89 37.1459C199.709 37.2881 199.533 37.426 199.365 37.5639C199.287 37.6242 199.218 37.6803 199.154 37.732V33.0043H192V85H199.481V68.6924C199.528 68.7268 199.58 68.7656 199.627 68.8001C200.286 69.3259 200.962 69.7956 201.629 70.1921C201.874 70.3473 202.115 70.4852 202.369 70.6274L202.468 70.6834C202.989 70.9765 203.557 71.2523 204.211 71.5281C204.749 71.7565 205.309 71.9634 205.916 72.1573C205.967 72.1745 206.015 72.1918 206.058 72.2004H206.062C207.569 72.7262 209.153 73.0149 210.775 73.058H210.797C210.892 73.0666 210.986 73.0753 211.081 73.0753C211.09 73.0753 211.098 73.0753 211.111 73.0753C211.128 73.0753 211.137 73.0753 211.163 73.0796C211.438 73.0968 211.714 73.1011 212.002 73.1011C212.346 73.1011 212.644 73.0925 212.902 73.0709C213.25 73.058 213.625 73.0278 214.047 72.9847C214.671 72.933 215.338 72.8339 216.031 72.6831C216.345 72.6184 216.677 72.5452 216.999 72.459C217.339 72.3685 217.667 72.2737 217.942 72.1875C218.549 72.0022 219.152 71.7824 219.789 71.5195C220.086 71.3902 220.378 71.2523 220.671 71.1144C220.99 70.9635 221.287 70.8084 221.54 70.6748L221.635 70.6231C221.889 70.4766 222.13 70.3429 222.367 70.1878C222.707 69.9896 222.957 69.8301 223.18 69.6706C223.439 69.4983 223.701 69.3129 223.964 69.119C224.093 69.0242 224.209 68.9294 224.291 68.8518C224.467 68.7268 224.635 68.5889 224.803 68.451L224.833 68.4295C224.928 68.3562 225.018 68.2786 225.1 68.1924C225.234 68.089 225.363 67.9727 225.496 67.852L225.582 67.7744C225.737 67.6279 225.896 67.477 226.039 67.3305C226.172 67.2055 226.275 67.1021 226.353 67.0073C226.482 66.878 226.607 66.753 226.723 66.6237C226.96 66.3738 227.196 66.098 227.429 65.8092C228.229 64.8611 228.957 63.788 229.59 62.6244C229.887 62.0728 230.162 61.4996 230.425 60.8704C230.584 60.5084 230.691 60.2283 230.786 59.9567C230.864 59.7499 230.937 59.5258 231.001 59.3232V59.3017C231.1 59.0215 231.169 58.7888 231.23 58.569C231.268 58.4656 231.294 58.3536 231.316 58.2501C231.367 58.0864 231.41 57.9183 231.449 57.7459C231.527 57.4313 231.604 57.0952 231.656 56.7676C231.699 56.5823 231.733 56.4013 231.755 56.1944C231.858 55.5566 231.931 54.8671 231.97 54.1474C231.978 54.0396 231.983 53.9276 231.983 53.8155C231.991 53.5699 232 53.3242 232 53.0786C232 52.7683 231.991 52.4709 231.978 52.1736C231.978 52.0744 231.97 51.9624 231.961 51.8633L231.953 51.8676ZM224.64 53.0829C224.64 53.7767 224.579 54.4835 224.463 55.1774C224.213 56.6513 223.719 58.0433 222.991 59.3146C221.166 62.5511 218.028 64.8051 214.382 65.5032C213.586 65.6584 212.781 65.7403 211.994 65.7403C207.461 65.7403 203.243 63.2795 200.996 59.3146C200.312 58.1208 199.83 56.8021 199.563 55.4058C199.563 55.3713 199.558 55.3368 199.554 55.3023C199.554 55.2635 199.554 55.2248 199.545 55.1817C199.472 54.5352 199.438 53.8371 199.438 53.0398C199.438 52.2425 199.477 51.4969 199.55 50.8505C200.609 44.8041 205.838 40.4169 211.989 40.4169C212.885 40.4169 213.78 40.516 214.645 40.7056C220.434 41.9468 224.635 47.1485 224.635 53.0786L224.64 53.0829Z" fill="white"/>
<path d="M186.034 42.5265C182.371 36.56 176.001 33 168.998 33C159.391 33 151.148 39.8274 149.362 49.2462H149.306L149.293 49.328C149.172 50.0598 149.09 50.8648 149.039 51.7904C149.013 52.2381 149 52.6341 149 53.0043V53.1507C149.009 53.8179 149.047 54.4808 149.116 55.1223C149.258 56.5514 149.564 57.9591 150.024 59.3108C152.736 67.4985 160.359 73 168.998 73C177.116 73 184.369 68.1614 187.472 60.6711C187.648 60.2665 187.808 59.8317 187.98 59.3108L188.023 59.1817H180.034L180.004 59.2333C177.766 63.1851 173.548 65.6431 168.998 65.6431C164.719 65.6431 160.768 63.5037 158.422 59.9221C158.259 59.6853 158.112 59.4313 158.005 59.2333C157.294 57.9935 156.804 56.6418 156.554 55.2127H188.875L188.884 55.1266C188.961 54.4335 189 53.7189 189 53.0043C189 51.7688 188.888 50.5291 188.664 49.3237C188.217 46.913 187.334 44.6229 186.039 42.5222L186.034 42.5265ZM158.418 46.0951C160.759 42.5049 164.715 40.3612 168.998 40.3612C172.411 40.3612 175.609 41.7 178.011 44.1322C179.427 45.5743 180.49 47.3392 181.084 49.2505H156.933C157.273 48.1528 157.772 47.0938 158.418 46.0994V46.0951Z" fill="white"/>
<path d="M243.515 23H236V61.2106C236 68.8743 238.999 72 246.35 72C247.737 72 249.639 71.9053 250.546 71.69L250.957 71.591V65.1587L250.736 65.1888C250.672 65.1974 250.602 65.1888 250.546 65.1974C246.566 65.1974 244.328 64.0565 243.692 61.7187C243.692 61.7014 243.684 61.6885 243.679 61.667C243.675 61.6412 243.666 61.6153 243.662 61.5852C243.524 60.8317 243.515 59.1397 243.515 58.6403V38.2412H251V31.8993H243.515V23Z" fill="white"/>
<path d="M46.56 18H38.466L16.0562 72.8613L16 72.9957H24.4053L26.1867 68.3932C26.2472 68.2415 26.3077 68.0942 26.3682 67.9555L26.3985 67.8818C29.157 61.4158 35.474 57.2337 42.4957 57.2337C45.8552 57.2337 49.1153 58.1871 51.9257 59.99C54.5156 61.6498 56.7682 64.2718 58.2642 67.3704C58.6231 68.1115 58.9085 68.7702 59.1463 69.39L60.5601 73H69L46.5859 18.065L46.56 18.0043V18ZM51.3377 50.4687C48.6786 48.8955 45.6304 48.0634 42.5173 48.0634C39.4042 48.0634 36.3474 48.8998 33.6667 50.486L42.5 27.7467L51.3333 50.4687H51.3377Z" fill="white"/>
<path d="M127.888 40.2696C132.547 40.2696 136.823 42.8209 139.052 46.9262L139.069 46.9564H147L146.974 46.8787C145.78 43.1446 143.522 39.8681 140.448 37.3989C140.228 37.2089 139.996 37.0406 139.802 36.8981C136.349 34.3469 132.259 33 127.961 33C116.957 33 108 41.9704 108 53C108 55.0117 108.297 57.0017 108.892 58.9227C109.017 59.3285 109.151 59.7041 109.289 60.0667C109.362 60.2869 109.448 60.5027 109.526 60.684C109.539 60.7185 109.556 60.7531 109.569 60.7833C109.582 60.8178 109.595 60.8524 109.612 60.8869C109.72 61.1286 109.841 61.4049 109.966 61.6639C110.254 62.2597 110.565 62.8295 110.888 63.3648C111.034 63.6022 111.211 63.8871 111.409 64.1807C111.582 64.4483 111.772 64.7116 111.961 64.9663C115.78 70.0732 121.612 73 127.961 73C136.616 73 144.241 67.4701 146.931 59.2379L146.957 59.1602H139.004L138.987 59.1904C136.741 63.2223 132.487 65.7304 127.884 65.7304C120.875 65.7304 115.172 60.0192 115.172 53C115.172 45.9808 120.875 40.2696 127.884 40.2696H127.888Z" fill="white"/>
<path d="M86.8879 40.2696C91.5474 40.2696 95.8233 42.8209 98.0517 46.9262L98.069 46.9564H106L105.974 46.8787C104.78 43.1446 102.522 39.8681 99.4483 37.3989C99.2285 37.2089 98.9957 37.0406 98.8017 36.8981C95.3491 34.3469 91.2586 33 86.9612 33C75.9569 33 67 41.9704 67 53C67 55.0117 67.2974 57.0017 67.8922 58.9227C68.0172 59.3285 68.1509 59.7041 68.2888 60.0667C68.3621 60.2869 68.4483 60.5027 68.5259 60.684C68.5388 60.7185 68.556 60.7531 68.569 60.7833C68.5819 60.8178 68.5948 60.8524 68.6164 60.8998C68.7284 61.1545 68.8448 61.4136 68.9655 61.6639C69.2543 62.2597 69.5647 62.8295 69.8879 63.3648C70.0345 63.6022 70.2112 63.8871 70.4095 64.1807C70.5819 64.4483 70.7716 64.7116 70.9612 64.9663C74.7802 70.0732 80.6121 73 86.9612 73C95.6164 73 103.241 67.4701 105.931 59.2379L105.957 59.1602H98.0043L97.9871 59.1904C95.7414 63.2223 91.4871 65.7304 86.8836 65.7304C79.875 65.7304 74.1724 60.0192 74.1724 53C74.1724 45.9808 79.875 40.2696 86.8836 40.2696H86.8879Z" fill="white"/>
<path d="M29 0H4V4H29V0Z" fill="#37B46E"/>
<path d="M4 4H0V29H4V4Z" fill="#37B46E"/>
<path d="M275 91H251V95H275V91Z" fill="#37B46E"/>
<path d="M280 66H276V90H280V66Z" fill="#37B46E"/>
<path d="M321.6 44.216C321.288 42.344 320.436 40.772 319.044 39.5C317.652 38.228 315.768 37.592 313.392 37.592C311.352 37.592 309.6 38.108 308.136 39.14C306.672 40.172 305.568 41.564 304.824 43.316C304.08 45.068 303.708 47.012 303.708 49.148C303.708 51.284 304.08 53.228 304.824 54.98C305.568 56.732 306.66 58.124 308.1 59.156C309.564 60.164 311.304 60.668 313.32 60.668C315.912 60.668 317.916 59.936 319.332 58.472C320.772 56.984 321.588 55.148 321.78 52.964H323.868C323.652 54.836 323.088 56.492 322.176 57.932C321.264 59.348 320.04 60.452 318.504 61.244C316.992 62.036 315.264 62.432 313.32 62.432C311.04 62.432 309.012 61.88 307.236 60.776C305.484 59.648 304.116 58.076 303.132 56.06C302.148 54.044 301.656 51.74 301.656 49.148C301.656 46.58 302.148 44.288 303.132 42.272C304.116 40.256 305.496 38.684 307.272 37.556C309.048 36.404 311.088 35.828 313.392 35.828C315.264 35.828 316.932 36.188 318.396 36.908C319.86 37.628 321.036 38.624 321.924 39.896C322.836 41.144 323.424 42.584 323.688 44.216H321.6ZM335.247 62.468C333.471 62.468 331.923 62.072 330.603 61.28C329.307 60.464 328.311 59.336 327.615 57.896C326.919 56.432 326.571 54.752 326.571 52.856C326.571 50.96 326.919 49.292 327.615 47.852C328.311 46.388 329.307 45.26 330.603 44.468C331.923 43.652 333.471 43.244 335.247 43.244C337.023 43.244 338.559 43.652 339.855 44.468C341.175 45.26 342.183 46.388 342.879 47.852C343.575 49.292 343.923 50.96 343.923 52.856C343.923 54.752 343.575 56.432 342.879 57.896C342.183 59.336 341.175 60.464 339.855 61.28C338.559 62.072 337.023 62.468 335.247 62.468ZM335.247 60.92C337.407 60.92 339.075 60.176 340.251 58.688C341.427 57.176 342.015 55.232 342.015 52.856C342.015 50.504 341.427 48.584 340.251 47.096C339.075 45.584 337.407 44.828 335.247 44.828C333.087 44.828 331.419 45.584 330.243 47.096C329.067 48.584 328.479 50.504 328.479 52.856C328.479 55.232 329.067 57.176 330.243 58.688C331.419 60.176 333.087 60.92 335.247 60.92ZM366.129 43.28C367.809 43.28 369.117 43.784 370.053 44.792C370.989 45.776 371.457 47.204 371.457 49.076V62H369.657V49.364C369.657 47.996 369.381 46.904 368.829 46.088C368.301 45.272 367.305 44.864 365.841 44.864C364.713 44.864 363.717 45.14 362.853 45.692C362.013 46.22 361.365 46.904 360.909 47.744C360.453 48.56 360.225 49.412 360.225 50.3V62H358.425V49.364C358.425 47.996 358.149 46.904 357.597 46.088C357.069 45.272 356.073 44.864 354.609 44.864C353.481 44.864 352.485 45.14 351.621 45.692C350.781 46.22 350.133 46.904 349.677 47.744C349.221 48.56 348.993 49.412 348.993 50.3V62H347.193V43.64H348.993V46.628H349.065C349.593 45.668 350.349 44.876 351.333 44.252C352.317 43.604 353.505 43.28 354.897 43.28C356.169 43.28 357.237 43.592 358.101 44.216C358.965 44.816 359.553 45.704 359.865 46.88H359.937C360.561 45.824 361.389 44.96 362.421 44.288C363.477 43.616 364.713 43.28 366.129 43.28ZM375.166 39.896V37.304H377.758V39.896H375.166ZM377.362 62H375.562V43.64H377.362V62ZM390.035 43.28C391.739 43.28 393.143 43.772 394.247 44.756C395.351 45.74 395.903 47.168 395.903 49.04V62H394.103V49.328C394.103 48.032 393.755 46.964 393.059 46.124C392.363 45.26 391.211 44.828 389.603 44.828C388.427 44.828 387.371 45.104 386.435 45.656C385.499 46.184 384.767 46.868 384.239 47.708C383.711 48.548 383.447 49.4 383.447 50.264V62H381.647V43.64H383.447V46.664H383.519C384.143 45.68 384.983 44.876 386.039 44.252C387.119 43.604 388.451 43.28 390.035 43.28ZM413.537 43.604H415.337V60.92C415.337 63.44 414.617 65.348 413.177 66.644C411.761 67.94 409.793 68.588 407.273 68.588C404.945 68.588 403.109 68.072 401.765 67.04C400.421 66.032 399.677 64.736 399.533 63.152H401.369C401.585 64.28 402.173 65.204 403.133 65.924C404.117 66.644 405.509 67.004 407.309 67.004C409.301 67.004 410.837 66.524 411.917 65.564C412.997 64.628 413.537 63.188 413.537 61.244V57.356H413.465C412.913 58.508 412.073 59.444 410.945 60.164C409.817 60.86 408.497 61.208 406.985 61.208C405.521 61.208 404.177 60.872 402.953 60.2C401.753 59.528 400.793 58.52 400.073 57.176C399.353 55.808 398.993 54.14 398.993 52.172C398.993 50.228 399.353 48.596 400.073 47.276C400.793 45.932 401.753 44.936 402.953 44.288C404.177 43.616 405.521 43.28 406.985 43.28C408.497 43.28 409.817 43.628 410.945 44.324C412.073 45.02 412.913 45.956 413.465 47.132H413.537V43.604ZM407.273 59.624C408.401 59.624 409.433 59.348 410.369 58.796C411.329 58.244 412.097 57.416 412.673 56.312C413.249 55.184 413.537 53.804 413.537 52.172C413.537 50.588 413.249 49.244 412.673 48.14C412.097 47.036 411.329 46.208 410.369 45.656C409.433 45.104 408.401 44.828 407.273 44.828C405.353 44.828 403.805 45.476 402.629 46.772C401.477 48.068 400.901 49.868 400.901 52.172C400.901 54.524 401.477 56.36 402.629 57.68C403.805 58.976 405.353 59.624 407.273 59.624ZM437.805 47.564C439.893 47.996 441.573 48.488 442.845 49.04C444.141 49.568 445.149 50.324 445.869 51.308C446.589 52.268 446.949 53.54 446.949 55.124C446.949 56.492 446.613 57.728 445.941 58.832C445.269 59.936 444.261 60.812 442.917 61.46C441.597 62.108 439.989 62.432 438.093 62.432C435.021 62.432 432.501 61.664 430.533 60.128C428.589 58.592 427.533 56.408 427.365 53.576H429.453C429.645 55.808 430.461 57.56 431.901 58.832C433.365 60.08 435.417 60.704 438.057 60.704C440.361 60.704 442.065 60.188 443.169 59.156C444.297 58.1 444.861 56.744 444.861 55.088C444.861 53.792 444.561 52.784 443.961 52.064C443.361 51.344 442.497 50.792 441.369 50.408C440.265 50 438.645 49.568 436.509 49.112C434.805 48.752 433.365 48.332 432.189 47.852C431.037 47.348 430.113 46.652 429.417 45.764C428.745 44.852 428.409 43.688 428.409 42.272C428.409 40.256 429.165 38.684 430.677 37.556C432.213 36.404 434.265 35.828 436.833 35.828C439.545 35.828 441.717 36.5 443.349 37.844C444.981 39.164 445.881 41.036 446.049 43.46H443.961C443.529 39.548 441.189 37.592 436.941 37.592C434.901 37.592 433.317 38 432.189 38.816C431.061 39.608 430.497 40.748 430.497 42.236C430.497 43.388 430.785 44.3 431.361 44.972C431.961 45.644 432.741 46.16 433.701 46.52C434.685 46.856 436.053 47.204 437.805 47.564ZM458.188 62.468C456.412 62.468 454.864 62.072 453.544 61.28C452.248 60.464 451.252 59.336 450.556 57.896C449.86 56.432 449.512 54.752 449.512 52.856C449.512 50.96 449.86 49.292 450.556 47.852C451.252 46.388 452.248 45.26 453.544 44.468C454.864 43.652 456.412 43.244 458.188 43.244C459.964 43.244 461.5 43.652 462.796 44.468C464.116 45.26 465.124 46.388 465.82 47.852C466.516 49.292 466.864 50.96 466.864 52.856C466.864 54.752 466.516 56.432 465.82 57.896C465.124 59.336 464.116 60.464 462.796 61.28C461.5 62.072 459.964 62.468 458.188 62.468ZM458.188 60.92C460.348 60.92 462.016 60.176 463.192 58.688C464.368 57.176 464.956 55.232 464.956 52.856C464.956 50.504 464.368 48.584 463.192 47.096C462.016 45.584 460.348 44.828 458.188 44.828C456.028 44.828 454.36 45.584 453.184 47.096C452.008 48.584 451.42 50.504 451.42 52.856C451.42 55.232 452.008 57.176 453.184 58.688C454.36 60.176 456.028 60.92 458.188 60.92ZM477.911 62.468C476.135 62.468 474.587 62.072 473.267 61.28C471.971 60.464 470.975 59.336 470.279 57.896C469.583 56.432 469.235 54.752 469.235 52.856C469.235 50.96 469.583 49.292 470.279 47.852C470.975 46.388 471.971 45.26 473.267 44.468C474.587 43.652 476.135 43.244 477.911 43.244C479.687 43.244 481.223 43.652 482.519 44.468C483.839 45.26 484.847 46.388 485.543 47.852C486.239 49.292 486.587 50.96 486.587 52.856C486.587 54.752 486.239 56.432 485.543 57.896C484.847 59.336 483.839 60.464 482.519 61.28C481.223 62.072 479.687 62.468 477.911 62.468ZM477.911 60.92C480.071 60.92 481.739 60.176 482.915 58.688C484.091 57.176 484.679 55.232 484.679 52.856C484.679 50.504 484.091 48.584 482.915 47.096C481.739 45.584 480.071 44.828 477.911 44.828C475.751 44.828 474.083 45.584 472.907 47.096C471.731 48.584 471.143 50.504 471.143 52.856C471.143 55.232 471.731 57.176 472.907 58.688C474.083 60.176 475.751 60.92 477.911 60.92ZM498.246 43.28C499.95 43.28 501.354 43.772 502.458 44.756C503.562 45.74 504.114 47.168 504.114 49.04V62H502.314V49.328C502.314 48.032 501.966 46.964 501.27 46.124C500.574 45.26 499.422 44.828 497.814 44.828C496.638 44.828 495.582 45.104 494.646 45.656C493.71 46.184 492.978 46.868 492.45 47.708C491.922 48.548 491.658 49.4 491.658 50.264V62H489.858V43.64H491.658V46.664H491.73C492.354 45.68 493.194 44.876 494.25 44.252C495.33 43.604 496.662 43.28 498.246 43.28Z" fill="white"/>
</svg>
