<svg width="517" height="95" viewBox="0 0 517 95" fill="none" xmlns="http://www.w3.org/2000/svg">
<path d="M262 18H255V19.5076H257.68V27H259.32V19.5076H262V18Z" fill="white"/>
<path d="M269.691 18.2141L269.658 18H268.377L266 23.871L263.643 18.0592L263.619 18H262.363L261.016 26.8816L261 27H262.444L263.345 20.9879L265.669 26.6356L265.734 26.7814H266.278L268.664 20.9742L269.552 26.9135L269.564 27H271L269.691 18.2141Z" fill="white"/>
<path d="M231.953 51.8676C231.935 51.5874 231.914 51.3116 231.884 51.0358C231.862 50.7686 231.828 50.5014 231.793 50.2644C231.793 50.2385 231.793 50.2084 231.785 50.1782C231.772 50.0618 231.75 49.9541 231.725 49.8334C231.574 48.881 231.363 47.9673 231.092 47.1184C230.993 46.8124 230.885 46.4978 230.778 46.1961C230.433 45.2695 230.067 44.4507 229.663 43.6879C229.633 43.6362 229.607 43.5845 229.577 43.5371C229.551 43.4896 229.521 43.4465 229.495 43.3991C229.383 43.1793 229.245 42.9423 229.095 42.6967C228.927 42.4209 228.75 42.1494 228.574 41.8822C228.35 41.546 228.092 41.1883 227.808 40.8306C227.678 40.6453 227.545 40.4815 227.42 40.3436C227.179 40.0462 226.985 39.8178 226.792 39.611C226.611 39.4084 226.396 39.18 226.129 38.9171C225.871 38.6585 225.643 38.4388 225.436 38.2534C225.203 38.0423 224.958 37.8225 224.708 37.6242C224.226 37.2105 223.71 36.8183 223.172 36.4693C222.647 36.1029 222.091 35.7625 221.528 35.4608C220.977 35.1548 220.387 34.8747 219.776 34.6204C219.177 34.3618 218.558 34.1334 217.934 33.9524C217.352 33.7671 216.728 33.6034 216.022 33.4525C215.665 33.3749 215.342 33.3189 215.037 33.2758C214.714 33.2284 214.391 33.1896 214.055 33.1508C213.978 33.1422 213.887 33.1336 213.793 33.1293C213.509 33.1077 213.212 33.0819 212.915 33.069C212.897 33.069 212.885 33.069 212.876 33.069H212.833C212.717 33.056 212.609 33.0474 212.501 33.0474H212.497C212.05 33.0172 211.615 33 211.158 33C208.666 33 206.329 33.543 204.211 34.6247L204.173 34.6334C203.889 34.7626 203.604 34.8919 203.329 35.0255L203.157 35.1117C202.985 35.1979 202.804 35.2841 202.636 35.3789C202.528 35.4349 202.421 35.4953 202.313 35.5556C202.102 35.6634 201.921 35.7754 201.758 35.8875C201.164 36.2279 200.574 36.6201 199.959 37.0898L199.89 37.1459C199.709 37.2881 199.533 37.426 199.365 37.5639C199.287 37.6242 199.218 37.6803 199.154 37.732V33.0043H192V85H199.481V68.6924C199.528 68.7268 199.58 68.7656 199.627 68.8001C200.286 69.3259 200.962 69.7956 201.629 70.1921C201.874 70.3473 202.115 70.4852 202.369 70.6274L202.468 70.6834C202.989 70.9765 203.557 71.2523 204.211 71.5281C204.749 71.7565 205.309 71.9634 205.916 72.1573C205.967 72.1745 206.015 72.1918 206.058 72.2004H206.062C207.569 72.7262 209.153 73.0149 210.775 73.058H210.797C210.892 73.0666 210.986 73.0753 211.081 73.0753C211.09 73.0753 211.098 73.0753 211.111 73.0753C211.128 73.0753 211.137 73.0753 211.163 73.0796C211.438 73.0968 211.714 73.1011 212.002 73.1011C212.346 73.1011 212.644 73.0925 212.902 73.0709C213.25 73.058 213.625 73.0278 214.047 72.9847C214.671 72.933 215.338 72.8339 216.031 72.6831C216.345 72.6184 216.677 72.5452 216.999 72.459C217.339 72.3685 217.667 72.2737 217.942 72.1875C218.549 72.0022 219.152 71.7824 219.789 71.5195C220.086 71.3902 220.378 71.2523 220.671 71.1144C220.99 70.9635 221.287 70.8084 221.54 70.6748L221.635 70.6231C221.889 70.4766 222.13 70.3429 222.367 70.1878C222.707 69.9896 222.957 69.8301 223.18 69.6706C223.439 69.4983 223.701 69.3129 223.964 69.119C224.093 69.0242 224.209 68.9294 224.291 68.8518C224.467 68.7268 224.635 68.5889 224.803 68.451L224.833 68.4295C224.928 68.3562 225.018 68.2786 225.1 68.1924C225.234 68.089 225.363 67.9727 225.496 67.852L225.582 67.7744C225.737 67.6279 225.896 67.477 226.039 67.3305C226.172 67.2055 226.275 67.1021 226.353 67.0073C226.482 66.878 226.607 66.753 226.723 66.6237C226.96 66.3738 227.196 66.098 227.429 65.8092C228.229 64.8611 228.957 63.788 229.59 62.6244C229.887 62.0728 230.162 61.4996 230.425 60.8704C230.584 60.5084 230.691 60.2283 230.786 59.9567C230.864 59.7499 230.937 59.5258 231.001 59.3232V59.3017C231.1 59.0215 231.169 58.7888 231.23 58.569C231.268 58.4656 231.294 58.3536 231.316 58.2501C231.367 58.0864 231.41 57.9183 231.449 57.7459C231.527 57.4313 231.604 57.0952 231.656 56.7676C231.699 56.5823 231.733 56.4013 231.755 56.1944C231.858 55.5566 231.931 54.8671 231.97 54.1474C231.978 54.0396 231.983 53.9276 231.983 53.8155C231.991 53.5699 232 53.3242 232 53.0786C232 52.7683 231.991 52.4709 231.978 52.1736C231.978 52.0744 231.97 51.9624 231.961 51.8633L231.953 51.8676ZM224.64 53.0829C224.64 53.7767 224.579 54.4835 224.463 55.1774C224.213 56.6513 223.719 58.0433 222.991 59.3146C221.166 62.5511 218.028 64.8051 214.382 65.5032C213.586 65.6584 212.781 65.7403 211.994 65.7403C207.461 65.7403 203.243 63.2795 200.996 59.3146C200.312 58.1208 199.83 56.8021 199.563 55.4058C199.563 55.3713 199.558 55.3368 199.554 55.3023C199.554 55.2635 199.554 55.2248 199.545 55.1817C199.472 54.5352 199.438 53.8371 199.438 53.0398C199.438 52.2425 199.477 51.4969 199.55 50.8505C200.609 44.8041 205.838 40.4169 211.989 40.4169C212.885 40.4169 213.78 40.516 214.645 40.7056C220.434 41.9468 224.635 47.1485 224.635 53.0786L224.64 53.0829Z" fill="white"/>
<path d="M186.034 42.5265C182.371 36.56 176.001 33 168.998 33C159.391 33 151.148 39.8274 149.362 49.2462H149.306L149.293 49.328C149.172 50.0598 149.09 50.8648 149.039 51.7904C149.013 52.2381 149 52.6341 149 53.0043V53.1507C149.009 53.8179 149.047 54.4808 149.116 55.1223C149.258 56.5514 149.564 57.9591 150.024 59.3108C152.736 67.4985 160.359 73 168.998 73C177.116 73 184.369 68.1614 187.472 60.6711C187.648 60.2665 187.808 59.8317 187.98 59.3108L188.023 59.1817H180.034L180.004 59.2333C177.766 63.1851 173.548 65.6431 168.998 65.6431C164.719 65.6431 160.768 63.5037 158.422 59.9221C158.259 59.6853 158.112 59.4313 158.005 59.2333C157.294 57.9935 156.804 56.6418 156.554 55.2127H188.875L188.884 55.1266C188.961 54.4335 189 53.7189 189 53.0043C189 51.7688 188.888 50.5291 188.664 49.3237C188.217 46.913 187.334 44.6229 186.039 42.5222L186.034 42.5265ZM158.418 46.0951C160.759 42.5049 164.715 40.3612 168.998 40.3612C172.411 40.3612 175.609 41.7 178.011 44.1322C179.427 45.5743 180.49 47.3392 181.084 49.2505H156.933C157.273 48.1528 157.772 47.0938 158.418 46.0994V46.0951Z" fill="white"/>
<path d="M243.515 23H236V61.2106C236 68.8743 238.999 72 246.35 72C247.737 72 249.639 71.9053 250.546 71.69L250.957 71.591V65.1587L250.736 65.1888C250.672 65.1974 250.602 65.1888 250.546 65.1974C246.566 65.1974 244.328 64.0565 243.692 61.7187C243.692 61.7014 243.684 61.6885 243.679 61.667C243.675 61.6412 243.666 61.6153 243.662 61.5852C243.524 60.8317 243.515 59.1397 243.515 58.6403V38.2412H251V31.8993H243.515V23Z" fill="white"/>
<path d="M46.56 18H38.466L16.0562 72.8613L16 72.9957H24.4053L26.1867 68.3932C26.2472 68.2415 26.3077 68.0942 26.3682 67.9555L26.3985 67.8818C29.157 61.4158 35.474 57.2337 42.4957 57.2337C45.8552 57.2337 49.1153 58.1871 51.9257 59.99C54.5156 61.6498 56.7682 64.2718 58.2642 67.3704C58.6231 68.1115 58.9085 68.7702 59.1463 69.39L60.5601 73H69L46.5859 18.065L46.56 18.0043V18ZM51.3377 50.4687C48.6786 48.8955 45.6304 48.0634 42.5173 48.0634C39.4042 48.0634 36.3474 48.8998 33.6667 50.486L42.5 27.7467L51.3333 50.4687H51.3377Z" fill="white"/>
<path d="M127.888 40.2696C132.547 40.2696 136.823 42.8209 139.052 46.9262L139.069 46.9564H147L146.974 46.8787C145.78 43.1446 143.522 39.8681 140.448 37.3989C140.228 37.2089 139.996 37.0406 139.802 36.8981C136.349 34.3469 132.259 33 127.961 33C116.957 33 108 41.9704 108 53C108 55.0117 108.297 57.0017 108.892 58.9227C109.017 59.3285 109.151 59.7041 109.289 60.0667C109.362 60.2869 109.448 60.5027 109.526 60.684C109.539 60.7185 109.556 60.7531 109.569 60.7833C109.582 60.8178 109.595 60.8524 109.612 60.8869C109.72 61.1286 109.841 61.4049 109.966 61.6639C110.254 62.2597 110.565 62.8295 110.888 63.3648C111.034 63.6022 111.211 63.8871 111.409 64.1807C111.582 64.4483 111.772 64.7116 111.961 64.9663C115.78 70.0732 121.612 73 127.961 73C136.616 73 144.241 67.4701 146.931 59.2379L146.957 59.1602H139.004L138.987 59.1904C136.741 63.2223 132.487 65.7304 127.884 65.7304C120.875 65.7304 115.172 60.0192 115.172 53C115.172 45.9808 120.875 40.2696 127.884 40.2696H127.888Z" fill="white"/>
<path d="M86.8879 40.2696C91.5474 40.2696 95.8233 42.8209 98.0517 46.9262L98.069 46.9564H106L105.974 46.8787C104.78 43.1446 102.522 39.8681 99.4483 37.3989C99.2285 37.2089 98.9957 37.0406 98.8017 36.8981C95.3491 34.3469 91.2586 33 86.9612 33C75.9569 33 67 41.9704 67 53C67 55.0117 67.2974 57.0017 67.8922 58.9227C68.0172 59.3285 68.1509 59.7041 68.2888 60.0667C68.3621 60.2869 68.4483 60.5027 68.5259 60.684C68.5388 60.7185 68.556 60.7531 68.569 60.7833C68.5819 60.8178 68.5948 60.8524 68.6164 60.8998C68.7284 61.1545 68.8448 61.4136 68.9655 61.6639C69.2543 62.2597 69.5647 62.8295 69.8879 63.3648C70.0345 63.6022 70.2112 63.8871 70.4095 64.1807C70.5819 64.4483 70.7716 64.7116 70.9612 64.9663C74.7802 70.0732 80.6121 73 86.9612 73C95.6164 73 103.241 67.4701 105.931 59.2379L105.957 59.1602H98.0043L97.9871 59.1904C95.7414 63.2223 91.4871 65.7304 86.8836 65.7304C79.875 65.7304 74.1724 60.0192 74.1724 53C74.1724 45.9808 79.875 40.2696 86.8836 40.2696H86.8879Z" fill="white"/>
<path d="M29 0H4V4H29V0Z" fill="#37B46E"/>
<path d="M4 4H0V29H4V4Z" fill="#37B46E"/>
<path d="M275 91H251V95H275V91Z" fill="#37B46E"/>
<path d="M280 66H276V90H280V66Z" fill="#37B46E"/>
<path d="M331.6 44.216C331.288 42.344 330.436 40.772 329.044 39.5C327.652 38.228 325.768 37.592 323.392 37.592C321.352 37.592 319.6 38.108 318.136 39.14C316.672 40.172 315.568 41.564 314.824 43.316C314.08 45.068 313.708 47.012 313.708 49.148C313.708 51.284 314.08 53.228 314.824 54.98C315.568 56.732 316.66 58.124 318.1 59.156C319.564 60.164 321.304 60.668 323.32 60.668C325.912 60.668 327.916 59.936 329.332 58.472C330.772 56.984 331.588 55.148 331.78 52.964H333.868C333.652 54.836 333.088 56.492 332.176 57.932C331.264 59.348 330.04 60.452 328.504 61.244C326.992 62.036 325.264 62.432 323.32 62.432C321.04 62.432 319.012 61.88 317.236 60.776C315.484 59.648 314.116 58.076 313.132 56.06C312.148 54.044 311.656 51.74 311.656 49.148C311.656 46.58 312.148 44.288 313.132 42.272C314.116 40.256 315.496 38.684 317.272 37.556C319.048 36.404 321.088 35.828 323.392 35.828C325.264 35.828 326.932 36.188 328.396 36.908C329.86 37.628 331.036 38.624 331.924 39.896C332.836 41.144 333.424 42.584 333.688 44.216H331.6ZM345.247 62.468C343.471 62.468 341.923 62.072 340.603 61.28C339.307 60.464 338.311 59.336 337.615 57.896C336.919 56.432 336.571 54.752 336.571 52.856C336.571 50.96 336.919 49.292 337.615 47.852C338.311 46.388 339.307 45.26 340.603 44.468C341.923 43.652 343.471 43.244 345.247 43.244C347.023 43.244 348.559 43.652 349.855 44.468C351.175 45.26 352.183 46.388 352.879 47.852C353.575 49.292 353.923 50.96 353.923 52.856C353.923 54.752 353.575 56.432 352.879 57.896C352.183 59.336 351.175 60.464 349.855 61.28C348.559 62.072 347.023 62.468 345.247 62.468ZM345.247 60.92C347.407 60.92 349.075 60.176 350.251 58.688C351.427 57.176 352.015 55.232 352.015 52.856C352.015 50.504 351.427 48.584 350.251 47.096C349.075 45.584 347.407 44.828 345.247 44.828C343.087 44.828 341.419 45.584 340.243 47.096C339.067 48.584 338.479 50.504 338.479 52.856C338.479 55.232 339.067 57.176 340.243 58.688C341.419 60.176 343.087 60.92 345.247 60.92ZM376.129 43.28C377.809 43.28 379.117 43.784 380.053 44.792C380.989 45.776 381.457 47.204 381.457 49.076V62H379.657V49.364C379.657 47.996 379.381 46.904 378.829 46.088C378.301 45.272 377.305 44.864 375.841 44.864C374.713 44.864 373.717 45.14 372.853 45.692C372.013 46.22 371.365 46.904 370.909 47.744C370.453 48.56 370.225 49.412 370.225 50.3V62H368.425V49.364C368.425 47.996 368.149 46.904 367.597 46.088C367.069 45.272 366.073 44.864 364.609 44.864C363.481 44.864 362.485 45.14 361.621 45.692C360.781 46.22 360.133 46.904 359.677 47.744C359.221 48.56 358.993 49.412 358.993 50.3V62H357.193V43.64H358.993V46.628H359.065C359.593 45.668 360.349 44.876 361.333 44.252C362.317 43.604 363.505 43.28 364.897 43.28C366.169 43.28 367.237 43.592 368.101 44.216C368.965 44.816 369.553 45.704 369.865 46.88H369.937C370.561 45.824 371.389 44.96 372.421 44.288C373.477 43.616 374.713 43.28 376.129 43.28ZM385.166 39.896V37.304H387.758V39.896H385.166ZM387.362 62H385.562V43.64H387.362V62ZM400.035 43.28C401.739 43.28 403.143 43.772 404.247 44.756C405.351 45.74 405.903 47.168 405.903 49.04V62H404.103V49.328C404.103 48.032 403.755 46.964 403.059 46.124C402.363 45.26 401.211 44.828 399.603 44.828C398.427 44.828 397.371 45.104 396.435 45.656C395.499 46.184 394.767 46.868 394.239 47.708C393.711 48.548 393.447 49.4 393.447 50.264V62H391.647V43.64H393.447V46.664H393.519C394.143 45.68 394.983 44.876 396.039 44.252C397.119 43.604 398.451 43.28 400.035 43.28ZM423.537 43.604H425.337V60.92C425.337 63.44 424.617 65.348 423.177 66.644C421.761 67.94 419.793 68.588 417.273 68.588C414.945 68.588 413.109 68.072 411.765 67.04C410.421 66.032 409.677 64.736 409.533 63.152H411.369C411.585 64.28 412.173 65.204 413.133 65.924C414.117 66.644 415.509 67.004 417.309 67.004C419.301 67.004 420.837 66.524 421.917 65.564C422.997 64.628 423.537 63.188 423.537 61.244V57.356H423.465C422.913 58.508 422.073 59.444 420.945 60.164C419.817 60.86 418.497 61.208 416.985 61.208C415.521 61.208 414.177 60.872 412.953 60.2C411.753 59.528 410.793 58.52 410.073 57.176C409.353 55.808 408.993 54.14 408.993 52.172C408.993 50.228 409.353 48.596 410.073 47.276C410.793 45.932 411.753 44.936 412.953 44.288C414.177 43.616 415.521 43.28 416.985 43.28C418.497 43.28 419.817 43.628 420.945 44.324C422.073 45.02 422.913 45.956 423.465 47.132H423.537V43.604ZM417.273 59.624C418.401 59.624 419.433 59.348 420.369 58.796C421.329 58.244 422.097 57.416 422.673 56.312C423.249 55.184 423.537 53.804 423.537 52.172C423.537 50.588 423.249 49.244 422.673 48.14C422.097 47.036 421.329 46.208 420.369 45.656C419.433 45.104 418.401 44.828 417.273 44.828C415.353 44.828 413.805 45.476 412.629 46.772C411.477 48.068 410.901 49.868 410.901 52.172C410.901 54.524 411.477 56.36 412.629 57.68C413.805 58.976 415.353 59.624 417.273 59.624ZM447.805 47.564C449.893 47.996 451.573 48.488 452.845 49.04C454.141 49.568 455.149 50.324 455.869 51.308C456.589 52.268 456.949 53.54 456.949 55.124C456.949 56.492 456.613 57.728 455.941 58.832C455.269 59.936 454.261 60.812 452.917 61.46C451.597 62.108 449.989 62.432 448.093 62.432C445.021 62.432 442.501 61.664 440.533 60.128C438.589 58.592 437.533 56.408 437.365 53.576H439.453C439.645 55.808 440.461 57.56 441.901 58.832C443.365 60.08 445.417 60.704 448.057 60.704C450.361 60.704 452.065 60.188 453.169 59.156C454.297 58.1 454.861 56.744 454.861 55.088C454.861 53.792 454.561 52.784 453.961 52.064C453.361 51.344 452.497 50.792 451.369 50.408C450.265 50 448.645 49.568 446.509 49.112C444.805 48.752 443.365 48.332 442.189 47.852C441.037 47.348 440.113 46.652 439.417 45.764C438.745 44.852 438.409 43.688 438.409 42.272C438.409 40.256 439.165 38.684 440.677 37.556C442.213 36.404 444.265 35.828 446.833 35.828C449.545 35.828 451.717 36.5 453.349 37.844C454.981 39.164 455.881 41.036 456.049 43.46H453.961C453.529 39.548 451.189 37.592 446.941 37.592C444.901 37.592 443.317 38 442.189 38.816C441.061 39.608 440.497 40.748 440.497 42.236C440.497 43.388 440.785 44.3 441.361 44.972C441.961 45.644 442.741 46.16 443.701 46.52C444.685 46.856 446.053 47.204 447.805 47.564ZM468.188 62.468C466.412 62.468 464.864 62.072 463.544 61.28C462.248 60.464 461.252 59.336 460.556 57.896C459.86 56.432 459.512 54.752 459.512 52.856C459.512 50.96 459.86 49.292 460.556 47.852C461.252 46.388 462.248 45.26 463.544 44.468C464.864 43.652 466.412 43.244 468.188 43.244C469.964 43.244 471.5 43.652 472.796 44.468C474.116 45.26 475.124 46.388 475.82 47.852C476.516 49.292 476.864 50.96 476.864 52.856C476.864 54.752 476.516 56.432 475.82 57.896C475.124 59.336 474.116 60.464 472.796 61.28C471.5 62.072 469.964 62.468 468.188 62.468ZM468.188 60.92C470.348 60.92 472.016 60.176 473.192 58.688C474.368 57.176 474.956 55.232 474.956 52.856C474.956 50.504 474.368 48.584 473.192 47.096C472.016 45.584 470.348 44.828 468.188 44.828C466.028 44.828 464.36 45.584 463.184 47.096C462.008 48.584 461.42 50.504 461.42 52.856C461.42 55.232 462.008 57.176 463.184 58.688C464.36 60.176 466.028 60.92 468.188 60.92ZM487.911 62.468C486.135 62.468 484.587 62.072 483.267 61.28C481.971 60.464 480.975 59.336 480.279 57.896C479.583 56.432 479.235 54.752 479.235 52.856C479.235 50.96 479.583 49.292 480.279 47.852C480.975 46.388 481.971 45.26 483.267 44.468C484.587 43.652 486.135 43.244 487.911 43.244C489.687 43.244 491.223 43.652 492.519 44.468C493.839 45.26 494.847 46.388 495.543 47.852C496.239 49.292 496.587 50.96 496.587 52.856C496.587 54.752 496.239 56.432 495.543 57.896C494.847 59.336 493.839 60.464 492.519 61.28C491.223 62.072 489.687 62.468 487.911 62.468ZM487.911 60.92C490.071 60.92 491.739 60.176 492.915 58.688C494.091 57.176 494.679 55.232 494.679 52.856C494.679 50.504 494.091 48.584 492.915 47.096C491.739 45.584 490.071 44.828 487.911 44.828C485.751 44.828 484.083 45.584 482.907 47.096C481.731 48.584 481.143 50.504 481.143 52.856C481.143 55.232 481.731 57.176 482.907 58.688C484.083 60.176 485.751 60.92 487.911 60.92ZM508.246 43.28C509.95 43.28 511.354 43.772 512.458 44.756C513.562 45.74 514.114 47.168 514.114 49.04V62H512.314V49.328C512.314 48.032 511.966 46.964 511.27 46.124C510.574 45.26 509.422 44.828 507.814 44.828C506.638 44.828 505.582 45.104 504.646 45.656C503.71 46.184 502.978 46.868 502.45 47.708C501.922 48.548 501.658 49.4 501.658 50.264V62H499.858V43.64H501.658V46.664H501.73C502.354 45.68 503.194 44.876 504.25 44.252C505.33 43.604 506.662 43.28 508.246 43.28Z" fill="white"/>
</svg>
