<svg width="241" height="19" viewBox="0 0 241 19" fill="none" xmlns="http://www.w3.org/2000/svg">
<path d="M6.96 15H5.16V2.3H0.4V0.699999H11.72V2.3H6.96V15ZM17.8383 4.52C18.8383 4.52 19.6583 4.80667 20.2983 5.38C20.9383 5.94 21.2583 6.77333 21.2583 7.88V15H19.6583V8.28C19.6583 7.57333 19.4783 7.00667 19.1183 6.58C18.7583 6.14 18.1983 5.92 17.4383 5.92C16.5449 5.92 15.8183 6.17333 15.2583 6.68C14.7116 7.18667 14.4383 7.84 14.4383 8.64V15H12.8383V0.699999H14.4383V6.02H14.4783C14.7983 5.59333 15.2383 5.24 15.7983 4.96C16.3583 4.66667 17.0383 4.52 17.8383 4.52ZM32.5856 9.52C32.5856 9.94667 32.579 10.2133 32.5656 10.32H24.5856C24.6123 11.3067 24.9056 12.1533 25.4656 12.86C26.0256 13.5667 26.8323 13.92 27.8856 13.92C28.7656 13.92 29.4456 13.7 29.9256 13.26C30.4056 12.82 30.7056 12.3533 30.8256 11.86H32.4456C32.1656 12.8867 31.639 13.72 30.8656 14.36C30.1056 14.9867 29.1056 15.3 27.8656 15.3C26.8256 15.3 25.9323 15.0667 25.1856 14.6C24.439 14.1333 23.8723 13.4933 23.4856 12.68C23.099 11.8533 22.9056 10.92 22.9056 9.88C22.9056 8.8 23.1056 7.85333 23.5056 7.04C23.919 6.22667 24.499 5.6 25.2456 5.16C25.9923 4.72 26.8656 4.5 27.8656 4.5C28.839 4.5 29.679 4.71333 30.3856 5.14C31.1056 5.55333 31.6523 6.14 32.0256 6.9C32.399 7.64667 32.5856 8.52 32.5856 9.52ZM30.8856 8.92C30.8856 8.36 30.759 7.84667 30.5056 7.38C30.2523 6.91333 29.8856 6.54667 29.4056 6.28C28.939 6.01333 28.399 5.88 27.7856 5.88C26.9056 5.88 26.1656 6.16667 25.5656 6.74C24.9656 7.3 24.639 8.02667 24.5856 8.92H30.8856ZM39.132 15V0.699999H40.932V6.78H48.572V0.699999H50.372V15H48.572V8.38H40.932V15H39.132ZM59.4997 4.8H61.0997V15H59.4997V13.78H59.4597C59.1397 14.2067 58.6997 14.5667 58.1397 14.86C57.5797 15.14 56.8997 15.28 56.0997 15.28C55.0997 15.28 54.2797 15 53.6397 14.44C52.9997 13.8667 52.6797 13.0267 52.6797 11.92V4.8H54.2797V11.52C54.2797 12.2267 54.4597 12.8 54.8197 13.24C55.1797 13.6667 55.7397 13.88 56.4997 13.88C57.393 13.88 58.113 13.6267 58.6597 13.12C59.2197 12.6133 59.4997 11.96 59.4997 11.16V4.8ZM74.0647 4.52C75.078 4.52 75.838 4.81333 76.3447 5.4C76.8647 5.97333 77.1247 6.8 77.1247 7.88V15H75.5247V8.28C75.5247 7.52 75.398 6.94 75.1447 6.54C74.8914 6.12667 74.398 5.92 73.6647 5.92C72.878 5.92 72.2447 6.17333 71.7647 6.68C71.298 7.18667 71.0647 7.84 71.0647 8.64V15H69.4647V8.28C69.4647 7.52 69.338 6.94 69.0847 6.54C68.8314 6.12667 68.338 5.92 67.6047 5.92C66.818 5.92 66.1847 6.17333 65.7047 6.68C65.238 7.18667 65.0047 7.84 65.0047 8.64V15H63.4047V4.8H65.0047V6.02H65.0447C65.7914 5.02 66.778 4.52 68.0047 4.52C68.7247 4.52 69.3047 4.66667 69.7447 4.96C70.1847 5.25333 70.5114 5.69333 70.7247 6.28H70.7647C71.618 5.10667 72.718 4.52 74.0647 4.52ZM82.125 15.28C81.0983 15.28 80.2783 15.0133 79.665 14.48C79.065 13.9467 78.765 13.2467 78.765 12.38C78.765 11.6333 78.9383 11.04 79.285 10.6C79.6317 10.1467 80.105 9.8 80.705 9.56C81.3183 9.32 82.125 9.10667 83.125 8.92C83.7917 8.8 84.2917 8.68667 84.625 8.58C84.9717 8.47333 85.2317 8.33333 85.405 8.16C85.5783 7.97333 85.665 7.72 85.665 7.4C85.665 6.4 84.9583 5.9 83.545 5.9C82.905 5.9 82.3983 5.96667 82.025 6.1C81.665 6.23333 81.405 6.45333 81.245 6.76C81.085 7.05333 80.985 7.45333 80.945 7.96H79.265C79.3183 6.90667 79.6983 6.06667 80.405 5.44C81.1117 4.81333 82.1783 4.5 83.605 4.5C84.6717 4.5 85.5383 4.76 86.205 5.28C86.885 5.8 87.225 6.64 87.225 7.8V12.7C87.225 13.1133 87.265 13.42 87.345 13.62C87.425 13.8067 87.5583 13.9 87.745 13.9L87.985 13.88V15C87.6917 15.0667 87.4317 15.1 87.205 15.1C86.7383 15.1 86.3783 14.9867 86.125 14.76C85.885 14.52 85.7383 14.1 85.685 13.5H85.645C85.2983 14.0733 84.8317 14.5133 84.245 14.82C83.6583 15.1267 82.9517 15.28 82.125 15.28ZM82.285 13.88C83.2983 13.88 84.1117 13.6467 84.725 13.18C85.3517 12.7 85.665 11.9933 85.665 11.06V9.44C85.425 9.70667 84.625 9.97333 83.265 10.24C82.2383 10.4533 81.5117 10.7067 81.085 11C80.6583 11.2933 80.445 11.7267 80.445 12.3C80.445 12.82 80.5917 13.2133 80.885 13.48C81.1783 13.7467 81.645 13.88 82.285 13.88ZM94.6547 4.52C95.6547 4.52 96.4747 4.80667 97.1147 5.38C97.7547 5.94 98.0747 6.77333 98.0747 7.88V15H96.4747V8.28C96.4747 7.57333 96.2947 7.00667 95.9347 6.58C95.5747 6.14 95.0147 5.92 94.2547 5.92C93.3614 5.92 92.6347 6.17333 92.0747 6.68C91.528 7.18667 91.2547 7.84 91.2547 8.64V15H89.6547V4.8H91.2547V6.02H91.2947C91.6147 5.59333 92.0547 5.24 92.6147 4.96C93.1747 4.66667 93.8547 4.52 94.6547 4.52ZM110.251 6.7C111.451 6.98 112.405 7.26 113.111 7.54C113.818 7.80667 114.405 8.22 114.871 8.78C115.338 9.34 115.571 10.0933 115.571 11.04C115.571 12.2933 115.145 13.3133 114.291 14.1C113.438 14.8867 112.165 15.28 110.471 15.28C109.285 15.28 108.231 15.08 107.311 14.68C106.391 14.2667 105.658 13.68 105.111 12.92C104.578 12.16 104.278 11.2533 104.211 10.2H106.091C106.331 12.5333 107.765 13.7 110.391 13.7C111.591 13.7 112.438 13.4733 112.931 13.02C113.438 12.5533 113.691 11.9133 113.691 11.1C113.691 10.4867 113.558 10.0133 113.291 9.68C113.025 9.34667 112.651 9.09333 112.171 8.92C111.691 8.73333 110.945 8.51333 109.931 8.26C109.838 8.24667 109.698 8.21333 109.511 8.16C108.538 7.92 107.731 7.67333 107.091 7.42C106.465 7.16667 105.925 6.78 105.471 6.26C105.031 5.74 104.811 5.05333 104.811 4.2C104.811 3.04 105.238 2.12 106.091 1.44C106.945 0.759999 108.131 0.419999 109.651 0.419999C111.265 0.419999 112.545 0.813333 113.491 1.6C114.451 2.38667 114.991 3.5 115.111 4.94H113.231C113.098 3.95333 112.751 3.22 112.191 2.74C111.631 2.24667 110.791 2 109.671 2C108.685 2 107.938 2.18 107.431 2.54C106.938 2.9 106.691 3.42667 106.691 4.12C106.691 4.68 106.845 5.12 107.151 5.44C107.471 5.76 107.858 6 108.311 6.16C108.765 6.32 109.411 6.5 110.251 6.7ZM117.111 2.82V0.899999H119.031V2.82H117.111ZM118.871 15H117.271V4.8H118.871V15ZM128.402 0.699999H130.002V15H128.402V13.74H128.362C127.575 14.7667 126.509 15.28 125.162 15.28C124.309 15.28 123.529 15.0667 122.822 14.64C122.129 14.2 121.575 13.5733 121.162 12.76C120.762 11.9467 120.562 10.9933 120.562 9.9C120.562 8.80667 120.762 7.85333 121.162 7.04C121.575 6.22667 122.129 5.60667 122.822 5.18C123.529 4.74 124.309 4.52 125.162 4.52C126.562 4.52 127.629 5.05333 128.362 6.12H128.402V0.699999ZM125.322 13.88C126.269 13.88 127.015 13.52 127.562 12.8C128.122 12.0667 128.402 11.1 128.402 9.9C128.402 8.7 128.122 7.74 127.562 7.02C127.015 6.28667 126.269 5.92 125.322 5.92C124.655 5.92 124.089 6.10667 123.622 6.48C123.155 6.85333 122.809 7.34667 122.582 7.96C122.355 8.56 122.242 9.20667 122.242 9.9C122.242 10.5933 122.355 11.2467 122.582 11.86C122.809 12.46 123.155 12.9467 123.622 13.32C124.089 13.6933 124.655 13.88 125.322 13.88ZM141.414 9.52C141.414 9.94667 141.407 10.2133 141.394 10.32H133.414C133.44 11.3067 133.734 12.1533 134.294 12.86C134.854 13.5667 135.66 13.92 136.714 13.92C137.594 13.92 138.274 13.7 138.754 13.26C139.234 12.82 139.534 12.3533 139.654 11.86H141.274C140.994 12.8867 140.467 13.72 139.694 14.36C138.934 14.9867 137.934 15.3 136.694 15.3C135.654 15.3 134.76 15.0667 134.014 14.6C133.267 14.1333 132.7 13.4933 132.314 12.68C131.927 11.8533 131.734 10.92 131.734 9.88C131.734 8.8 131.934 7.85333 132.334 7.04C132.747 6.22667 133.327 5.6 134.074 5.16C134.82 4.72 135.694 4.5 136.694 4.5C137.667 4.5 138.507 4.71333 139.214 5.14C139.934 5.55333 140.48 6.14 140.854 6.9C141.227 7.64667 141.414 8.52 141.414 9.52ZM139.714 8.92C139.714 8.36 139.587 7.84667 139.334 7.38C139.08 6.91333 138.714 6.54667 138.234 6.28C137.767 6.01333 137.227 5.88 136.614 5.88C135.734 5.88 134.994 6.16667 134.394 6.74C133.794 7.3 133.467 8.02667 133.414 8.92H139.714ZM154.56 15.28C153.187 15.28 151.967 14.96 150.9 14.32C149.847 13.68 149.027 12.8 148.44 11.68C147.853 10.5467 147.56 9.26667 147.56 7.84C147.56 6.41333 147.853 5.14 148.44 4.02C149.027 2.88667 149.847 2.00667 150.9 1.38C151.967 0.739999 153.187 0.419999 154.56 0.419999C155.933 0.419999 157.147 0.739999 158.2 1.38C159.267 2.00667 160.093 2.88667 160.68 4.02C161.267 5.14 161.56 6.41333 161.56 7.84C161.56 9.26667 161.267 10.5467 160.68 11.68C160.093 12.8 159.267 13.68 158.2 14.32C157.147 14.96 155.933 15.28 154.56 15.28ZM154.56 13.68C155.707 13.68 156.66 13.42 157.42 12.9C158.193 12.3667 158.76 11.66 159.12 10.78C159.493 9.9 159.68 8.92 159.68 7.84C159.68 6.77333 159.493 5.8 159.12 4.92C158.76 4.04 158.193 3.34 157.42 2.82C156.66 2.28667 155.707 2.02 154.56 2.02C153.413 2.02 152.453 2.28667 151.68 2.82C150.92 3.34 150.353 4.04 149.98 4.92C149.62 5.8 149.44 6.77333 149.44 7.84C149.44 8.92 149.62 9.9 149.98 10.78C150.353 11.66 150.92 12.3667 151.68 12.9C152.453 13.42 153.413 13.68 154.56 13.68ZM166.981 1.98C166.541 1.98 166.248 2.07333 166.101 2.26C165.954 2.43333 165.881 2.79333 165.881 3.34V4.8H167.821V6.2H165.881V15H164.281V6.2H162.861V4.8H164.281V3.42C164.281 2.32667 164.488 1.58 164.901 1.18C165.314 0.779999 165.934 0.58 166.761 0.58C167.041 0.58 167.394 0.613333 167.821 0.68V2.04C167.421 2 167.141 1.98 166.981 1.98ZM184.65 5.42C184.476 4.52667 184.063 3.74 183.41 3.06C182.77 2.36667 181.783 2.02 180.45 2.02C179.37 2.02 178.476 2.29333 177.77 2.84C177.063 3.38667 176.543 4.1 176.21 4.98C175.876 5.86 175.71 6.81333 175.71 7.84C175.71 8.86667 175.876 9.82667 176.21 10.72C176.543 11.6 177.063 12.3133 177.77 12.86C178.476 13.4067 179.37 13.68 180.45 13.68C181.823 13.68 182.85 13.3067 183.53 12.56C184.21 11.8 184.583 10.8933 184.65 9.84H186.53C186.423 10.8933 186.11 11.8333 185.59 12.66C185.07 13.4867 184.37 14.1333 183.49 14.6C182.61 15.0533 181.596 15.28 180.45 15.28C179.156 15.28 178.01 14.96 177.01 14.32C176.01 13.68 175.23 12.8 174.67 11.68C174.11 10.5467 173.83 9.26667 173.83 7.84C173.83 6.41333 174.11 5.14 174.67 4.02C175.23 2.88667 176.01 2.00667 177.01 1.38C178.01 0.739999 179.156 0.419999 180.45 0.419999C181.583 0.419999 182.59 0.646666 183.47 1.1C184.35 1.54 185.05 2.14 185.57 2.9C186.09 3.66 186.41 4.5 186.53 5.42H184.65ZM193.229 4.52C194.229 4.52 195.049 4.80667 195.689 5.38C196.329 5.94 196.649 6.77333 196.649 7.88V15H195.049V8.28C195.049 7.57333 194.869 7.00667 194.509 6.58C194.149 6.14 193.589 5.92 192.829 5.92C191.936 5.92 191.209 6.17333 190.649 6.68C190.102 7.18667 189.829 7.84 189.829 8.64V15H188.229V0.699999H189.829V6.02H189.869C190.189 5.59333 190.629 5.24 191.189 4.96C191.749 4.66667 192.429 4.52 193.229 4.52ZM201.656 15.28C200.63 15.28 199.81 15.0133 199.196 14.48C198.596 13.9467 198.296 13.2467 198.296 12.38C198.296 11.6333 198.47 11.04 198.816 10.6C199.163 10.1467 199.636 9.8 200.236 9.56C200.85 9.32 201.656 9.10667 202.656 8.92C203.323 8.8 203.823 8.68667 204.156 8.58C204.503 8.47333 204.763 8.33333 204.936 8.16C205.11 7.97333 205.196 7.72 205.196 7.4C205.196 6.4 204.49 5.9 203.076 5.9C202.436 5.9 201.93 5.96667 201.556 6.1C201.196 6.23333 200.936 6.45333 200.776 6.76C200.616 7.05333 200.516 7.45333 200.476 7.96H198.796C198.85 6.90667 199.23 6.06667 199.936 5.44C200.643 4.81333 201.71 4.5 203.136 4.5C204.203 4.5 205.07 4.76 205.736 5.28C206.416 5.8 206.756 6.64 206.756 7.8V12.7C206.756 13.1133 206.796 13.42 206.876 13.62C206.956 13.8067 207.09 13.9 207.276 13.9L207.516 13.88V15C207.223 15.0667 206.963 15.1 206.736 15.1C206.27 15.1 205.91 14.9867 205.656 14.76C205.416 14.52 205.27 14.1 205.216 13.5H205.176C204.83 14.0733 204.363 14.5133 203.776 14.82C203.19 15.1267 202.483 15.28 201.656 15.28ZM201.816 13.88C202.83 13.88 203.643 13.6467 204.256 13.18C204.883 12.7 205.196 11.9933 205.196 11.06V9.44C204.956 9.70667 204.156 9.97333 202.796 10.24C201.77 10.4533 201.043 10.7067 200.616 11C200.19 11.2933 199.976 11.7267 199.976 12.3C199.976 12.82 200.123 13.2133 200.416 13.48C200.71 13.7467 201.176 13.88 201.816 13.88ZM214.186 4.52C215.186 4.52 216.006 4.80667 216.646 5.38C217.286 5.94 217.606 6.77333 217.606 7.88V15H216.006V8.28C216.006 7.57333 215.826 7.00667 215.466 6.58C215.106 6.14 214.546 5.92 213.786 5.92C212.893 5.92 212.166 6.17333 211.606 6.68C211.059 7.18667 210.786 7.84 210.786 8.64V15H209.186V4.8H210.786V6.02H210.826C211.146 5.59333 211.586 5.24 212.146 4.96C212.706 4.66667 213.386 4.52 214.186 4.52ZM227.093 4.8H228.693V14.32C228.693 15.7467 228.28 16.8267 227.453 17.56C226.627 18.2933 225.48 18.66 224.013 18.66C222.64 18.66 221.573 18.3667 220.813 17.78C220.053 17.2067 219.633 16.4267 219.553 15.44H221.233C221.473 16.6533 222.4 17.26 224.013 17.26C225.027 17.26 225.793 17.0333 226.313 16.58C226.833 16.14 227.093 15.44 227.093 14.48V12.88H227.053C226.32 13.9467 225.24 14.48 223.813 14.48C222.947 14.48 222.167 14.2933 221.473 13.92C220.793 13.5467 220.253 12.9867 219.853 12.24C219.453 11.4933 219.253 10.58 219.253 9.5C219.253 8.42 219.453 7.50667 219.853 6.76C220.253 6.01333 220.793 5.45333 221.473 5.08C222.167 4.70667 222.947 4.52 223.813 4.52C225.187 4.52 226.267 5.03333 227.053 6.06H227.093V4.8ZM224.013 13.08C224.987 13.08 225.74 12.78 226.273 12.18C226.82 11.5667 227.093 10.6733 227.093 9.5C227.093 8.32667 226.82 7.44 226.273 6.84C225.74 6.22667 224.987 5.92 224.013 5.92C223.013 5.92 222.247 6.25333 221.713 6.92C221.193 7.58667 220.933 8.44667 220.933 9.5C220.933 10.5533 221.193 11.4133 221.713 12.08C222.247 12.7467 223.013 13.08 224.013 13.08ZM240.105 9.52C240.105 9.94667 240.098 10.2133 240.085 10.32H232.105C232.132 11.3067 232.425 12.1533 232.985 12.86C233.545 13.5667 234.352 13.92 235.405 13.92C236.285 13.92 236.965 13.7 237.445 13.26C237.925 12.82 238.225 12.3533 238.345 11.86H239.965C239.685 12.8867 239.158 13.72 238.385 14.36C237.625 14.9867 236.625 15.3 235.385 15.3C234.345 15.3 233.452 15.0667 232.705 14.6C231.958 14.1333 231.392 13.4933 231.005 12.68C230.618 11.8533 230.425 10.92 230.425 9.88C230.425 8.8 230.625 7.85333 231.025 7.04C231.438 6.22667 232.018 5.6 232.765 5.16C233.512 4.72 234.385 4.5 235.385 4.5C236.358 4.5 237.198 4.71333 237.905 5.14C238.625 5.55333 239.172 6.14 239.545 6.9C239.918 7.64667 240.105 8.52 240.105 9.52ZM238.405 8.92C238.405 8.36 238.278 7.84667 238.025 7.38C237.772 6.91333 237.405 6.54667 236.925 6.28C236.458 6.01333 235.918 5.88 235.305 5.88C234.425 5.88 233.685 6.16667 233.085 6.74C232.485 7.3 232.158 8.02667 232.105 8.92H238.405Z" fill="white"/>
</svg>
