<svg width="236" height="19" viewBox="0 0 236 19" fill="none" xmlns="http://www.w3.org/2000/svg">
<path d="M6.96 15H5.16V2.3H0.4V0.699999H11.72V2.3H6.96V15ZM17.8383 4.52C18.8383 4.52 19.6583 4.80667 20.2983 5.38C20.9383 5.94 21.2583 6.77333 21.2583 7.88V15H19.6583V8.28C19.6583 7.57333 19.4783 7.00667 19.1183 6.58C18.7583 6.14 18.1983 5.92 17.4383 5.92C16.5449 5.92 15.8183 6.17333 15.2583 6.68C14.7116 7.18667 14.4383 7.84 14.4383 8.64V15H12.8383V0.699999H14.4383V6.02H14.4783C14.7983 5.59333 15.2383 5.24 15.7983 4.96C16.3583 4.66667 17.0383 4.52 17.8383 4.52ZM32.5856 9.52C32.5856 9.94667 32.579 10.2133 32.5656 10.32H24.5856C24.6123 11.3067 24.9056 12.1533 25.4656 12.86C26.0256 13.5667 26.8323 13.92 27.8856 13.92C28.7656 13.92 29.4456 13.7 29.9256 13.26C30.4056 12.82 30.7056 12.3533 30.8256 11.86H32.4456C32.1656 12.8867 31.639 13.72 30.8656 14.36C30.1056 14.9867 29.1056 15.3 27.8656 15.3C26.8256 15.3 25.9323 15.0667 25.1856 14.6C24.439 14.1333 23.8723 13.4933 23.4856 12.68C23.099 11.8533 22.9056 10.92 22.9056 9.88C22.9056 8.8 23.1056 7.85333 23.5056 7.04C23.919 6.22667 24.499 5.6 25.2456 5.16C25.9923 4.72 26.8656 4.5 27.8656 4.5C28.839 4.5 29.679 4.71333 30.3856 5.14C31.1056 5.55333 31.6523 6.14 32.0256 6.9C32.399 7.64667 32.5856 8.52 32.5856 9.52ZM30.8856 8.92C30.8856 8.36 30.759 7.84667 30.5056 7.38C30.2523 6.91333 29.8856 6.54667 29.4056 6.28C28.939 6.01333 28.399 5.88 27.7856 5.88C26.9056 5.88 26.1656 6.16667 25.5656 6.74C24.9656 7.3 24.639 8.02667 24.5856 8.92H30.8856ZM39.132 15V0.699999H40.932V6.78H48.572V0.699999H50.372V15H48.572V8.38H40.932V15H39.132ZM59.4997 4.8H61.0997V15H59.4997V13.78H59.4597C59.1397 14.2067 58.6997 14.5667 58.1397 14.86C57.5797 15.14 56.8997 15.28 56.0997 15.28C55.0997 15.28 54.2797 15 53.6397 14.44C52.9997 13.8667 52.6797 13.0267 52.6797 11.92V4.8H54.2797V11.52C54.2797 12.2267 54.4597 12.8 54.8197 13.24C55.1797 13.6667 55.7397 13.88 56.4997 13.88C57.393 13.88 58.113 13.6267 58.6597 13.12C59.2197 12.6133 59.4997 11.96 59.4997 11.16V4.8ZM74.0647 4.52C75.078 4.52 75.838 4.81333 76.3447 5.4C76.8647 5.97333 77.1247 6.8 77.1247 7.88V15H75.5247V8.28C75.5247 7.52 75.398 6.94 75.1447 6.54C74.8914 6.12667 74.398 5.92 73.6647 5.92C72.878 5.92 72.2447 6.17333 71.7647 6.68C71.298 7.18667 71.0647 7.84 71.0647 8.64V15H69.4647V8.28C69.4647 7.52 69.338 6.94 69.0847 6.54C68.8314 6.12667 68.338 5.92 67.6047 5.92C66.818 5.92 66.1847 6.17333 65.7047 6.68C65.238 7.18667 65.0047 7.84 65.0047 8.64V15H63.4047V4.8H65.0047V6.02H65.0447C65.7914 5.02 66.778 4.52 68.0047 4.52C68.7247 4.52 69.3047 4.66667 69.7447 4.96C70.1847 5.25333 70.5114 5.69333 70.7247 6.28H70.7647C71.618 5.10667 72.718 4.52 74.0647 4.52ZM82.125 15.28C81.0983 15.28 80.2783 15.0133 79.665 14.48C79.065 13.9467 78.765 13.2467 78.765 12.38C78.765 11.6333 78.9383 11.04 79.285 10.6C79.6317 10.1467 80.105 9.8 80.705 9.56C81.3183 9.32 82.125 9.10667 83.125 8.92C83.7917 8.8 84.2917 8.68667 84.625 8.58C84.9717 8.47333 85.2317 8.33333 85.405 8.16C85.5783 7.97333 85.665 7.72 85.665 7.4C85.665 6.4 84.9583 5.9 83.545 5.9C82.905 5.9 82.3983 5.96667 82.025 6.1C81.665 6.23333 81.405 6.45333 81.245 6.76C81.085 7.05333 80.985 7.45333 80.945 7.96H79.265C79.3183 6.90667 79.6983 6.06667 80.405 5.44C81.1117 4.81333 82.1783 4.5 83.605 4.5C84.6717 4.5 85.5383 4.76 86.205 5.28C86.885 5.8 87.225 6.64 87.225 7.8V12.7C87.225 13.1133 87.265 13.42 87.345 13.62C87.425 13.8067 87.5583 13.9 87.745 13.9L87.985 13.88V15C87.6917 15.0667 87.4317 15.1 87.205 15.1C86.7383 15.1 86.3783 14.9867 86.125 14.76C85.885 14.52 85.7383 14.1 85.685 13.5H85.645C85.2983 14.0733 84.8317 14.5133 84.245 14.82C83.6583 15.1267 82.9517 15.28 82.125 15.28ZM82.285 13.88C83.2983 13.88 84.1117 13.6467 84.725 13.18C85.3517 12.7 85.665 11.9933 85.665 11.06V9.44C85.425 9.70667 84.625 9.97333 83.265 10.24C82.2383 10.4533 81.5117 10.7067 81.085 11C80.6583 11.2933 80.445 11.7267 80.445 12.3C80.445 12.82 80.5917 13.2133 80.885 13.48C81.1783 13.7467 81.645 13.88 82.285 13.88ZM94.6547 4.52C95.6547 4.52 96.4747 4.80667 97.1147 5.38C97.7547 5.94 98.0747 6.77333 98.0747 7.88V15H96.4747V8.28C96.4747 7.57333 96.2947 7.00667 95.9347 6.58C95.5747 6.14 95.0147 5.92 94.2547 5.92C93.3614 5.92 92.6347 6.17333 92.0747 6.68C91.528 7.18667 91.2547 7.84 91.2547 8.64V15H89.6547V4.8H91.2547V6.02H91.2947C91.6147 5.59333 92.0547 5.24 92.6147 4.96C93.1747 4.66667 93.8547 4.52 94.6547 4.52ZM110.251 6.7C111.451 6.98 112.405 7.26 113.111 7.54C113.818 7.80667 114.405 8.22 114.871 8.78C115.338 9.34 115.571 10.0933 115.571 11.04C115.571 12.2933 115.145 13.3133 114.291 14.1C113.438 14.8867 112.165 15.28 110.471 15.28C109.285 15.28 108.231 15.08 107.311 14.68C106.391 14.2667 105.658 13.68 105.111 12.92C104.578 12.16 104.278 11.2533 104.211 10.2H106.091C106.331 12.5333 107.765 13.7 110.391 13.7C111.591 13.7 112.438 13.4733 112.931 13.02C113.438 12.5533 113.691 11.9133 113.691 11.1C113.691 10.4867 113.558 10.0133 113.291 9.68C113.025 9.34667 112.651 9.09333 112.171 8.92C111.691 8.73333 110.945 8.51333 109.931 8.26C109.838 8.24667 109.698 8.21333 109.511 8.16C108.538 7.92 107.731 7.67333 107.091 7.42C106.465 7.16667 105.925 6.78 105.471 6.26C105.031 5.74 104.811 5.05333 104.811 4.2C104.811 3.04 105.238 2.12 106.091 1.44C106.945 0.759999 108.131 0.419999 109.651 0.419999C111.265 0.419999 112.545 0.813333 113.491 1.6C114.451 2.38667 114.991 3.5 115.111 4.94H113.231C113.098 3.95333 112.751 3.22 112.191 2.74C111.631 2.24667 110.791 2 109.671 2C108.685 2 107.938 2.18 107.431 2.54C106.938 2.9 106.691 3.42667 106.691 4.12C106.691 4.68 106.845 5.12 107.151 5.44C107.471 5.76 107.858 6 108.311 6.16C108.765 6.32 109.411 6.5 110.251 6.7ZM117.111 2.82V0.899999H119.031V2.82H117.111ZM118.871 15H117.271V4.8H118.871V15ZM128.402 0.699999H130.002V15H128.402V13.74H128.362C127.575 14.7667 126.509 15.28 125.162 15.28C124.309 15.28 123.529 15.0667 122.822 14.64C122.129 14.2 121.575 13.5733 121.162 12.76C120.762 11.9467 120.562 10.9933 120.562 9.9C120.562 8.80667 120.762 7.85333 121.162 7.04C121.575 6.22667 122.129 5.60667 122.822 5.18C123.529 4.74 124.309 4.52 125.162 4.52C126.562 4.52 127.629 5.05333 128.362 6.12H128.402V0.699999ZM125.322 13.88C126.269 13.88 127.015 13.52 127.562 12.8C128.122 12.0667 128.402 11.1 128.402 9.9C128.402 8.7 128.122 7.74 127.562 7.02C127.015 6.28667 126.269 5.92 125.322 5.92C124.655 5.92 124.089 6.10667 123.622 6.48C123.155 6.85333 122.809 7.34667 122.582 7.96C122.355 8.56 122.242 9.20667 122.242 9.9C122.242 10.5933 122.355 11.2467 122.582 11.86C122.809 12.46 123.155 12.9467 123.622 13.32C124.089 13.6933 124.655 13.88 125.322 13.88ZM141.414 9.52C141.414 9.94667 141.407 10.2133 141.394 10.32H133.414C133.44 11.3067 133.734 12.1533 134.294 12.86C134.854 13.5667 135.66 13.92 136.714 13.92C137.594 13.92 138.274 13.7 138.754 13.26C139.234 12.82 139.534 12.3533 139.654 11.86H141.274C140.994 12.8867 140.467 13.72 139.694 14.36C138.934 14.9867 137.934 15.3 136.694 15.3C135.654 15.3 134.76 15.0667 134.014 14.6C133.267 14.1333 132.7 13.4933 132.314 12.68C131.927 11.8533 131.734 10.92 131.734 9.88C131.734 8.8 131.934 7.85333 132.334 7.04C132.747 6.22667 133.327 5.6 134.074 5.16C134.82 4.72 135.694 4.5 136.694 4.5C137.667 4.5 138.507 4.71333 139.214 5.14C139.934 5.55333 140.48 6.14 140.854 6.9C141.227 7.64667 141.414 8.52 141.414 9.52ZM139.714 8.92C139.714 8.36 139.587 7.84667 139.334 7.38C139.08 6.91333 138.714 6.54667 138.234 6.28C137.767 6.01333 137.227 5.88 136.614 5.88C135.734 5.88 134.994 6.16667 134.394 6.74C133.794 7.3 133.467 8.02667 133.414 8.92H139.714ZM152.3 15.3C151.273 15.3 150.38 15.0733 149.62 14.62C148.873 14.1667 148.3 13.5333 147.9 12.72C147.5 11.8933 147.3 10.9533 147.3 9.9C147.3 8.84667 147.5 7.91333 147.9 7.1C148.3 6.27333 148.873 5.63333 149.62 5.18C150.38 4.72667 151.273 4.5 152.3 4.5C153.313 4.5 154.193 4.72667 154.94 5.18C155.7 5.63333 156.28 6.27333 156.68 7.1C157.08 7.91333 157.28 8.84667 157.28 9.9C157.28 10.9533 157.08 11.8933 156.68 12.72C156.28 13.5333 155.7 14.1667 154.94 14.62C154.193 15.0733 153.313 15.3 152.3 15.3ZM152.3 13.9C153.38 13.9 154.2 13.5267 154.76 12.78C155.32 12.02 155.6 11.06 155.6 9.9C155.6 8.74 155.32 7.78667 154.76 7.04C154.2 6.28 153.38 5.9 152.3 5.9C151.207 5.9 150.38 6.28 149.82 7.04C149.26 7.78667 148.98 8.74 148.98 9.9C148.98 11.06 149.26 12.02 149.82 12.78C150.38 13.5267 151.207 13.9 152.3 13.9ZM162.059 1.98C161.619 1.98 161.326 2.07333 161.179 2.26C161.032 2.43333 160.959 2.79333 160.959 3.34V4.8H162.899V6.2H160.959V15H159.359V6.2H157.939V4.8H159.359V3.42C159.359 2.32667 159.566 1.58 159.979 1.18C160.392 0.779999 161.012 0.58 161.839 0.58C162.119 0.58 162.472 0.613333 162.899 0.68V2.04C162.499 2 162.219 1.98 162.059 1.98ZM179.728 5.42C179.554 4.52667 179.141 3.74 178.488 3.06C177.848 2.36667 176.861 2.02 175.528 2.02C174.448 2.02 173.554 2.29333 172.848 2.84C172.141 3.38667 171.621 4.1 171.288 4.98C170.954 5.86 170.788 6.81333 170.788 7.84C170.788 8.86667 170.954 9.82667 171.288 10.72C171.621 11.6 172.141 12.3133 172.848 12.86C173.554 13.4067 174.448 13.68 175.528 13.68C176.901 13.68 177.928 13.3067 178.608 12.56C179.288 11.8 179.661 10.8933 179.728 9.84H181.608C181.501 10.8933 181.188 11.8333 180.668 12.66C180.148 13.4867 179.448 14.1333 178.568 14.6C177.688 15.0533 176.674 15.28 175.528 15.28C174.234 15.28 173.088 14.96 172.088 14.32C171.088 13.68 170.308 12.8 169.748 11.68C169.188 10.5467 168.908 9.26667 168.908 7.84C168.908 6.41333 169.188 5.14 169.748 4.02C170.308 2.88667 171.088 2.00667 172.088 1.38C173.088 0.739999 174.234 0.419999 175.528 0.419999C176.661 0.419999 177.668 0.646666 178.548 1.1C179.428 1.54 180.128 2.14 180.648 2.9C181.168 3.66 181.488 4.5 181.608 5.42H179.728ZM188.307 4.52C189.307 4.52 190.127 4.80667 190.767 5.38C191.407 5.94 191.727 6.77333 191.727 7.88V15H190.127V8.28C190.127 7.57333 189.947 7.00667 189.587 6.58C189.227 6.14 188.667 5.92 187.907 5.92C187.014 5.92 186.287 6.17333 185.727 6.68C185.18 7.18667 184.907 7.84 184.907 8.64V15H183.307V0.699999H184.907V6.02H184.947C185.267 5.59333 185.707 5.24 186.267 4.96C186.827 4.66667 187.507 4.52 188.307 4.52ZM196.734 15.28C195.708 15.28 194.888 15.0133 194.274 14.48C193.674 13.9467 193.374 13.2467 193.374 12.38C193.374 11.6333 193.548 11.04 193.894 10.6C194.241 10.1467 194.714 9.8 195.314 9.56C195.928 9.32 196.734 9.10667 197.734 8.92C198.401 8.8 198.901 8.68667 199.234 8.58C199.581 8.47333 199.841 8.33333 200.014 8.16C200.188 7.97333 200.274 7.72 200.274 7.4C200.274 6.4 199.568 5.9 198.154 5.9C197.514 5.9 197.008 5.96667 196.634 6.1C196.274 6.23333 196.014 6.45333 195.854 6.76C195.694 7.05333 195.594 7.45333 195.554 7.96H193.874C193.928 6.90667 194.308 6.06667 195.014 5.44C195.721 4.81333 196.788 4.5 198.214 4.5C199.281 4.5 200.148 4.76 200.814 5.28C201.494 5.8 201.834 6.64 201.834 7.8V12.7C201.834 13.1133 201.874 13.42 201.954 13.62C202.034 13.8067 202.168 13.9 202.354 13.9L202.594 13.88V15C202.301 15.0667 202.041 15.1 201.814 15.1C201.348 15.1 200.988 14.9867 200.734 14.76C200.494 14.52 200.348 14.1 200.294 13.5H200.254C199.908 14.0733 199.441 14.5133 198.854 14.82C198.268 15.1267 197.561 15.28 196.734 15.28ZM196.894 13.88C197.908 13.88 198.721 13.6467 199.334 13.18C199.961 12.7 200.274 11.9933 200.274 11.06V9.44C200.034 9.70667 199.234 9.97333 197.874 10.24C196.848 10.4533 196.121 10.7067 195.694 11C195.268 11.2933 195.054 11.7267 195.054 12.3C195.054 12.82 195.201 13.2133 195.494 13.48C195.788 13.7467 196.254 13.88 196.894 13.88ZM209.264 4.52C210.264 4.52 211.084 4.80667 211.724 5.38C212.364 5.94 212.684 6.77333 212.684 7.88V15H211.084V8.28C211.084 7.57333 210.904 7.00667 210.544 6.58C210.184 6.14 209.624 5.92 208.864 5.92C207.971 5.92 207.244 6.17333 206.684 6.68C206.137 7.18667 205.864 7.84 205.864 8.64V15H204.264V4.8H205.864V6.02H205.904C206.224 5.59333 206.664 5.24 207.224 4.96C207.784 4.66667 208.464 4.52 209.264 4.52ZM222.171 4.8H223.771V14.32C223.771 15.7467 223.358 16.8267 222.531 17.56C221.705 18.2933 220.558 18.66 219.091 18.66C217.718 18.66 216.651 18.3667 215.891 17.78C215.131 17.2067 214.711 16.4267 214.631 15.44H216.311C216.551 16.6533 217.478 17.26 219.091 17.26C220.105 17.26 220.871 17.0333 221.391 16.58C221.911 16.14 222.171 15.44 222.171 14.48V12.88H222.131C221.398 13.9467 220.318 14.48 218.891 14.48C218.025 14.48 217.245 14.2933 216.551 13.92C215.871 13.5467 215.331 12.9867 214.931 12.24C214.531 11.4933 214.331 10.58 214.331 9.5C214.331 8.42 214.531 7.50667 214.931 6.76C215.331 6.01333 215.871 5.45333 216.551 5.08C217.245 4.70667 218.025 4.52 218.891 4.52C220.265 4.52 221.345 5.03333 222.131 6.06H222.171V4.8ZM219.091 13.08C220.065 13.08 220.818 12.78 221.351 12.18C221.898 11.5667 222.171 10.6733 222.171 9.5C222.171 8.32667 221.898 7.44 221.351 6.84C220.818 6.22667 220.065 5.92 219.091 5.92C218.091 5.92 217.325 6.25333 216.791 6.92C216.271 7.58667 216.011 8.44667 216.011 9.5C216.011 10.5533 216.271 11.4133 216.791 12.08C217.325 12.7467 218.091 13.08 219.091 13.08ZM235.183 9.52C235.183 9.94667 235.177 10.2133 235.163 10.32H227.183C227.21 11.3067 227.503 12.1533 228.063 12.86C228.623 13.5667 229.43 13.92 230.483 13.92C231.363 13.92 232.043 13.7 232.523 13.26C233.003 12.82 233.303 12.3533 233.423 11.86H235.043C234.763 12.8867 234.237 13.72 233.463 14.36C232.703 14.9867 231.703 15.3 230.463 15.3C229.423 15.3 228.53 15.0667 227.783 14.6C227.037 14.1333 226.47 13.4933 226.083 12.68C225.697 11.8533 225.503 10.92 225.503 9.88C225.503 8.8 225.703 7.85333 226.103 7.04C226.517 6.22667 227.097 5.6 227.843 5.16C228.59 4.72 229.463 4.5 230.463 4.5C231.437 4.5 232.277 4.71333 232.983 5.14C233.703 5.55333 234.25 6.14 234.623 6.9C234.997 7.64667 235.183 8.52 235.183 9.52ZM233.483 8.92C233.483 8.36 233.357 7.84667 233.103 7.38C232.85 6.91333 232.483 6.54667 232.003 6.28C231.537 6.01333 230.997 5.88 230.383 5.88C229.503 5.88 228.763 6.16667 228.163 6.74C227.563 7.3 227.237 8.02667 227.183 8.92H233.483Z" fill="white"/>
</svg>
