<svg width="197" height="19" viewBox="0 0 197 19" fill="none" xmlns="http://www.w3.org/2000/svg">
<path d="M0.3 15V0.699999H2.1V6.78H9.74V0.699999H11.54V15H9.74V8.38H2.1V15H0.3ZM20.6677 4.8H22.2677V15H20.6677V13.78H20.6277C20.3077 14.2067 19.8677 14.5667 19.3077 14.86C18.7477 15.14 18.0677 15.28 17.2677 15.28C16.2677 15.28 15.4477 15 14.8077 14.44C14.1677 13.8667 13.8477 13.0267 13.8477 11.92V4.8H15.4477V11.52C15.4477 12.2267 15.6277 12.8 15.9877 13.24C16.3477 13.6667 16.9077 13.88 17.6677 13.88C18.561 13.88 19.281 13.6267 19.8277 13.12C20.3877 12.6133 20.6677 11.96 20.6677 11.16V4.8ZM35.2327 4.52C36.246 4.52 37.006 4.81333 37.5127 5.4C38.0327 5.97333 38.2927 6.8 38.2927 7.88V15H36.6927V8.28C36.6927 7.52 36.566 6.94 36.3127 6.54C36.0593 6.12667 35.566 5.92 34.8327 5.92C34.046 5.92 33.4127 6.17333 32.9327 6.68C32.466 7.18667 32.2327 7.84 32.2327 8.64V15H30.6327V8.28C30.6327 7.52 30.506 6.94 30.2527 6.54C29.9993 6.12667 29.506 5.92 28.7727 5.92C27.986 5.92 27.3527 6.17333 26.8727 6.68C26.406 7.18667 26.1727 7.84 26.1727 8.64V15H24.5727V4.8H26.1727V6.02H26.2127C26.9593 5.02 27.946 4.52 29.1727 4.52C29.8927 4.52 30.4727 4.66667 30.9127 4.96C31.3527 5.25333 31.6793 5.69333 31.8927 6.28H31.9327C32.786 5.10667 33.886 4.52 35.2327 4.52ZM43.293 15.28C42.2663 15.28 41.4463 15.0133 40.833 14.48C40.233 13.9467 39.933 13.2467 39.933 12.38C39.933 11.6333 40.1063 11.04 40.453 10.6C40.7996 10.1467 41.273 9.8 41.873 9.56C42.4863 9.32 43.293 9.10667 44.293 8.92C44.9596 8.8 45.4596 8.68667 45.793 8.58C46.1396 8.47333 46.3996 8.33333 46.573 8.16C46.7463 7.97333 46.833 7.72 46.833 7.4C46.833 6.4 46.1263 5.9 44.713 5.9C44.073 5.9 43.5663 5.96667 43.193 6.1C42.833 6.23333 42.573 6.45333 42.413 6.76C42.253 7.05333 42.153 7.45333 42.113 7.96H40.433C40.4863 6.90667 40.8663 6.06667 41.573 5.44C42.2796 4.81333 43.3463 4.5 44.773 4.5C45.8396 4.5 46.7063 4.76 47.373 5.28C48.053 5.8 48.393 6.64 48.393 7.8V12.7C48.393 13.1133 48.433 13.42 48.513 13.62C48.593 13.8067 48.7263 13.9 48.913 13.9L49.153 13.88V15C48.8596 15.0667 48.5996 15.1 48.373 15.1C47.9063 15.1 47.5463 14.9867 47.293 14.76C47.053 14.52 46.9063 14.1 46.853 13.5H46.813C46.4663 14.0733 45.9996 14.5133 45.413 14.82C44.8263 15.1267 44.1196 15.28 43.293 15.28ZM43.453 13.88C44.4663 13.88 45.2796 13.6467 45.893 13.18C46.5196 12.7 46.833 11.9933 46.833 11.06V9.44C46.593 9.70667 45.793 9.97333 44.433 10.24C43.4063 10.4533 42.6796 10.7067 42.253 11C41.8263 11.2933 41.613 11.7267 41.613 12.3C41.613 12.82 41.7596 13.2133 42.053 13.48C42.3463 13.7467 42.813 13.88 43.453 13.88ZM55.8227 4.52C56.8227 4.52 57.6427 4.80667 58.2827 5.38C58.9227 5.94 59.2427 6.77333 59.2427 7.88V15H57.6427V8.28C57.6427 7.57333 57.4627 7.00667 57.1027 6.58C56.7427 6.14 56.1827 5.92 55.4227 5.92C54.5293 5.92 53.8027 6.17333 53.2427 6.68C52.696 7.18667 52.4227 7.84 52.4227 8.64V15H50.8227V4.8H52.4227V6.02H52.4627C52.7827 5.59333 53.2227 5.24 53.7827 4.96C54.3427 4.66667 55.0227 4.52 55.8227 4.52ZM71.4194 6.7C72.6194 6.98 73.5727 7.26 74.2794 7.54C74.986 7.80667 75.5727 8.22 76.0394 8.78C76.506 9.34 76.7394 10.0933 76.7394 11.04C76.7394 12.2933 76.3127 13.3133 75.4594 14.1C74.606 14.8867 73.3327 15.28 71.6394 15.28C70.4527 15.28 69.3994 15.08 68.4794 14.68C67.5594 14.2667 66.826 13.68 66.2794 12.92C65.746 12.16 65.446 11.2533 65.3794 10.2H67.2594C67.4994 12.5333 68.9327 13.7 71.5594 13.7C72.7594 13.7 73.606 13.4733 74.0994 13.02C74.606 12.5533 74.8594 11.9133 74.8594 11.1C74.8594 10.4867 74.726 10.0133 74.4594 9.68C74.1927 9.34667 73.8194 9.09333 73.3394 8.92C72.8594 8.73333 72.1127 8.51333 71.0994 8.26C71.006 8.24667 70.866 8.21333 70.6794 8.16C69.706 7.92 68.8994 7.67333 68.2594 7.42C67.6327 7.16667 67.0927 6.78 66.6394 6.26C66.1994 5.74 65.9794 5.05333 65.9794 4.2C65.9794 3.04 66.406 2.12 67.2594 1.44C68.1127 0.759999 69.2994 0.419999 70.8194 0.419999C72.4327 0.419999 73.7127 0.813333 74.6594 1.6C75.6194 2.38667 76.1594 3.5 76.2794 4.94H74.3994C74.266 3.95333 73.9194 3.22 73.3594 2.74C72.7994 2.24667 71.9594 2 70.8394 2C69.8527 2 69.106 2.18 68.5994 2.54C68.106 2.9 67.8594 3.42667 67.8594 4.12C67.8594 4.68 68.0127 5.12 68.3194 5.44C68.6394 5.76 69.026 6 69.4794 6.16C69.9327 6.32 70.5794 6.5 71.4194 6.7ZM78.2789 2.82V0.899999H80.1989V2.82H78.2789ZM80.0389 15H78.4389V4.8H80.0389V15ZM89.5698 0.699999H91.1698V15H89.5698V13.74H89.5298C88.7432 14.7667 87.6765 15.28 86.3298 15.28C85.4765 15.28 84.6965 15.0667 83.9898 14.64C83.2965 14.2 82.7432 13.5733 82.3298 12.76C81.9298 11.9467 81.7298 10.9933 81.7298 9.9C81.7298 8.80667 81.9298 7.85333 82.3298 7.04C82.7432 6.22667 83.2965 5.60667 83.9898 5.18C84.6965 4.74 85.4765 4.52 86.3298 4.52C87.7298 4.52 88.7965 5.05333 89.5298 6.12H89.5698V0.699999ZM86.4898 13.88C87.4365 13.88 88.1832 13.52 88.7298 12.8C89.2898 12.0667 89.5698 11.1 89.5698 9.9C89.5698 8.7 89.2898 7.74 88.7298 7.02C88.1832 6.28667 87.4365 5.92 86.4898 5.92C85.8232 5.92 85.2565 6.10667 84.7898 6.48C84.3232 6.85333 83.9765 7.34667 83.7498 7.96C83.5232 8.56 83.4098 9.20667 83.4098 9.9C83.4098 10.5933 83.5232 11.2467 83.7498 11.86C83.9765 12.46 84.3232 12.9467 84.7898 13.32C85.2565 13.6933 85.8232 13.88 86.4898 13.88ZM102.582 9.52C102.582 9.94667 102.575 10.2133 102.562 10.32H94.5817C94.6084 11.3067 94.9017 12.1533 95.4617 12.86C96.0217 13.5667 96.8284 13.92 97.8817 13.92C98.7617 13.92 99.4417 13.7 99.9217 13.26C100.402 12.82 100.702 12.3533 100.822 11.86H102.442C102.162 12.8867 101.635 13.72 100.862 14.36C100.102 14.9867 99.1017 15.3 97.8617 15.3C96.8217 15.3 95.9284 15.0667 95.1817 14.6C94.4351 14.1333 93.8684 13.4933 93.4817 12.68C93.0951 11.8533 92.9017 10.92 92.9017 9.88C92.9017 8.8 93.1017 7.85333 93.5017 7.04C93.9151 6.22667 94.4951 5.6 95.2417 5.16C95.9884 4.72 96.8617 4.5 97.8617 4.5C98.8351 4.5 99.6751 4.71333 100.382 5.14C101.102 5.55333 101.648 6.14 102.022 6.9C102.395 7.64667 102.582 8.52 102.582 9.52ZM100.882 8.92C100.882 8.36 100.755 7.84667 100.502 7.38C100.248 6.91333 99.8817 6.54667 99.4017 6.28C98.9351 6.01333 98.3951 5.88 97.7817 5.88C96.9017 5.88 96.1617 6.16667 95.5617 6.74C94.9617 7.3 94.6351 8.02667 94.5817 8.92H100.882ZM113.468 15.3C112.441 15.3 111.548 15.0733 110.788 14.62C110.041 14.1667 109.468 13.5333 109.068 12.72C108.668 11.8933 108.468 10.9533 108.468 9.9C108.468 8.84667 108.668 7.91333 109.068 7.1C109.468 6.27333 110.041 5.63333 110.788 5.18C111.548 4.72667 112.441 4.5 113.468 4.5C114.481 4.5 115.361 4.72667 116.108 5.18C116.868 5.63333 117.448 6.27333 117.848 7.1C118.248 7.91333 118.448 8.84667 118.448 9.9C118.448 10.9533 118.248 11.8933 117.848 12.72C117.448 13.5333 116.868 14.1667 116.108 14.62C115.361 15.0733 114.481 15.3 113.468 15.3ZM113.468 13.9C114.548 13.9 115.368 13.5267 115.928 12.78C116.488 12.02 116.768 11.06 116.768 9.9C116.768 8.74 116.488 7.78667 115.928 7.04C115.368 6.28 114.548 5.9 113.468 5.9C112.375 5.9 111.548 6.28 110.988 7.04C110.428 7.78667 110.148 8.74 110.148 9.9C110.148 11.06 110.428 12.02 110.988 12.78C111.548 13.5267 112.375 13.9 113.468 13.9ZM123.227 1.98C122.787 1.98 122.494 2.07333 122.347 2.26C122.2 2.43333 122.127 2.79333 122.127 3.34V4.8H124.067V6.2H122.127V15H120.527V6.2H119.107V4.8H120.527V3.42C120.527 2.32667 120.734 1.58 121.147 1.18C121.56 0.779999 122.18 0.58 123.007 0.58C123.287 0.58 123.64 0.613333 124.067 0.68V2.04C123.667 2 123.387 1.98 123.227 1.98ZM140.896 5.42C140.722 4.52667 140.309 3.74 139.656 3.06C139.016 2.36667 138.029 2.02 136.696 2.02C135.616 2.02 134.722 2.29333 134.016 2.84C133.309 3.38667 132.789 4.1 132.456 4.98C132.122 5.86 131.956 6.81333 131.956 7.84C131.956 8.86667 132.122 9.82667 132.456 10.72C132.789 11.6 133.309 12.3133 134.016 12.86C134.722 13.4067 135.616 13.68 136.696 13.68C138.069 13.68 139.096 13.3067 139.776 12.56C140.456 11.8 140.829 10.8933 140.896 9.84H142.776C142.669 10.8933 142.356 11.8333 141.836 12.66C141.316 13.4867 140.616 14.1333 139.736 14.6C138.856 15.0533 137.842 15.28 136.696 15.28C135.402 15.28 134.256 14.96 133.256 14.32C132.256 13.68 131.476 12.8 130.916 11.68C130.356 10.5467 130.076 9.26667 130.076 7.84C130.076 6.41333 130.356 5.14 130.916 4.02C131.476 2.88667 132.256 2.00667 133.256 1.38C134.256 0.739999 135.402 0.419999 136.696 0.419999C137.829 0.419999 138.836 0.646666 139.716 1.1C140.596 1.54 141.296 2.14 141.816 2.9C142.336 3.66 142.656 4.5 142.776 5.42H140.896ZM149.475 4.52C150.475 4.52 151.295 4.80667 151.935 5.38C152.575 5.94 152.895 6.77333 152.895 7.88V15H151.295V8.28C151.295 7.57333 151.115 7.00667 150.755 6.58C150.395 6.14 149.835 5.92 149.075 5.92C148.182 5.92 147.455 6.17333 146.895 6.68C146.348 7.18667 146.075 7.84 146.075 8.64V15H144.475V0.699999H146.075V6.02H146.115C146.435 5.59333 146.875 5.24 147.435 4.96C147.995 4.66667 148.675 4.52 149.475 4.52ZM157.902 15.28C156.876 15.28 156.056 15.0133 155.442 14.48C154.842 13.9467 154.542 13.2467 154.542 12.38C154.542 11.6333 154.716 11.04 155.062 10.6C155.409 10.1467 155.882 9.8 156.482 9.56C157.096 9.32 157.902 9.10667 158.902 8.92C159.569 8.8 160.069 8.68667 160.402 8.58C160.749 8.47333 161.009 8.33333 161.182 8.16C161.356 7.97333 161.442 7.72 161.442 7.4C161.442 6.4 160.736 5.9 159.322 5.9C158.682 5.9 158.176 5.96667 157.802 6.1C157.442 6.23333 157.182 6.45333 157.022 6.76C156.862 7.05333 156.762 7.45333 156.722 7.96H155.042C155.096 6.90667 155.476 6.06667 156.182 5.44C156.889 4.81333 157.956 4.5 159.382 4.5C160.449 4.5 161.316 4.76 161.982 5.28C162.662 5.8 163.002 6.64 163.002 7.8V12.7C163.002 13.1133 163.042 13.42 163.122 13.62C163.202 13.8067 163.336 13.9 163.522 13.9L163.762 13.88V15C163.469 15.0667 163.209 15.1 162.982 15.1C162.516 15.1 162.156 14.9867 161.902 14.76C161.662 14.52 161.516 14.1 161.462 13.5H161.422C161.076 14.0733 160.609 14.5133 160.022 14.82C159.436 15.1267 158.729 15.28 157.902 15.28ZM158.062 13.88C159.076 13.88 159.889 13.6467 160.502 13.18C161.129 12.7 161.442 11.9933 161.442 11.06V9.44C161.202 9.70667 160.402 9.97333 159.042 10.24C158.016 10.4533 157.289 10.7067 156.862 11C156.436 11.2933 156.222 11.7267 156.222 12.3C156.222 12.82 156.369 13.2133 156.662 13.48C156.956 13.7467 157.422 13.88 158.062 13.88ZM170.432 4.52C171.432 4.52 172.252 4.80667 172.892 5.38C173.532 5.94 173.852 6.77333 173.852 7.88V15H172.252V8.28C172.252 7.57333 172.072 7.00667 171.712 6.58C171.352 6.14 170.792 5.92 170.032 5.92C169.139 5.92 168.412 6.17333 167.852 6.68C167.305 7.18667 167.032 7.84 167.032 8.64V15H165.432V4.8H167.032V6.02H167.072C167.392 5.59333 167.832 5.24 168.392 4.96C168.952 4.66667 169.632 4.52 170.432 4.52ZM183.339 4.8H184.939V14.32C184.939 15.7467 184.526 16.8267 183.699 17.56C182.873 18.2933 181.726 18.66 180.259 18.66C178.886 18.66 177.819 18.3667 177.059 17.78C176.299 17.2067 175.879 16.4267 175.799 15.44H177.479C177.719 16.6533 178.646 17.26 180.259 17.26C181.273 17.26 182.039 17.0333 182.559 16.58C183.079 16.14 183.339 15.44 183.339 14.48V12.88H183.299C182.566 13.9467 181.486 14.48 180.059 14.48C179.193 14.48 178.413 14.2933 177.719 13.92C177.039 13.5467 176.499 12.9867 176.099 12.24C175.699 11.4933 175.499 10.58 175.499 9.5C175.499 8.42 175.699 7.50667 176.099 6.76C176.499 6.01333 177.039 5.45333 177.719 5.08C178.413 4.70667 179.193 4.52 180.059 4.52C181.433 4.52 182.513 5.03333 183.299 6.06H183.339V4.8ZM180.259 13.08C181.233 13.08 181.986 12.78 182.519 12.18C183.066 11.5667 183.339 10.6733 183.339 9.5C183.339 8.32667 183.066 7.44 182.519 6.84C181.986 6.22667 181.233 5.92 180.259 5.92C179.259 5.92 178.493 6.25333 177.959 6.92C177.439 7.58667 177.179 8.44667 177.179 9.5C177.179 10.5533 177.439 11.4133 177.959 12.08C178.493 12.7467 179.259 13.08 180.259 13.08ZM196.351 9.52C196.351 9.94667 196.345 10.2133 196.331 10.32H188.351C188.378 11.3067 188.671 12.1533 189.231 12.86C189.791 13.5667 190.598 13.92 191.651 13.92C192.531 13.92 193.211 13.7 193.691 13.26C194.171 12.82 194.471 12.3533 194.591 11.86H196.211C195.931 12.8867 195.405 13.72 194.631 14.36C193.871 14.9867 192.871 15.3 191.631 15.3C190.591 15.3 189.698 15.0667 188.951 14.6C188.205 14.1333 187.638 13.4933 187.251 12.68C186.865 11.8533 186.671 10.92 186.671 9.88C186.671 8.8 186.871 7.85333 187.271 7.04C187.685 6.22667 188.265 5.6 189.011 5.16C189.758 4.72 190.631 4.5 191.631 4.5C192.605 4.5 193.445 4.71333 194.151 5.14C194.871 5.55333 195.418 6.14 195.791 6.9C196.165 7.64667 196.351 8.52 196.351 9.52ZM194.651 8.92C194.651 8.36 194.525 7.84667 194.271 7.38C194.018 6.91333 193.651 6.54667 193.171 6.28C192.705 6.01333 192.165 5.88 191.551 5.88C190.671 5.88 189.931 6.16667 189.331 6.74C188.731 7.3 188.405 8.02667 188.351 8.92H194.651Z" fill="white"/>
</svg>
